{
.appVersion = "3192";
.formatVersion = 3;
axes = (
{
name = Spacing;
tag = SPAC;
},
{
name = Mashq;
tag = MSHQ;
}
);
classes = (
{
code = "$[name LIKE \"*-ar\" && category == \"Letter\" && ! colorIndex == 0 &&
  name != \"kashida-ar\" && name != \"hamza-ar\"]

period
threedots-ar
zerowidthspace
endofayah-ar
dottedCircle
";
name = isol;
},
{
code = "$[name LIKE \"*.init*\" && ! name BEGINSWITH \"_\"]
";
name = init;
},
{
code = "$[name LIKE \"*.fina*\" && ! name BEGINSWITH \"_\"]
";
name = fina;
},
{
code = "$[name LIKE '*dot*below-ar']
";
name = dotsbelow;
}
);
customParameters = (
{
name = "Write lastChange";
value = 0;
},
{
name = "Don't use Production Names";
value = 1;
},
{
name = "Write DisplayStrings";
value = 0;
},
{
name = "Use Line Breaks";
value = 1;
},
{
name = "Color Palettes";
value = (
(
(144,41,0,255),
(212,175,55,255),
(71,28,1,255),
(144,41,0,230),
(154,115,18,255)
)
);
},
{
name = unicodeRanges;
value = (
13
);
},
{
name = codePageRanges;
value = (
"1256",
"864"
);
},
{
name = fsType;
value = (
);
},
{
name = glyphOrder;
value = (
.notdef,
space
);
}
);
date = "2021-04-25 20:10:22 +0000";
familyName = Raqq;
featurePrefixes = (
{
code = "languagesystem DFLT dflt;

languagesystem arab dflt;
";
name = Languagesystems;
},
{
code = "lookup ccmp_1 {
	sub alefHamzaabove-ar by alef-ar hamzaabove-ar;
	sub alefHamzabelow-ar by alef-ar hamzabelow-ar;
	sub alefMadda-ar by alef-ar madda-ar;
	sub alefWasla-ar by alef-ar; # wasla-ar
	sub beh-ar by behDotless-ar dotbelow-ar;
	sub teh-ar by behDotless-ar twodotsverticalabove-ar;
	sub theh-ar by behDotless-ar threedotsupabove-ar;
	sub peh-ar by behDotless-ar threedotsdownbelow-ar;
	sub jeem-ar by hah-ar dotbelow-ar;
	sub tcheh-ar by hah-ar threedotsdownbelow-ar;
	sub khah-ar by hah-ar dotabove-ar;
	sub thal-ar by dal-ar dotabove-ar;
	sub zain-ar by reh-ar dotabove-ar.reh;
	sub jeh-ar by reh-ar threedotsupabove-ar;
	sub sheen-ar by seen-ar threedotshorizontalabove-ar;
	sub dad-ar by sad-ar dotabove-ar;

glyphs = (
{
glyphname = .notdef;
layers = (
{
layerId = m01;
shapes = (
{
closed = 1;
nodes = (
(391,0,l),
(391,625,l),
(49,625,l),
(49,0,l)
);
},
{
closed = 1;
nodes = (
(98,576,l),
(342,576,l),
(342,49,l),
(98,49,l)
);
},
{
closed = 1;
nodes = (
(122,49,l),
(366,576,l),
(318,576,l),
(73,49,l)
);
},
{
closed = 1;
nodes = (
(318,49,l),
(366,49,l),
(122,576,l),
(73,576,l)
);
}
);
width = 440;
}
);
},
{
glyphname = "alef-ar";
layers = (
{
anchors = (
{
name = damma;
pos = (-34,59);
},
{
name = fatha;
pos = (166,625);
},
{
name = hamzaabove;
pos = (166,625);
},
{
name = hamzabelow;
pos = (404,-95);
},
{
name = kasra;
pos = (268,-83);
},
{
name = madda;
pos = (-44,625);
}
);
backgroundImage = {
alpha = 80;
imagePath = "images/MS-ADD-01116-000-00003.jpg";
locked = 1;
pos = (-2847,-2880);
scale = (5,5);
};
layerId = m01;
shapes = (
{
closed = 1;
nodes = (
(481,-42,o),
(636,18,o),
(684,129,cs),
(689,141,o),
(682,145,o),
(670,139,cs),
(520,69,o),
(372,63,o),
(267,116,cs),
(184,157,o),
(128,236,o),
(120,347,cs),
(111,481,o),
(118,667,o),
(103,762,cs),
(99,789,o),
(87,785,o),
(80,771,cs),
(67,743,o),
(27,704,o),
(5,690,cs),
(-5,683,o),
(2,665,o),
(6,634,cs),
(17,548,o),
(23,373,o),
(26,263,cs),
(31,45,o),
(179,-42,o),
(342,-42,cs)
);
}
);
width = 686;
}
);
metricLeft = "=0";
metricRight = "=0";
unicode = 1575;
},
{
glyphname = "alef-ar.fina";
kernRight = beh;
layers = (
{
anchors = (
{
name = damma;
pos = (-66,61);
},
{
name = entry;
pos = (101,0);
},
{
name = fatha;
pos = (145,650);
},
{
name = hamzaabove;
pos = (145,650);
},
{
name = hamzabelow;
pos = (67,-56);
},
{
name = kasra;
pos = (67,-56);
},
{
name = madda;
pos = (-76,635);
}
);
backgroundImage = {
alpha = 80;
angle = 1;
imagePath = "images/MS-ADD-01116-000-00003.jpg";
locked = 1;
pos = (-4878,-2944);
scale = (5,5);
};
layerId = m01;
shapes = (
{
closed = 1;
nodes = (
(114,0,l),
(114,110,l),
(102,110,o),
(99,134,o),
(94,247,cs),
(91,326,o),
(85,616,o),
(84,777,cs),
(84,797,o),
(70,797,o),
(63,786,cs),
(41,750,o),
(18,722,o),
(-8,706,cs),
(-25,695,o),
(-22,677,o),
(-16,610,cs),
(-5,490,o),
(-5,239,o),
(0,55,cs),
(1,20,o),
(16,0,o),
(65,0,cs)
);
}
);
width = 102;
},
{
associatedMasterId = m01;
backgroundImage = {
alpha = 80;
imagePath = "images/MS-ADD-01116-000-00005.jpg";
locked = 1;
pos = (-4004,-2880);
scale = (5,5);
};
layerId = "532FC0AD-E949-40C1-A1D7-8CEDFA7C419C";
name = "4 Apr 23 at 01:05";
shapes = (
{
alignment = -1;
pos = (-28,0);
ref = "behDotless-ar.medi.high";
}
);
visible = 1;
width = 100;
}
);
metricLeft = "=0@55";
metricRight = "=3@157";
},
{
glyphname = "alef-ar.fina.short";
kernRight = beh;
layers = (
{
anchors = (
{
name = damma;
pos = (-66,61);
},
{
name = entry;
pos = (102,0);
},
{
name = fatha;
pos = (145,559);
},
{
name = hamzaabove;
pos = (145,559);
},
{
name = hamzabelow;
pos = (67,-56);
},
{
name = kasra;
pos = (67,-56);
},
{
name = madda;
pos = (-82,539);
}
);
backgroundImage = {
alpha = 80;
imagePath = "../images/MS-ADD-01116-000-00005.jpg";
locked = 1;
pos = (-4003,-2880);
scale = (5,5);
};
layerId = m01;
shapes = (
{
closed = 1;
nodes = (
(114,0,l),
(114,110,l),
(102,110,o),
(100,134,o),
(99,157,cs),
(92,326,o),
(82,510,o),
(75,671,cs),
(74,694,o),
(60,700,o),
(50,681,cs),
(38,658,o),
(0,624,o),
(-18,610,cs),
(-34,598,o),
(-28,584,o),
(-27,574,cs),
(-17,413,o),
(-3,149,o),
(0,55,cs),
(1,20,o),
(16,0,o),
(65,0,cs)
);
}
);
width = 102;
},
{
associatedMasterId = m01;
backgroundImage = {
alpha = 80;
imagePath = "../images/MS-ADD-01116-000-00005.jpg";
locked = 1;
pos = (-4004,-2880);
scale = (5,5);
};
layerId = "532FC0AD-E949-40C1-A1D7-8CEDFA7C419C";
name = "4 Apr 23 at 01:05";
shapes = (
{
alignment = -1;
pos = (-28,0);
ref = "behDotless-ar.medi.high";
}
);
width = 100;
},
{
associatedMasterId = m01;
backgroundImage = {
alpha = 80;
imagePath = "../images/MS-ADD-01116-000-00005.jpg";
locked = 1;
pos = (-4004,-2880);
scale = (5,5);
};
layerId = "4BE986EA-A6BA-42B7-9867-7D597D0DA719";
name = "3 May 23 at 03:14";
shapes = (
{
closed = 1;
nodes = (
(-6,0,l),
(68,2,o),
(103,8,o),
(99,116,cs),
(94,263,o),
(83,475,o),
(74,671,cs),
(73,694,o),
(59,700,o),
(49,681,cs),
(37,658,o),
(-2,624,o),
(-20,610,cs),
(-35,597,o),
(-29,584,o),
(-28,574,cs),
(-18,413,o),
(-8,239,o),
(-6,110,c),
(-44,110,l),
(-44,0,l)
);
}
);
visible = 1;
width = 102;
}
);
metricLeft = "=0@55";
metricRight = "=3@157";
},
{
color = 9;
glyphname = "behDotless-ar";
layers = (
{
anchors = (
{
name = bottom;
pos = (996,13);
},
{
name = damma;
pos = (-51,86);
},
{
name = fatha;
pos = (550,167);
},
{
name = kasra;
pos = (721,-61);
},
{
name = top;
pos = (858,228);
}
);
backgroundImage = {
alpha = 80;
imagePath = "images/MS-ADD-01116-000-00043.jpg";
locked = 1;
pos = (-2761,-2863);
scale = (5,5);
};
layerId = m01;
shapes = (
{
closed = 1;
nodes = (
(507,-14,o),
(603,-13,o),
(915,0,cs),
(996,4,o),
(1007,20,o),
(1007,78,cs),
(1007,130,o),
(974,226,o),
(931,278,cs),
(924,286,o),
(916,292,o),
(909,274,cs),
(890,223,o),
(842,184,o),
(808,182,cs),
(794,181,o),
(796,163,o),
(808,159,cs),
(842,147,o),
(867,127,o),
(878,106,c),
(681,91,o),
(471,93,o),
(177,104,cs),
(123,106,o),
(115,114,o),
(106,118,cs),
(97,122,o),
(87,121,o),
(85,117,cs),
(60,67,o),
(31,39,o),
(7,32,cs),
(-6,28,o),
(0,16,o),
(11,13,cs),
(55,0,o),
(109,-4,o),
(159,-5,cs)
);
}
);
width = 1007;
},
{
anchors = (
{
name = bottom;
pos = (5989,13);
},
{
name = damma;
pos = (-51,86);
},
{
name = fatha;
pos = (2950,167);
},
{
name = kasra;
pos = (3121,-61);
},
{
name = top;
pos = (5851,228);
}
);
associatedMasterId = m01;
attr = {
coordinates = (
0,
100
);
};
backgroundImage = {
alpha = 80;
imagePath = "images/MS-ADD-01116-000-00043.jpg";
locked = 1;
pos = (-2761,-2863);
scale = (5,5);
};
layerId = "307A62E0-5030-4782-86E3-03AB3DF697F9";
name = "17 May 23 at 02:24";
shapes = (
{
closed = 1;
nodes = (
(507,-14,o),
(5596,-13,o),
(5908,0,cs),
(5989,4,o),
(6000,20,o),
(6000,78,cs),
(6000,130,o),
(5967,226,o),
(5924,278,cs),
(5917,286,o),
(5909,292,o),
(5902,274,cs),
(5883,223,o),
(5835,184,o),
(5801,182,cs),
(5787,181,o),
(5789,163,o),
(5801,159,cs),
(5835,147,o),
(5860,127,o),
(5871,106,c),
(5674,91,o),
(471,93,o),
(177,104,cs),
(123,106,o),
(115,114,o),
(106,118,cs),
(97,122,o),
(87,121,o),
(85,117,cs),
(60,67,o),
(31,39,o),
(7,32,cs),
(-6,28,o),
(0,16,o),
(11,13,cs),
(55,0,o),
(109,-4,o),
(159,-5,cs)
);
}
);
visible = 1;
width = 6000;
},
{
anchors = (
{
name = bottom;
pos = (407,19);
},
{
name = damma;
pos = (-51,86);
},
{
name = fatha;
pos = (330,328);
},
{
name = kasra;
pos = (261,-71);
},
{
name = top;
pos = (273,228);
}
);
associatedMasterId = m01;
attr = {
coordinates = (
0,
0
);
};
backgroundImage = {
alpha = 80;
imagePath = "images/MS-ADD-01116-000-00043.jpg";
locked = 1;
pos = (-2761,-2863);
scale = (5,5);
};
layerId = "72A149EE-7B58-4136-BDFB-772EA48C3704";
name = "17 May 23 at 17:21";
shapes = (
{
closed = 1;
nodes = (
(177,-6,o),
(258,-6,o),
(330,-1,cs),
(411,4,o),
(422,20,o),
(422,78,cs),
(422,130,o),
(389,226,o),
(346,278,cs),
(339,286,o),
(331,292,o),
(324,274,cs),
(305,223,o),
(257,184,o),
(223,182,cs),
(209,181,o),
(211,163,o),
(223,159,cs),
(257,147,o),
(282,127,o),
(293,106,c),
(249,98,o),
(201,100,o),
(163,105,cs),
(136,109,o),
(115,114,o),
(106,118,cs),
(97,122,o),
(87,121,o),
(85,117,cs),
(60,67,o),
(31,39,o),
(7,32,cs),
(-6,28,o),
(0,16,o),
(11,13,cs),
(55,0,o),
(89,-2,o),
(119,-3,cs)
);
}
);
visible = 1;
width = 422;
}
);
metricLeft = "=0";
metricRight = "=0";
unicode = 1646;
},
{
color = 9;
glyphname = "behDotless-ar.fina";
kernRight = beh;
layers = (
{
anchors = (
{
name = bottom;
pos = (871,-39);
},
{
name = damma;
pos = (-37,68);
},
{
name = entry;
pos = (984,0);
},
{
name = fatha;
pos = (668,168);
},
{
name = kasra;
pos = (769,-72);
},
{
name = top;
pos = (912,294);
}
);
backgroundImage = {
alpha = 80;
angle = -0.4;
imagePath = "images/MS-ADD-01116-000-00025.jpg";
locked = 1;
pos = (-2520,-2714);
scale = (5,5);
};
layerId = m01;
shapes = (
{
closed = 1;
nodes = (
(437,-6,o),
(569,-1,o),
(997,0,c),
(997,110,l),
(985,110,o),
(982,135,o),
(981,157,cs),
(979,234,o),
(975,289,o),
(971,341,cs),
(969,364,o),
(952,359,o),
(945,344,cs),
(917,288,o),
(870,251,o),
(839,251,cs),
(821,251,o),
(818,228,o),
(833,218,cs),
(867,191,o),
(877,158,o),
(877,130,cs),
(877,103,o),
(839,101,o),
(810,100,cs),
(463,94,o),
(412,96,o),
(195,100,cs),
(151,101,o),
(126,101,o),
(87,119,cs),
(79,123,o),
(71,127,o),
(67,110,cs),
(59,79,o),
(39,50,o),
(13,38,cs),
(-3,31,o),
(-4,21,o),
(10,13,cs),
(38,-3,o),
(79,-9,o),
(139,-8,cs)
);
}
);
width = 984;
},
{
associatedMasterId = m01;
backgroundImage = {
alpha = 80;
angle = -0.4;
imagePath = "images/MS-ADD-01116-000-00025.jpg";
locked = 1;
pos = (-2520,-2714);
scale = (5,5);
};
layerId = "6F8339BF-28BC-429B-9BC8-337F9B1F3B46";
name = "4 Apr 23 at 00:53";
shapes = (
{
alignment = -1;
pos = (856,0);
ref = "behDotless-ar.medi";
}
);
width = 984;
},
{
anchors = (
{
name = bottom;
pos = (5887,-39);
},
{
name = damma;
pos = (-37,68);
},
{
name = entry;
pos = (6000,0);
},
{
name = fatha;
pos = (2968,168);
},
{
name = kasra;
pos = (3069,-72);
},
{
name = top;
pos = (5928,294);
}
);
associatedMasterId = m01;
attr = {
coordinates = (
0,
100
);
};
backgroundImage = {
alpha = 80;
angle = -0.4;
imagePath = "images/MS-ADD-01116-000-00025.jpg";
locked = 1;
pos = (-2520,-2714);
scale = (5,5);
};
layerId = "F12C8E8A-FF78-45E3-A48F-D527A8739E99";
name = "17 May 23 at 02:25";
shapes = (
{
closed = 1;
nodes = (
(437,-6,o),
(5585,-1,o),
(6013,0,c),
(6013,110,l),
(6001,110,o),
(5998,135,o),
(5997,157,cs),
(5995,234,o),
(5991,289,o),
(5987,341,cs),
(5985,364,o),
(5968,359,o),
(5961,344,cs),
(5933,288,o),
(5886,251,o),
(5855,251,cs),
(5837,251,o),
(5834,228,o),
(5849,218,cs),
(5883,191,o),
(5893,158,o),
(5893,130,cs),
(5893,103,o),
(5855,101,o),
(5826,100,cs),
(5479,94,o),
(412,96,o),
(195,100,cs),
(151,101,o),
(126,101,o),
(87,119,cs),
(79,123,o),
(71,127,o),
(67,110,cs),
(59,79,o),
(39,50,o),
(13,38,cs),
(-3,31,o),
(-4,21,o),
(10,13,cs),
(38,-3,o),
(79,-9,o),
(139,-8,cs)
);
}
);
width = 6000;
},
{
anchors = (
{
name = bottom;
pos = (312,-39);
},
{
name = damma;
pos = (-47,68);
},
{
name = entry;
pos = (425,0);
},
{
name = fatha;
pos = (364,388);
},
{
name = kasra;
pos = (240,-72);
},
{
name = top;
pos = (352,294);
}
);
associatedMasterId = m01;
attr = {
coordinates = (
0,
0
);
};
backgroundImage = {
alpha = 80;
angle = -0.4;
imagePath = "images/MS-ADD-01116-000-00025.jpg";
locked = 1;
pos = (-2520,-2714);
scale = (5,5);
};
layerId = "EE044D8F-3BE1-4C50-BA13-713D04A6A341";
name = "17 May 23 at 17:25";
shapes = (
{
closed = 1;
nodes = (
(218,-1,o),
(260,-1,o),
(438,0,c),
(438,110,l),
(426,110,o),
(423,135,o),
(422,157,cs),
(420,234,o),
(416,289,o),
(412,341,cs),
(410,364,o),
(393,359,o),
(386,344,cs),
(358,288,o),
(311,251,o),
(280,251,cs),
(262,251,o),
(259,228,o),
(274,218,cs),
(308,191,o),
(318,158,o),
(318,130,cs),
(318,112,o),
(302,111,o),
(293,110,cs),
(266,107,o),
(189,107,o),
(153,110,cs),
(130,112,o),
(107,118,o),
(87,127,cs),
(79,131,o),
(71,135,o),
(67,118,cs),
(59,87,o),
(39,58,o),
(13,46,cs),
(-3,39,o),
(-4,29,o),
(10,21,cs),
(38,5,o),
(79,-5,o),
(139,-3,cs)
);
}
);
width = 425;
}
);
metricLeft = "=0";
metricRight = "=3@157";
},
{
glyphname = "behDotless-ar.medi";
kernRight = beh;
layers = (
{
anchors = (
{
name = bottom;
pos = (46,-38);
},
{
name = damma;
pos = (17,170);
},
{
name = entry;
pos = (128,0);
},
{
name = exit;
},
{
name = fatha;
pos = (71,403);
},
{
name = kasra;
pos = (79,-57);
},
{
name = top;
pos = (82,332);
}
);
backgroundImage = {
alpha = 80;
imagePath = "images/MS-ADD-01116-000-00008.jpg";
locked = 1;
pos = (-3889,-2872);
scale = (5,5);
};
layerId = m01;
shapes = (
{
closed = 1;
nodes = (
(141,0,l),
(141,110,l),
(129,110,o),
(126,134,o),
(125,157,cs),
(123,234,o),
(119,289,o),
(115,341,cs),
(114,360,o),
(100,359,o),
(94,351,cs),
(63,305,o),
(56,285,o),
(28,269,cs),
(15,262,o),
(13,257,o),
(14,247,cs),
(16,216,o),
(20,174,o),
(21,110,c),
(-20,110,l),
(-20,0,l)
);
}
);
width = 128;
},
{
associatedMasterId = m01;
backgroundImage = {
alpha = 80;
imagePath = "images/MS-ADD-01116-000-00008.jpg";
locked = 1;
pos = (-3889,-2872);
scale = (5,5);
};
layerId = "6BF016C0-5EF7-4DF0-8856-0DAE64C70AB6";
name = "3 Apr 23 at 23:45";
shapes = (
{
alignment = -1;
ref = "behDotless-ar.medi.high";
}
);
visible = 1;
width = 128;
}
);
metricLeft = "=-20@0";
metricRight = "=3@157";
},
{
glyphname = "behDotless-ar.medi.semi";
kernRight = beh;
layers = (
{
anchors = (
{
name = bottom;
pos = (52,-38);
},
{
name = damma;
pos = (16,170);
},
{
name = entry;
pos = (128,0);
},
{
name = exit;
},
{
name = fatha;
pos = (71,440);
},
{
name = kasra;
pos = (85,-57);
},
{
name = top;
pos = (75,351);
}
);
backgroundImage = {
alpha = 80;
angle = -0.4;
imagePath = "images/MS-ADD-01116-000-00025.jpg";
locked = 1;
pos = (-3501,-2714);
scale = (5,5);
};
layerId = m01;
shapes = (
{
closed = 1;
nodes = (
(141,0,l),
(141,110,l),
(129,110,o),
(126,134,o),
(125,157,cs),
(122,234,o),
(119,296,o),
(113,365,cs),
(110,394,o),
(99,392,o),
(86,369,cs),
(70,340,o),
(47,314,o),
(27,298,cs),
(16,289,o),
(12,290,o),
(14,270,cs),
(19,219,o),
(20,174,o),
(21,110,c),
(-20,110,l),
(-20,0,l)
);
}
);
width = 128;
},
{
associatedMasterId = m01;
backgroundImage = {
alpha = 80;
angle = -0.4;
imagePath = "images/MS-ADD-01116-000-00025.jpg";
locked = 1;
pos = (-3501,-2714);
scale = (5,5);
};
layerId = "9CCA9F2E-9DDA-4144-B9CD-5C660AC9D86A";
name = "3 Apr 23 at 23:48";
shapes = (
{
alignment = -1;
ref = "behDotless-ar.medi.high";
}
);
visible = 1;
width = 128;
}
);
metricLeft = "=-20@0";
metricRight = "=3@157";
},
{
glyphname = "behDotless-ar.medi.med";
kernRight = beh;
layers = (
{
anchors = (
{
name = bottom;
pos = (54,-38);
},
{
name = damma;
pos = (18,170);
},
{
name = entry;
pos = (128,0);
},
{
name = exit;
},
{
name = fatha;
pos = (70,460);
},
{
name = kasra;
pos = (87,-57);
},
{
name = top;
pos = (76,381);
}
);
backgroundImage = {
alpha = 80;
angle = -0.4;
imagePath = "images/MS-ADD-01116-000-00025.jpg";
locked = 1;
pos = (-3495,-2714);
scale = (5,5);
};
layerId = m01;
shapes = (
{
closed = 1;
nodes = (
(141,0,l),
(141,110,l),
(129,110,o),
(126,134,o),
(125,157,cs),
(122,234,o),
(119,330,o),
(110,399,cs),
(108,418,o),
(91,416,o),
(86,403,cs),
(75,374,o),
(47,341,o),
(28,328,cs),
(16,320,o),
(12,311,o),
(13,301,cs),
(18,250,o),
(21,174,o),
(21,110,c),
(-20,110,l),
(-20,0,l)
);
}
);
width = 128;
},
{
associatedMasterId = m01;
backgroundImage = {
alpha = 80;
angle = -0.4;
imagePath = "images/MS-ADD-01116-000-00025.jpg";
locked = 1;
pos = (-3495,-2714);
scale = (5,5);
};
layerId = "E30D4792-36E3-4DDE-93DA-2C961643E0E7";
name = "3 Apr 23 at 23:50";
shapes = (
{
alignment = -1;
ref = "behDotless-ar.medi.high";
}
);
visible = 1;
width = 128;
}
);
metricLeft = "=-20@0";
metricRight = "=3@157";
},
{
glyphname = "behDotless-ar.medi.high";
kernRight = beh;
layers = (
{
anchors = (
{
name = bottom;
pos = (51,-38);
},
{
name = damma;
pos = (15,170);
},
{
name = entry;
pos = (128,0);
},
{
name = exit;
},
{
name = fatha;
pos = (66,510);
},
{
name = kasra;
pos = (84,-57);
},
{
name = top;
pos = (67,423);
}
);
backgroundImage = {
alpha = 80;
angle = -0.4;
imagePath = "images/MS-ADD-01116-000-00025.jpg";
locked = 1;
pos = (-3498,-2714);
scale = (5,5);
};
layerId = m01;
shapes = (
{
closed = 1;
nodes = (
(141,0,l),
(141,110,l),
(129,110,o),
(126,134,o),
(125,157,cs),
(122,234,o),
(115,380,o),
(106,449,cs),
(104,468,o),
(85,466,o),
(81,453,cs),
(73,424,o),
(43,382,o),
(24,376,cs),
(11,372,o),
(8,364,o),
(9,354,cs),
(14,303,o),
(19,174,o),
(21,110,c),
(-20,110,l),
(-20,0,l)
);
}
);
width = 128;
}
);
metricLeft = "=-20@0";
metricRight = "=3@157";
},
{
glyphname = "behDotless-ar.medi.round";
kernRight = beh;
layers = (
{
anchors = (
{
name = bottom;
pos = (24,-38);
},
{
name = damma;
pos = (-8,170);
},
{
name = entry;
pos = (110,0);
},
{
name = exit;
},
{
name = fatha;
pos = (29,387);
},
{
name = kasra;
pos = (57,-57);
},
{
name = top;
pos = (47,308);
}
);
backgroundImage = {
alpha = 80;
imagePath = "images/MS-ADD-01116-000-00005.jpg";
locked = 1;
pos = (-5175,-2810);
scale = (5,5);
};
layerId = m01;
shapes = (
{
closed = 1;
nodes = (
(123,0,l),
(123,110,l),
(111,110,o),
(108,134,o),
(107,157,cs),
(104,234,o),
(102,289,o),
(98,341,cs),
(97,360,o),
(83,359,o),
(77,351,cs),
(46,305,o),
(23,271,o),
(4,265,cs),
(-9,261,o),
(-12,248,o),
(-11,238,cs),
(-6,187,o),
(-8,174,o),
(-5,58,cs),
(-4,23,o),
(15,0,o),
(51,0,cs)
);
}
);
width = 110;
},
{
associatedMasterId = m01;
backgroundImage = {
alpha = 80;
imagePath = "images/MS-ADD-01116-000-00005.jpg";
locked = 1;
pos = (-5171,-2810);
scale = (5,5);
};
layerId = "7C6F5614-CB40-4B03-BC75-799A396C73E3";
name = "3 Apr 23 at 23:52";
shapes = (
{
alignment = -1;
pos = (-18,0);
ref = "behDotless-ar.medi.high";
}
);
visible = 1;
width = 110;
}
);
metricLeft = "=-5@58";
metricRight = "=3@157";
},
{
glyphname = "behDotless-ar.init";
layers = (
{
anchors = (
{
name = bottom;
pos = (109,26);
},
{
name = damma;
pos = (12,173);
},
{
name = exit;
},
{
name = fatha;
pos = (62,416);
},
{
name = kasra;
pos = (130,-36);
},
{
name = top;
pos = (81,337);
}
);
backgroundImage = {
alpha = 80;
imagePath = "images/MS-ADD-01116-000-00005.jpg";
locked = 1;
pos = (-4107,-2810);
scale = (5,5);
};
layerId = m01;
shapes = (
{
closed = 1;
nodes = (
(56,0,ls),
(95,0,o),
(131,37,o),
(130,72,cs),
(128,172,o),
(115,263,o),
(115,363,cs),
(115,372,o),
(108,376,o),
(101,365,cs),
(81,334,o),
(53,305,o),
(24,286,cs),
(10,277,o),
(13,260,o),
(15,229,cs),
(17,196,o),
(17,166,o),
(19,110,c),
(-20,110,l),
(-20,0,l)
);
}
);
width = 130;
}
);
metricLeft = "=-20";
metricRight = "=0";
},
{
glyphname = "behDotless-ar.init.hah";
layers = (
{
anchors = (
{
name = bottom;
pos = (141,252);
},
{
name = damma;
pos = (-9,281);
},
{
name = exit;
pos = (-63,130);
},
{
name = fatha;
pos = (41,511);
},
{
name = kasra;
pos = (109,59);
},
{
name = top;
pos = (55,432);
}
);
backgroundImage = {
imagePath = "images/MS-ADD-01116-000-00010.jpg";
locked = 1;
pos = (-2723,-2714);
scale = (5,5);
};
layerId = m01;
shapes = (
{
closed = 1;
nodes = (
(99,130,l),
(94,237,o),
(89,348,o),
(89,458,cs),
(89,467,o),
(82,471,o),
(75,460,cs),
(55,429,o),
(32,388,o),
(3,369,cs),
(-11,360,o),
(-8,343,o),
(-6,312,cs),
(-4,279,o),
(-3,261,o),
(0,130,c)
);
}
);
width = 99;
}
);
metricLeft = "=0@130";
metricRight = "=0";
},
{
glyphname = "behDotless-ar.init.med";
layers = (
{
anchors = (
{
name = bottom;
pos = (109,26);
},
{
name = damma;
pos = (9,172);
},
{
name = exit;
},
{
name = fatha;
pos = (58,456);
},
{
name = kasra;
pos = (130,-36);
},
{
name = top;
pos = (77,377);
}
);
backgroundImage = {
alpha = 80;
angle = 1.4;
imagePath = "images/MS-ADD-01116-000-00006.jpg";
locked = 1;
pos = (-4570,-1748);
scale = (5,5);
};
layerId = m01;
shapes = (
{
closed = 1;
nodes = (
(56,0,ls),
(95,0,o),
(131,37,o),
(130,72,cs),
(128,172,o),
(111,303,o),
(111,403,cs),
(111,412,o),
(104,416,o),
(97,405,cs),
(77,374,o),
(49,345,o),
(20,326,cs),
(6,317,o),
(9,300,o),
(11,269,cs),
(13,236,o),
(17,166,o),
(19,110,c),
(-20,110,l),
(-20,0,l)
);
}
);
width = 130;
}
);
metricLeft = "=-20";
metricRight = "=0";
},
{
glyphname = "behDotless-ar.init.high";
layers = (
{
anchors = (
{
name = bottom;
pos = (118,26);
},
{
name = damma;
pos = (7,168);
},
{
name = exit;
},
{
name = fatha;
pos = (68,527);
},
{
name = kasra;
pos = (130,-40);
},
{
name = top;
pos = (65,430);
}
);
backgroundImage = {
alpha = 80;
imagePath = "images/MS-ADD-01116-000-00008.jpg";
locked = 1;
pos = (-4012,-2869);
scale = (5,5);
};
layerId = m01;
shapes = (
{
closed = 1;
nodes = (
(65,0,ls),
(104,0,o),
(131,37,o),
(130,72,cs),
(128,172,o),
(111,366,o),
(105,468,cs),
(104,477,o),
(98,481,o),
(91,470,cs),
(71,439,o),
(48,402,o),
(26,388,cs),
(12,379,o),
(5,365,o),
(8,334,cs),
(11,301,o),
(19,166,o),
(19,110,c),
(-20,110,l),
(-20,0,l)
);
}
);
width = 130;
}
);
metricLeft = "=-20@0";
metricRight = "=0";
},
{
color = 9;
glyphname = "hah-ar";
layers = (
{
anchors = (
{
name = bottom;
pos = (648,-50);
},
{
name = damma;
pos = (-46,54);
},
{
name = fatha;
pos = (674,177);
},
{
name = kasra;
pos = (826,-52);
},
{
name = top;
pos = (335,226);
}
);
backgroundImage = {
alpha = 80;
angle = -1.1;
imagePath = "images/MS-ADD-01116-000-00029.jpg";
locked = 1;
pos = (-2632,-2744);
scale = (5,5);
};
layerId = m01;
shapes = (
{
closed = 1;
nodes = (
(400,-123,o),
(542,-61,o),
(607,-38,cs),
(617,-34,o),
(622,-21,o),
(605,-21,cs),
(595,-21,o),
(415,-31,o),
(286,-23,cs),
(204,-18,o),
(127,6,o),
(113,88,cs),
(111,100,o),
(131,105,o),
(133,94,cs),
(152,12,o),
(249,-7,o),
(365,-7,cs),
(401,-7,o),
(711,-3,o),
(854,-3,cs),
(871,-3,o),
(900,0,o),
(912,11,cs),
(934,30,o),
(958,56,o),
(980,88,cs),
(986,97,o),
(981,104,o),
(970,104,cs),
(742,104,o),
(534,102,o),
(391,268,cs),
(383,277,o),
(372,274,o),
(368,268,cs),
(345,233,o),
(316,202,o),
(296,189,cs),
(284,181,o),
(285,175,o),
(296,164,cs),
(341,116,o),
(385,82,o),
(445,54,c),
(422,99,l),
(346,81,o),
(292,132,o),
(239,185,cs),
(202,222,o),
(178,231,o),
(131,212,cs),
(60,182,o),
(0,115,o),
(0,19,cs),
(0,-113,o),
(164,-122,o),
(209,-122,cs)
);
}
);
width = 983;
},
{
anchors = (
{
name = bottom;
pos = (648,-50);
},
{
name = damma;
pos = (-66,54);
},
{
name = fatha;
pos = (774,197);
},
{
name = kasra;
pos = (926,-72);
},
{
name = top;
pos = (435,226);
}
);
associatedMasterId = m01;
attr = {
coordinates = (
0,
20
);
};
backgroundImage = {
alpha = 80;
angle = -1.1;
imagePath = "images/MS-ADD-01116-000-00029.jpg";
locked = 1;
pos = (-2632,-2744);
scale = (5,5);
};
layerId = "C18D5E8F-13D8-4822-9DC2-3EA7EF91CC07";
name = "{0, 10} 17 May 23 at 17:17";
shapes = (
{
closed = 1;
nodes = (
(400,-123,o),
(542,-61,o),
(607,-38,cs),
(617,-34,o),
(622,-21,o),
(605,-21,cs),
(595,-21,o),
(415,-31,o),
(286,-23,cs),
(204,-18,o),
(127,6,o),
(113,88,cs),
(111,100,o),
(131,105,o),
(133,94,cs),
(152,12,o),
(249,-7,o),
(365,-7,cs),
(401,-7,o),
(811,-3,o),
(954,-3,cs),
(971,-3,o),
(1000,0,o),
(1012,11,cs),
(1034,30,o),
(1058,56,o),
(1080,88,cs),
(1086,97,o),
(1081,104,o),
(1070,104,cs),
(842,104,o),
(634,102,o),
(491,268,cs),
(483,277,o),
(472,274,o),
(468,268,cs),
(445,233,o),
(416,202,o),
(396,189,cs),
(384,181,o),
(385,175,o),
(396,164,cs),
(441,116,o),
(485,82,o),
(545,54,c),
(522,99,l),
(306,99,o),
(292,132,o),
(239,185,cs),
(202,222,o),
(178,231,o),
(131,212,cs),
(60,182,o),
(0,115,o),
(0,19,cs),
(0,-113,o),
(164,-122,o),
(209,-122,cs)
);
}
);
visible = 1;
width = 1083;
},
{
anchors = (
{
name = bottom;
pos = (648,-50);
},
{
name = damma;
pos = (-66,54);
},
{
name = fatha;
pos = (774,197);
},
{
name = kasra;
pos = (926,-72);
},
{
name = top;
pos = (435,226);
}
);
associatedMasterId = m01;
attr = {
coordinates = (
0,
100
);
};
backgroundImage = {
alpha = 80;
angle = -1.1;
imagePath = "images/MS-ADD-01116-000-00029.jpg";
locked = 1;
pos = (-2632,-2744);
scale = (5,5);
};
layerId = "EAD9AB4A-0B66-4003-AC8F-B355134EA796";
name = "17 May 23 at 17:10";
shapes = (
{
closed = 1;
nodes = (
(400,-123,o),
(542,-61,o),
(607,-38,cs),
(617,-34,o),
(622,-21,o),
(605,-21,cs),
(595,-21,o),
(415,-31,o),
(286,-23,cs),
(204,-18,o),
(127,6,o),
(113,88,cs),
(111,100,o),
(131,105,o),
(133,94,cs),
(152,12,o),
(249,-7,o),
(365,-7,cs),
(401,-7,o),
(811,-3,o),
(954,-3,cs),
(971,-3,o),
(1000,0,o),
(1012,11,cs),
(1034,30,o),
(1058,56,o),
(1080,88,cs),
(1086,97,o),
(1081,104,o),
(1070,104,cs),
(842,104,o),
(634,102,o),
(491,268,cs),
(483,277,o),
(472,274,o),
(468,268,cs),
(445,233,o),
(416,202,o),
(396,189,cs),
(384,181,o),
(385,175,o),
(396,164,cs),
(441,116,o),
(485,82,o),
(545,54,c),
(522,99,l),
(306,99,o),
(292,132,o),
(239,185,cs),
(202,222,o),
(178,231,o),
(131,212,cs),
(60,182,o),
(0,115,o),
(0,19,cs),
(0,-113,o),
(164,-122,o),
(209,-122,cs)
);
}
);
visible = 1;
width = 1083;
}
);
metricLeft = "=0";
metricRight = "=0";
unicode = 1581;
},
{
color = 9;
glyphname = "hah-ar.fina";
layers = (
{
anchors = (
{
name = bottom;
pos = (608,-50);
},
{
name = damma;
pos = (-46,54);
},
{
name = entry;
pos = (417,115);
},
{
name = fatha;
pos = (353,353);
},
{
name = kasra;
pos = (776,-60);
},
{
name = top;
pos = (332,251);
}
);
layerId = m01;
shapes = (
{
closed = 1;
nodes = (
(400,-123,o),
(542,-61,o),
(607,-38,cs),
(617,-34,o),
(622,-21,o),
(605,-21,cs),
(595,-21,o),
(415,-31,o),
(286,-23,cs),
(204,-18,o),
(127,6,o),
(113,88,cs),
(111,100,o),
(131,105,o),
(133,94,cs),
(152,12,o),
(249,-7,o),
(365,-7,cs),
(508,-8,o),
(701,-4,o),
(754,-4,cs),
(775,-4,o),
(787,7,o),
(806,21,cs),
(833,41,o),
(846,54,o),
(875,76,cs),
(887,85,o),
(881,99,o),
(866,98,cs),
(745,89,o),
(660,89,o),
(587,96,cs),
(518,103,o),
(452,217,o),
(382,292,cs),
(371,304,o),
(354,302,o),
(350,289,cs),
(336,245,o),
(308,230,o),
(288,217,cs),
(276,209,o),
(281,197,o),
(290,185,cs),
(334,127,o),
(393,65,o),
(445,31,c),
(422,99,l),
(346,81,o),
(292,132,o),
(239,185,cs),
(202,222,o),
(178,231,o),
(131,212,cs),
(60,182,o),
(0,115,o),
(0,19,cs),
(0,-113,o),
(164,-122,o),
(209,-122,cs)
);
}
);
width = 881;
},
{
anchors = (
{
name = bottom;
pos = (608,-50);
},
{
name = damma;
pos = (-46,54);
},
{
name = entry;
pos = (417,115);
},
{
name = fatha;
pos = (453,353);
},
{
name = kasra;
pos = (776,-60);
},
{
name = top;
pos = (432,251);
}
);
associatedMasterId = m01;
attr = {
coordinates = (
0,
20
);
};
layerId = "9CD22476-6F4A-4896-A8A4-64D8BEBC78EE";
name = "{0, 10} 17 May 23 at 17:57";
shapes = (
{
closed = 1;
nodes = (
(400,-123,o),
(542,-61,o),
(607,-38,cs),
(617,-34,o),
(622,-21,o),
(605,-21,cs),
(595,-21,o),
(415,-31,o),
(286,-23,cs),
(204,-18,o),
(127,6,o),
(113,88,cs),
(111,100,o),
(131,105,o),
(133,94,cs),
(152,12,o),
(249,-7,o),
(365,-7,cs),
(508,-8,o),
(801,-4,o),
(854,-4,cs),
(875,-4,o),
(887,7,o),
(906,21,cs),
(933,41,o),
(946,54,o),
(975,76,cs),
(987,85,o),
(981,99,o),
(966,98,cs),
(845,89,o),
(760,89,o),
(687,96,cs),
(618,103,o),
(552,217,o),
(482,292,cs),
(471,304,o),
(454,302,o),
(450,289,cs),
(436,245,o),
(408,230,o),
(388,217,cs),
(376,209,o),
(381,197,o),
(390,185,cs),
(434,127,o),
(493,65,o),
(545,31,c),
(522,99,l),
(306,99,o),
(292,132,o),
(239,185,cs),
(202,222,o),
(178,231,o),
(131,212,cs),
(60,182,o),
(0,115,o),
(0,19,cs),
(0,-113,o),
(164,-122,o),
(209,-122,cs)
);
}
);
width = 981;
},
{
anchors = (
{
name = bottom;
pos = (608,-50);
},
{
name = damma;
pos = (-46,54);
},
{
name = entry;
pos = (417,115);
},
{
name = fatha;
pos = (453,353);
},
{
name = kasra;
pos = (776,-60);
},
{
name = top;
pos = (432,251);
}
);
associatedMasterId = m01;
attr = {
coordinates = (
0,
100
);
};
layerId = "CA451A97-2056-4DD4-A001-0B8DFF813C4B";
name = "17 May 23 at 17:56";
shapes = (
{
closed = 1;
nodes = (
(400,-123,o),
(542,-61,o),
(607,-38,cs),
(617,-34,o),
(622,-21,o),
(605,-21,cs),
(595,-21,o),
(415,-31,o),
(286,-23,cs),
(204,-18,o),
(127,6,o),
(113,88,cs),
(111,100,o),
(131,105,o),
(133,94,cs),
(152,12,o),
(249,-7,o),
(365,-7,cs),
(508,-8,o),
(801,-4,o),
(854,-4,cs),
(875,-4,o),
(887,7,o),
(906,21,cs),
(933,41,o),
(946,54,o),
(975,76,cs),
(987,85,o),
(981,99,o),
(966,98,cs),
(845,89,o),
(760,89,o),
(687,96,cs),
(618,103,o),
(552,217,o),
(482,292,cs),
(471,304,o),
(454,302,o),
(450,289,cs),
(436,245,o),
(408,230,o),
(388,217,cs),
(376,209,o),
(381,197,o),
(390,185,cs),
(434,127,o),
(493,65,o),
(545,31,c),
(522,99,l),
(306,99,o),
(292,132,o),
(239,185,cs),
(202,222,o),
(178,231,o),
(131,212,cs),
(60,182,o),
(0,115,o),
(0,19,cs),
(0,-113,o),
(164,-122,o),
(209,-122,cs)
);
}
);
width = 981;
}
);
metricLeft = "=0";
metricRight = "=0";
},
{
glyphname = "hah-ar.medi";
kernLeft = hah;
layers = (
{
anchors = (
{
name = bottom;
pos = (250,-40);
},
{
name = damma;
pos = (0,174);
},
{
name = entry;
pos = (133,122);
},
{
name = exit;
},
{
name = fatha;
pos = (69,360);
},
{
name = kasra;
pos = (478,-52);
},
{
name = top;
pos = (46,258);
}
);
backgroundImage = {
alpha = 80;
angle = 1;
crop = (0,0,1500,1216);
imagePath = "images/MS-ADD-01116-000-00044.jpg";
locked = 1;
pos = (-5011,-1716);
scale = (5,5);
};
layerId = m01;
shapes = (
{
closed = 1;
nodes = (
(123,-1,o),
(417,3,o),
(470,3,cs),
(491,3,o),
(503,14,o),
(522,28,cs),
(549,48,o),
(562,61,o),
(591,83,cs),
(603,92,o),
(597,106,o),
(582,105,cs),
(461,96,o),
(376,96,o),
(303,103,cs),
(234,110,o),
(168,224,o),
(98,299,cs),
(87,311,o),
(70,309,o),
(66,296,cs),
(52,252,o),
(24,237,o),
(4,224,cs),
(-8,216,o),
(-3,204,o),
(6,192,cs),
(50,134,o),
(109,72,o),
(161,38,c),
(173,110,l),
(-20,110,l),
(-20,0,l)
);
}
);
width = 597;
}
);
metricRight = "=0";
},
{
glyphname = "hah-ar.medi.hah";
kernLeft = hah;
layers = (
{
anchors = (
{
name = bottom;
pos = (438,-68);
},
{
name = damma;
pos = (-24,174);
},
{
name = entry;
pos = (109,122);
},
{
name = exit;
},
{
name = fatha;
pos = (45,360);
},
{
name = kasra;
pos = (489,-52);
},
{
name = top;
pos = (22,258);
}
);
layerId = m01;
shapes = (
{
closed = 1;
nodes = (
(-10,0,l),
(99,-1,o),
(385,3,o),
(466,3,cs),
(487,3,o),
(498,13,o),
(515,30,cs),
(533,48,o),
(542,61,o),
(571,83,cs),
(583,92,o),
(577,106,o),
(562,105,cs),
(422,96,o),
(352,96,o),
(279,103,cs),
(210,110,o),
(144,224,o),
(74,299,cs),
(63,311,o),
(46,309,o),
(42,296,cs),
(28,252,o),
(0,237,o),
(-20,224,cs),
(-32,216,o),
(-27,204,o),
(-18,192,cs),
(26,134,o),
(85,72,o),
(137,38,c),
(137,110,l),
(92,102,o),
(34,93,o),
(-10,149,c)
);
}
);
width = 577;
}
);
metricRight = "=0";
},
{
glyphname = "hah-ar.init";
kernLeft = hah;
layers = (
{
anchors = (
{
name = bottom;
pos = (250,-40);
},
{
name = damma;
pos = (0,174);
},
{
name = exit;
},
{
name = fatha;
pos = (406,177);
},
{
name = kasra;
pos = (478,-52);
},
{
name = top;
pos = (57,236);
}
);
backgroundImage = {
alpha = 80;
angle = -1.3;
imagePath = "images/MS-ADD-01116-000-00003.jpg";
locked = 1;
pos = (-2568,-3771);
scale = (5,5);
};
layerId = m01;
shapes = (
{
closed = 1;
nodes = (
(123,-1,o),
(433,6,o),
(576,6,cs),
(593,6,o),
(622,9,o),
(634,20,cs),
(656,39,o),
(678,60,o),
(700,92,cs),
(706,101,o),
(703,108,o),
(692,108,cs),
(464,108,o),
(256,111,o),
(113,277,cs),
(105,286,o),
(94,283,o),
(90,277,cs),
(67,242,o),
(38,211,o),
(18,198,cs),
(6,190,o),
(7,184,o),
(18,173,cs),
(63,125,o),
(107,91,o),
(167,63,c),
(173,110,l),
(-20,110,l),
(-20,0,l)
);
}
);
width = 703;
}
);
metricLeft = "=-20";
metricRight = "=0";
},
{
glyphname = "hah-ar.init.hah";
kernLeft = hah;
layers = (
{
anchors = (
{
name = bottom;
pos = (437,-67);
},
{
name = damma;
pos = (28,121);
},
{
name = exit;
},
{
name = fatha;
pos = (407,177);
},
{
name = kasra;
pos = (506,-52);
},
{
name = top;
pos = (21,249);
}
);
backgroundImage = {
alpha = 80;
imagePath = "images/MS-ADD-01116-000-00012.jpg";
locked = 1;
pos = (-2138,-1861);
scale = (5,5);
};
layerId = m01;
shapes = (
{
closed = 1;
nodes = (
(137,-1,o),
(385,3,o),
(456,3,cs),
(473,3,o),
(499,3,o),
(509,16,cs),
(526,38,o),
(549,59,o),
(575,83,cs),
(583,91,o),
(578,104,o),
(567,103,cs),
(409,94,o),
(206,143,o),
(77,296,cs),
(69,305,o),
(57,302,o),
(54,296,cs),
(37,261,o),
(3,227,o),
(-17,214,cs),
(-29,206,o),
(-27,201,o),
(-17,189,cs),
(12,153,o),
(80,81,o),
(126,63,c),
(137,110,l),
(93,103,o),
(37,94,o),
(-7,145,c),
(-7,0,l)
);
}
);
width = 579;
}
);
metricRight = "=0";
},
{
color = 9;
glyphname = "dal-ar";
layers = (
{
anchors = (
{
name = damma;
pos = (-34,61);
},
{
name = fatha;
pos = (281,355);
},
{
name = kasra;
pos = (478,-65);
},
{
name = top;
pos = (505,278);
}
);
backgroundImage = {
alpha = 80;
angle = -0.2;
imagePath = "images/MS-ADD-01116-000-00035.jpg";
locked = 1;
pos = (-4516,-2883);
scale = (5,5);
};
layerId = m01;
shapes = (
{
closed = 1;
nodes = (
(395,-17,o),
(606,-20,o),
(830,-3,cs),
(854,-1,o),
(883,20,o),
(882,47,cs),
(880,112,o),
(856,163,o),
(840,199,cs),
(828,227,o),
(824,237,o),
(800,236,cs),
(622,231,o),
(367,222,o),
(228,237,c),
(235,256,o),
(261,312,o),
(269,331,cs),
(274,343,o),
(261,348,o),
(255,338,cs),
(217,275,o),
(172,215,o),
(127,155,cs),
(113,136,o),
(127,126,o),
(161,122,cs),
(279,104,o),
(601,109,o),
(722,120,cs),
(732,121,o),
(735,118,o),
(736,115,cs),
(739,107,o),
(737,102,o),
(708,100,cs),
(494,85,o),
(267,93,o),
(199,97,cs),
(164,99,o),
(130,103,o),
(116,111,cs),
(101,120,o),
(89,120,o),
(81,108,cs),
(66,84,o),
(46,58,o),
(34,46,cs),
(28,40,o),
(21,35,o),
(13,35,cs),
(-3,35,o),
(-5,22,o),
(10,11,cs),
(31,-6,o),
(90,-13,o),
(171,-14,cs)
);
}
);
width = 882;
},
{
anchors = (
{
name = damma;
pos = (-34,61);
},
{
name = fatha;
pos = (281,355);
},
{
name = kasra;
pos = (3196,-65);
},
{
name = top;
pos = (3223,278);
}
);
associatedMasterId = m01;
attr = {
coordinates = (
0,
100
);
};
layerId = "9D20955F-C25B-4264-B142-35B8B72C809D";
name = "15 May 23 at 00:58";
shapes = (
{
closed = 1;
nodes = (
(395,-17,o),
(5724,-20,o),
(5948,-3,cs),
(5972,-1,o),
(6001,20,o),
(6000,47,cs),
(5998,112,o),
(5974,163,o),
(5958,199,cs),
(5946,227,o),
(5942,237,o),
(5918,236,cs),
(5740,231,o),
(367,222,o),
(228,237,c),
(235,256,o),
(261,312,o),
(269,331,cs),
(274,343,o),
(261,348,o),
(255,338,cs),
(217,275,o),
(172,215,o),
(127,155,cs),
(113,136,o),
(127,126,o),
(161,122,cs),
(279,104,o),
(5719,109,o),
(5840,120,cs),
(5850,121,o),
(5853,118,o),
(5854,115,cs),
(5857,107,o),
(5855,102,o),
(5826,100,cs),
(5612,85,o),
(267,93,o),
(199,97,cs),
(164,99,o),
(130,103,o),
(116,111,cs),
(101,120,o),
(89,120,o),
(81,108,cs),
(66,84,o),
(46,58,o),
(34,46,cs),
(28,40,o),
(21,35,o),
(13,35,cs),
(-3,35,o),
(-5,22,o),
(10,11,cs),
(31,-6,o),
(90,-13,o),
(171,-14,cs)
);
}
);
width = 6000;
},
{
anchors = (
{
name = damma;
pos = (-44,101);
},
{
name = fatha;
pos = (343,310);
},
{
name = kasra;
pos = (292,-92);
},
{
name = top;
pos = (161,267);
}
);
associatedMasterId = m01;
attr = {
coordinates = (
0,
0
);
};
layerId = "1CF62968-A63C-40D2-BEE2-002831AB3E2E";
name = "{0, -100} 17 May 23 at 03:58";
shapes = (
{
closed = 1;
nodes = (
(236,-15,o),
(304,-16,o),
(370,-10,cs),
(394,-8,o),
(423,13,o),
(422,40,cs),
(420,105,o),
(396,156,o),
(380,192,cs),
(368,220,o),
(364,229,o),
(340,229,cs),
(304,229,o),
(258,228,o),
(226,232,c),
(239,265,o),
(262,313,o),
(269,331,cs),
(274,343,o),
(261,348,o),
(255,338,cs),
(217,275,o),
(169,211,o),
(124,151,cs),
(110,132,o),
(124,123,o),
(158,118,cs),
(194,113,o),
(244,113,o),
(262,113,cs),
(273,113,o),
(275,111,o),
(276,108,cs),
(279,100,o),
(276,96,o),
(248,96,cs),
(231,96,o),
(213,96,o),
(199,96,cs),
(164,96,o),
(130,103,o),
(116,111,cs),
(101,120,o),
(89,120,o),
(81,108,cs),
(66,84,o),
(46,58,o),
(34,46,cs),
(28,40,o),
(21,35,o),
(13,35,cs),
(-3,35,o),
(-5,22,o),
(10,11,cs),
(31,-6,o),
(90,-13,o),
(171,-14,cs)
);
}
);
width = 422;
}
);
metricLeft = "=0";
metricRight = "=kaf-ar";
unicode = 1583;
},
{
glyphname = "reh-ar";
layers = (
{
anchors = (
{
name = damma;
pos = (-29,40);
},
{
name = fatha;
pos = (294,347);
},
{
name = kasra;
pos = (333,-95);
},
{
name = top;
pos = (206,211);
}
);
backgroundImage = {
alpha = 80;
imagePath = "images/MS-ADD-01116-000-00058.jpg";
locked = 1;
pos = (-2372,-2694);
scale = (5,5);
};
layerId = m01;
shapes = (
{
closed = 1;
nodes = (
(290,-56,o),
(351,-52,o),
(395,-39,cs),
(447,-25,o),
(451,10,o),
(450,46,cs),
(447,146,o),
(368,249,o),
(303,293,cs),
(286,305,o),
(283,297,o),
(275,289,cs),
(248,262,o),
(171,166,o),
(133,129,cs),
(125,122,o),
(122,109,o),
(137,101,cs),
(182,77,o),
(270,72,o),
(319,74,cs),
(327,74,o),
(330,61,o),
(320,60,cs),
(274,54,o),
(171,61,o),
(107,89,cs),
(97,93,o),
(94,94,o),
(89,88,cs),
(69,63,o),
(43,19,o),
(12,8,cs),
(-2,3,o),
(-6,-10,o),
(11,-18,cs),
(53,-37,o),
(143,-51,o),
(228,-54,cs)
);
}
);
width = 450;
}
);
metricLeft = "=0";
metricRight = "=0";
unicode = 1585;
},
{
glyphname = "reh-ar.fina";
layers = (
{
anchors = (
{
name = damma;
pos = (-9,47);
},
{
name = entry;
pos = (393,0);
},
{
name = fatha;
pos = (294,274);
},
{
name = kasra;
pos = (361,-164);
},
{
name = top;
pos = (209,135);
}
);
backgroundImage = {
alpha = 80;
angle = 0.3;
imagePath = "images/MS-ADD-01116-000-00058.jpg";
locked = 1;
pos = (-4386,-3615);
scale = (5,5);
};
layerId = m01;
shapes = (
{
closed = 1;
nodes = (
(290,-120,o),
(349,-121,o),
(393,-108,cs),
(445,-94,o),
(454,-53,o),
(453,-17,cs),
(450,71,o),
(380,169,o),
(315,213,cs),
(308,218,o),
(304,220,o),
(300,220,cs),
(295,220,o),
(292,216,o),
(287,211,cs),
(260,184,o),
(185,100,o),
(147,63,cs),
(139,56,o),
(134,43,o),
(149,35,cs),
(194,11,o),
(273,-1,o),
(322,1,cs),
(330,1,o),
(333,-12,o),
(323,-13,cs),
(277,-19,o),
(163,0,o),
(107,29,cs),
(98,34,o),
(94,34,o),
(89,28,cs),
(69,3,o),
(43,-31,o),
(12,-42,cs),
(-2,-47,o),
(-5,-58,o),
(11,-68,cs),
(53,-96,o),
(139,-122,o),
(228,-121,cs)
);
}
);
width = 393;
}
);
metricLeft = "=reh-ar";
metricRight = "=-60";
},
{
glyphname = "seen-ar";
layers = (
{
anchors = (
{
name = fatha;
pos = (319,314);
},
{
name = kasra;
pos = (343,-239);
},
{
name = top;
pos = (296,208);
}
);
backgroundImage = {
alpha = 80;
imagePath = "images/MS-ADD-01116-000-00049.jpg";
locked = 1;
pos = (-5783,-2854);
scale = (5,5);
};
layerId = m01;
shapes = (
{
closed = 1;
nodes = (
(440,5,ls),
(480,6,o),
(506,42,o),
(506,82,cs),
(506,160,o),
(497,239,o),
(482,315,cs),
(479,331,o),
(461,331,o),
(454,316,cs),
(434,276,o),
(421,257,o),
(392,239,cs),
(383,233,o),
(385,226,o),
(386,220,cs),
(389,196,o),
(397,157,o),
(405,131,c),
(381,149,o),
(363,197,o),
(346,261,cs),
(343,271,o),
(336,273,o),
(329,262,cs),
(311,235,o),
(305,205,o),
(261,181,cs),
(254,177,o),
(252,173,o),
(255,167,cs),
(261,151,o),
(266,126,o),
(272,110,c),
(258,116,o),
(257,122,o),
(243,136,c),
(268,0,l)
);
},
{
pos = (0,-81);
ref = "noonghunna-ar";
}
);
width = 506;
}
);
metricLeft = "=noonghunna-ar";
metricRight = "=0";
unicode = 1587;
},
{
glyphname = "seen-ar.fina";
kernRight = beh;
layers = (
{
anchors = (
{
name = entry;
pos = (510,0);
},
{
name = fatha;
pos = (319,312);
},
{
name = kasra;
pos = (343,-241);
},
{
name = top;
pos = (297,208);
}
);
layerId = m01;
shapes = (
{
closed = 1;
nodes = (
(523,0,l),
(523,110,l),
(511,110,o),
(508,134,o),
(507,157,cs),
(506,185,o),
(503,247,o),
(498,330,cs),
(497,346,o),
(477,348,o),
(470,333,cs),
(450,293,o),
(427,256,o),
(398,238,cs),
(389,232,o),
(391,225,o),
(392,219,cs),
(396,187,o),
(396,106,o),
(406,87,c),
(421,122,l),
(389,128,o),
(367,182,o),
(346,259,cs),
(343,269,o),
(336,271,o),
(329,260,cs),
(311,233,o),
(305,203,o),
(261,179,cs),
(254,175,o),
(252,171,o),
(255,165,cs),
(261,149,o),
(266,124,o),
(272,108,c),
(258,114,o),
(257,120,o),
(243,134,c),
(243,0,l)
);
},
{
alignment = -1;
pos = (0,-83);
ref = "noonghunna-ar";
}
);
width = 510;
},
{
associatedMasterId = m01;
layerId = "0274AD99-FFA9-4811-AD80-170E3C36CBC7";
name = "4 Apr 23 at 00:00";
shapes = (
{
alignment = -1;
pos = (382,0);
ref = "behDotless-ar.medi";
}
);
visible = 1;
width = 510;
}
);
metricLeft = "=noonghunna-ar";
metricRight = "=3@157";
},
{
glyphname = "seen-ar.medi";
kernLeft = seen;
kernRight = beh;
layers = (
{
anchors = (
{
name = damma;
pos = (5,171);
},
{
name = entry;
pos = (401,0);
},
{
name = exit;
},
{
name = fatha;
pos = (187,339);
},
{
name = kasra;
pos = (207,-50);
},
{
name = top;
pos = (183,241);
}
);
backgroundImage = {
alpha = 80;
angle = -1;
imagePath = "images/MS-ADD-01116-000-00021.jpg";
pos = (-3912,-2650);
scale = (5,5);
};
layerId = m01;
shapes = (
{
closed = 1;
nodes = (
(414,0,l),
(414,110,l),
(402,110,o),
(399,134,o),
(398,157,cs),
(395,219,o),
(394,306,o),
(385,363,cs),
(382,385,o),
(370,384,o),
(361,366,cs),
(350,345,o),
(323,296,o),
(291,280,cs),
(280,275,o),
(278,270,o),
(279,257,cs),
(281,211,o),
(281,123,o),
(303,84,c),
(318,133,l),
(287,168,o),
(250,236,o),
(230,297,cs),
(227,307,o),
(216,305,o),
(213,296,cs),
(193,241,o),
(175,223,o),
(149,210,cs),
(142,206,o),
(138,205,o),
(140,196,cs),
(143,180,o),
(175,107,o),
(197,90,c),
(183,135,l),
(152,161,o),
(131,159,o),
(107,256,cs),
(103,271,o),
(95,270,o),
(88,258,cs),
(66,222,o),
(53,204,o),
(27,192,cs),
(16,187,o),
(12,182,o),
(16,169,cs),
(23,147,o),
(36,98,o),
(49,76,c),
(51,110,l),
(-20,110,l),
(-20,0,l)
);
}
);
width = 401;
},
{
associatedMasterId = m01;
layerId = "F9003F5C-B1BB-4303-B945-078267499B87";
name = "3 Apr 23 at 23:57";
shapes = (
{
alignment = -1;
pos = (273,0);
ref = "behDotless-ar.medi";
}
);
visible = 1;
width = 401;
}
);
metricLeft = "=-20";
metricRight = "=3@157";
},
{
glyphname = "seen-ar.medi.low";
kernLeft = seen;
kernRight = beh;
layers = (
{
anchors = (
{
name = damma;
pos = (7,172);
},
{
name = entry;
pos = (411,0);
},
{
name = exit;
},
{
name = fatha;
pos = (222,324);
},
{
name = kasra;
pos = (217,-50);
},
{
name = top;
pos = (204,192);
}
);
backgroundImage = {
alpha = 80;
angle = -0.4;
imagePath = "images/MS-ADD-01116-000-00021.jpg";
locked = 1;
pos = (-3094,-3699);
scale = (5,5);
};
layerId = m01;
shapes = (
{
closed = 1;
nodes = (
(424,0,l),
(424,110,l),
(409,110,o),
(409,139,o),
(403,271,cs),
(402,290,o),
(390,289,o),
(380,271,cs),
(363,241,o),
(352,207,o),
(314,195,cs),
(303,191,o),
(301,185,o),
(302,172,cs),
(304,126,o),
(306,120,o),
(333,83,c),
(332,111,l),
(301,146,o),
(271,197,o),
(251,258,cs),
(248,268,o),
(240,266,o),
(237,257,cs),
(217,202,o),
(195,180,o),
(169,167,cs),
(162,163,o),
(159,158,o),
(163,149,cs),
(187,94,o),
(198,76,o),
(215,51,c),
(189,128,l),
(158,140,o),
(140,160,o),
(114,244,cs),
(109,259,o),
(102,258,o),
(95,246,cs),
(73,210,o),
(59,186,o),
(33,174,cs),
(22,169,o),
(18,164,o),
(22,151,cs),
(29,129,o),
(43,86,o),
(56,64,c),
(61,110,l),
(-20,110,l),
(-20,0,l)
);
}
);
width = 411;
},
{
associatedMasterId = m01;
layerId = "66C97F2E-314D-452C-A0C5-7509FEB91E00";
name = "7 May 23 at 16:24";
shapes = (
{
alignment = -1;
pos = (283,0);
ref = "behDotless-ar.medi";
}
);
width = 411;
}
);
metricLeft = "=-20";
metricRight = "=2@157";
},
{
glyphname = "seen-ar.init";
kernLeft = seen;
layers = (
{
anchors = (
{
name = damma;
pos = (12,171);
},
{
name = exit;
},
{
name = fatha;
pos = (199,343);
},
{
name = kasra;
pos = (237,-50);
},
{
name = top;
pos = (187,236);
}
);
backgroundImage = {
alpha = 80;
angle = -0.2;
imagePath = "images/MS-ADD-01116-000-00058.jpg";
locked = 1;
pos = (-2923,-1772);
scale = (5,5);
};
layerId = m01;
shapes = (
{
closed = 1;
nodes = (
(349,-3,o),
(376,33,o),
(378,72,cs),
(381,144,o),
(357,294,o),
(347,346,cs),
(343,365,o),
(330,361,o),
(326,345,cs),
(318,313,o),
(292,284,o),
(271,269,cs),
(262,262,o),
(256,260,o),
(259,247,cs),
(262,230,o),
(271,173,o),
(275,141,c),
(252,166,o),
(247,239,o),
(230,289,cs),
(227,299,o),
(217,297,o),
(213,288,cs),
(197,248,o),
(178,231,o),
(152,218,cs),
(145,214,o),
(138,209,o),
(138,200,cs),
(139,181,o),
(146,159,o),
(154,140,c),
(131,152,o),
(124,187,o),
(110,257,cs),
(107,272,o),
(93,271,o),
(86,259,cs),
(64,223,o),
(53,204,o),
(27,192,cs),
(16,187,o),
(12,182,o),
(16,169,cs),
(20,157,o),
(30,121,o),
(35,110,c),
(-20,110,l),
(-20,0,l),
(241,-2,ls)
);
}
);
width = 378;
}
);
metricLeft = "=-20";
metricRight = "=0";
},
{
color = 9;
glyphname = "sad-ar";
layers = (
{
anchors = (
{
name = damma;
pos = (18,60);
},
{
name = fatha;
pos = (576,295);
},
{
name = kasra;
pos = (496,-54);
},
{
name = top;
pos = (477,285);
}
);
backgroundImage = {
alpha = 80;
imagePath = "images/MS-ADD-01116-000-00062.jpg";
locked = 1;
pos = (-1621,-1863);
scale = (5,5);
};
layerId = m01;
shapes = (
{
closed = 1;
nodes = (
(202,-329,o),
(227,-325,o),
(237,-297,cs),
(243,-279,o),
(250,-247,o),
(249,-199,cs),
(248,-149,o),
(254,-7,o),
(246,102,cs),
(238,214,o),
(198,301,o),
(115,324,cs),
(102,327,o),
(96,329,o),
(95,318,cs),
(89,264,o),
(58,227,o),
(19,220,cs),
(-6,216,o),
(-5,203,o),
(11,195,cs),
(82,159,o),
(146,131,o),
(154,28,cs),
(159,-38,o),
(158,-145,o),
(151,-248,c),
(213,-195,l),
(125,-215,o),
(62,-207,o),
(42,-191,cs),
(38,-188,o),
(31,-186,o),
(28,-192,cs),
(5,-234,o),
(-28,-264,o),
(-52,-274,cs),
(-67,-280,o),
(-63,-292,o),
(-52,-300,cs),
(-9,-333,o),
(107,-341,o),
(182,-332,cs)
);
},
{
closed = 1;
nodes = (
(540,98,o),
(361,108,o),
(268,111,cs),
(250,112,o),
(246,120,o),
(244,128,c),
(414,123,o),
(568,116,o),
(723,130,cs),
(733,131,o),
(736,128,o),
(737,125,cs),
(740,117,o),
(738,112,o),
(709,110,cs)
);
},
{
closed = 1;
nodes = (
(371,-4,o),
(607,-10,o),
(831,7,cs),
(855,9,o),
(884,30,o),
(883,57,cs),
(881,122,o),
(857,173,o),
(841,209,cs),
(829,237,o),
(825,247,o),
(801,246,cs),
(623,241,o),
(404,228,o),
(177,258,c),
(193,0,l)
);
}
);
width = 883;
},
{
anchors = (
{
name = damma;
pos = (18,60);
},
{
name = fatha;
pos = (3106,295);
},
{
name = kasra;
pos = (3026,-54);
},
{
name = top;
pos = (3007,285);
}
);
associatedMasterId = m01;
attr = {
coordinates = (
0,
100
);
};
backgroundImage = {
alpha = 80;
imagePath = "images/MS-ADD-01116-000-00062.jpg";
locked = 1;
pos = (-1621,-1863);
scale = (5,5);
};
layerId = "D9048569-A18A-4C58-AB25-71BFF6897491";
name = "16 May 23 at 18:03";
shapes = (
{
closed = 1;
nodes = (
(202,-329,o),
(227,-325,o),
(237,-297,cs),
(243,-279,o),
(250,-247,o),
(249,-199,cs),
(248,-149,o),
(254,-7,o),
(246,102,cs),
(238,214,o),
(198,301,o),
(115,324,cs),
(102,327,o),
(96,329,o),
(95,318,cs),
(89,264,o),
(58,227,o),
(19,220,cs),
(-6,216,o),
(-5,203,o),
(11,195,cs),
(82,159,o),
(146,131,o),
(154,28,cs),
(159,-38,o),
(158,-145,o),
(151,-248,c),
(213,-195,l),
(125,-215,o),
(62,-207,o),
(42,-191,cs),
(38,-188,o),
(31,-186,o),
(28,-192,cs),
(5,-234,o),
(-28,-264,o),
(-52,-274,cs),
(-67,-280,o),
(-63,-292,o),
(-52,-300,cs),
(-9,-333,o),
(107,-341,o),
(182,-332,cs)
);
},
{
closed = 1;
nodes = (
(5657,98,o),
(361,108,o),
(268,111,cs),
(250,112,o),
(246,120,o),
(244,128,c),
(414,123,o),
(5685,116,o),
(5840,130,cs),
(5850,131,o),
(5853,128,o),
(5854,125,cs),
(5857,117,o),
(5855,112,o),
(5826,110,cs)
);
},
{
closed = 1;
nodes = (
(371,-4,o),
(5724,-21,o),
(5948,7,cs),
(5972,10,o),
(6001,30,o),
(6000,57,cs),
(5998,122,o),
(5974,173,o),
(5958,209,cs),
(5946,237,o),
(5942,247,o),
(5918,246,cs),
(5740,241,o),
(404,228,o),
(177,258,c),
(193,0,l)
);
}
);
visible = 1;
width = 6000;
},
{
anchors = (
{
name = damma;
pos = (18,60);
},
{
name = fatha;
pos = (391,315);
},
{
name = kasra;
pos = (387,-74);
},
{
name = top;
pos = (342,285);
}
);
associatedMasterId = m01;
attr = {
coordinates = (
0,
0
);
};
backgroundImage = {
alpha = 80;
imagePath = "images/MS-ADD-01116-000-00062.jpg";
locked = 1;
pos = (-1621,-1863);
scale = (5,5);
};
layerId = "4E62DE92-64B8-45E9-A54F-1C2C9CF328B8";
name = "17 May 23 at 13:04";
shapes = (
{
closed = 1;
nodes = (
(202,-329,o),
(227,-325,o),
(237,-297,cs),
(243,-279,o),
(250,-247,o),
(249,-199,cs),
(248,-149,o),
(254,-7,o),
(246,102,cs),
(238,214,o),
(198,301,o),
(115,324,cs),
(102,327,o),
(96,329,o),
(95,318,cs),
(89,264,o),
(58,227,o),
(19,220,cs),
(-6,216,o),
(-5,203,o),
(11,195,cs),
(82,159,o),
(146,131,o),
(154,28,cs),
(159,-38,o),
(158,-145,o),
(151,-248,c),
(213,-195,l),
(125,-215,o),
(62,-207,o),
(42,-191,cs),
(38,-188,o),
(31,-186,o),
(28,-192,cs),
(5,-234,o),
(-28,-264,o),
(-52,-274,cs),
(-67,-280,o),
(-63,-292,o),
(-52,-300,cs),
(-9,-333,o),
(107,-341,o),
(182,-332,cs)
);
},
{
closed = 1;
nodes = (
(332,107,o),
(296,107,o),
(283,110,cs),
(265,111,o),
(261,120,o),
(259,128,c),
(306,127,o),
(330,127,o),
(368,129,cs),
(378,130,o),
(381,128,o),
(382,125,cs),
(385,117,o),
(383,112,o),
(354,109,cs)
);
},
{
closed = 1;
nodes = (
(326,-4,o),
(409,-4,o),
(476,1,cs),
(500,3,o),
(529,30,o),
(528,57,cs),
(526,122,o),
(502,173,o),
(486,209,cs),
(474,237,o),
(470,247,o),
(446,246,cs),
(358,241,o),
(257,238,o),
(192,258,c),
(208,0,l)
);
}
);
width = 528;
}
);
metricLeft = "=0@208";
metricRight = "=0";
unicode = 1589;
},
{
color = 9;
glyphname = "sad-ar.init";
kernLeft = sad;
layers = (
{
anchors = (
{
name = damma;
pos = (-4,171);
},
{
name = exit;
},
{
name = fatha;
pos = (458,295);
},
{
name = kasra;
pos = (368,-55);
},
{
name = top;
pos = (389,285);
}
);
backgroundImage = {
alpha = 80;
imagePath = "images/MS-ADD-01116-000-00003.jpg";
locked = 1;
pos = (-5124,-3740);
scale = (5,5);
};
layerId = m01;
shapes = (
{
closed = 1;
nodes = (
(253,0,o),
(489,-4,o),
(713,7,cs),
(737,8,o),
(766,30,o),
(765,57,cs),
(763,122,o),
(739,173,o),
(723,209,cs),
(711,237,o),
(707,247,o),
(683,246,cs),
(505,241,o),
(286,238,o),
(123,250,cs),
(103,252,o),
(107,254,o),
(107,273,cs),
(107,305,o),
(110,370,o),
(102,408,cs),
(99,422,o),
(87,423,o),
(81,406,cs),
(71,374,o),
(40,339,o),
(16,322,cs),
(1,311,o),
(6,287,o),
(7,268,cs),
(10,224,o),
(12,164,o),
(12,109,c),
(-20,110,l),
(-20,0,l)
);
},
{
closed = 1;
nodes = (
(422,98,o),
(243,108,o),
(150,111,cs),
(132,112,o),
(128,120,o),
(126,128,c),
(296,123,o),
(450,116,o),
(605,130,cs),
(615,131,o),
(618,128,o),
(619,125,cs),
(622,117,o),
(620,112,o),
(591,110,cs)
);
}
);
width = 765;
},
{
anchors = (
{
name = damma;
pos = (-4,171);
},
{
name = exit;
},
{
name = fatha;
pos = (3072,295);
},
{
name = kasra;
pos = (2982,-55);
},
{
name = top;
pos = (3003,285);
}
);
associatedMasterId = m01;
attr = {
coordinates = (
0,
100
);
};
backgroundImage = {
alpha = 80;
imagePath = "images/MS-ADD-01116-000-00003.jpg";
locked = 1;
pos = (-5124,-3740);
scale = (5,5);
};
layerId = "6C6CD3F1-ADC1-4ED0-98FF-47A292781960";
name = "16 May 23 at 19:25";
shapes = (
{
closed = 1;
nodes = (
(253,0,o),
(5724,-15,o),
(5948,7,cs),
(5972,9,o),
(6001,30,o),
(6000,57,cs),
(5998,122,o),
(5974,173,o),
(5958,209,cs),
(5946,237,o),
(5942,247,o),
(5918,246,cs),
(5740,241,o),
(286,238,o),
(123,250,cs),
(103,252,o),
(107,254,o),
(107,273,cs),
(107,305,o),
(110,370,o),
(102,408,cs),
(99,422,o),
(87,423,o),
(81,406,cs),
(71,374,o),
(40,339,o),
(16,322,cs),
(1,311,o),
(6,287,o),
(7,268,cs),
(10,224,o),
(12,164,o),
(12,109,c),
(-20,110,l),
(-20,0,l)
);
},
{
closed = 1;
nodes = (
(5657,98,o),
(243,108,o),
(150,111,cs),
(132,112,o),
(128,120,o),
(126,128,c),
(296,123,o),
(5685,116,o),
(5840,130,cs),
(5850,131,o),
(5853,128,o),
(5854,125,cs),
(5857,117,o),
(5855,112,o),
(5826,110,cs)
);
}
);
visible = 1;
width = 6000;
},
{
anchors = (
{
name = damma;
pos = (-4,181);
},
{
name = exit;
},
{
name = fatha;
pos = (258,315);
},
{
name = kasra;
pos = (188,-75);
},
{
name = top;
pos = (199,285);
}
);
associatedMasterId = m01;
attr = {
coordinates = (
0,
0
);
};
backgroundImage = {
alpha = 80;
imagePath = "images/MS-ADD-01116-000-00003.jpg";
locked = 1;
pos = (-5124,-3740);
scale = (5,5);
};
layerId = "346DF688-292D-42E2-ADD3-01727E05254D";
name = "17 May 23 at 16:06";
shapes = (
{
closed = 1;
nodes = (
(143,-4,o),
(230,-4,o),
(323,3,cs),
(347,5,o),
(376,30,o),
(375,57,cs),
(373,122,o),
(349,173,o),
(333,209,cs),
(321,237,o),
(317,247,o),
(293,246,cs),
(205,242,o),
(142,242,o),
(123,250,cs),
(113,254,o),
(107,264,o),
(107,273,cs),
(107,305,o),
(110,370,o),
(102,408,cs),
(99,422,o),
(87,423,o),
(81,406,cs),
(71,374,o),
(40,339,o),
(16,322,cs),
(1,311,o),
(6,287,o),
(7,268,cs),
(10,224,o),
(12,164,o),
(12,109,c),
(-20,110,l),
(-20,0,l)
);
},
{
closed = 1;
nodes = (
(181,106,o),
(172,106,o),
(150,107,cs),
(132,108,o),
(128,119,o),
(126,127,c),
(166,124,o),
(190,124,o),
(215,124,cs),
(225,124,o),
(228,123,o),
(229,120,cs),
(232,112,o),
(229,106,o),
(201,106,cs)
);
}
);
visible = 1;
width = 375;
}
);
metricLeft = "=-20@10";
metricRight = "=0";
},
{
color = 9;
glyphname = "tah-ar";
layers = (
{
anchors = (
{
name = damma;
pos = (-52,56);
},
{
name = fatha;
pos = (0,625);
},
{
name = kasra;
pos = (390,-91);
},
{
name = top;
pos = (429,275);
}
);
backgroundImage = {
alpha = 80;
angle = 1.5;
imagePath = "images/MS-ADD-01116-000-00066.jpg";
locked = 1;
pos = (-2527,-3689);
scale = (5,5);
};
layerId = m01;
shapes = (
{
closed = 1;
nodes = (
(401,-15,o),
(579,-16,o),
(753,-3,cs),
(777,-1,o),
(806,20,o),
(805,47,cs),
(803,112,o),
(779,163,o),
(763,199,cs),
(751,227,o),
(747,237,o),
(723,236,cs),
(545,231,o),
(332,228,o),
(169,240,cs),
(149,242,o),
(150,244,o),
(151,263,cs),
(155,335,o),
(163,616,o),
(158,684,cs),
(155,721,o),
(153,753,o),
(146,790,cs),
(144,800,o),
(134,801,o),
(131,792,cs),
(118,752,o),
(80,729,o),
(56,712,cs),
(42,702,o),
(45,689,o),
(46,667,cs),
(60,460,o),
(53,299,o),
(41,85,cs),
(39,49,o),
(19,37,o),
(5,31,cs),
(-7,27,o),
(4,18,o),
(12,12,cs),
(38,-6,o),
(145,-11,o),
(202,-12,cs)
);
},
{
closed = 1;
nodes = (
(437,87,o),
(236,92,o),
(154,104,cs),
(140,106,o),
(134,109,o),
(134,115,cs),
(135,130,o),
(136,144,o),
(137,159,c),
(116,129,l),
(238,106,o),
(475,105,o),
(645,120,cs),
(655,121,o),
(658,118,o),
(659,115,cs),
(662,107,o),
(660,102,o),
(631,100,cs)
);
}
);
width = 805;
},
{
anchors = (
{
name = damma;
pos = (-52,56);
},
{
name = fatha;
pos = (0,625);
},
{
name = kasra;
pos = (2990,-91);
},
{
name = top;
pos = (3029,275);
}
);
associatedMasterId = m01;
attr = {
coordinates = (
0,
100
);
};
layerId = "B85748EF-F7E9-478D-95DB-E97BF30F33E2";
name = "{0, 100} 17 May 23 at 01:16";
shapes = (
{
closed = 1;
nodes = (
(401,-15,o),
(5724,-25,o),
(5948,-3,cs),
(5972,-1,o),
(6001,20,o),
(6000,47,cs),
(5998,112,o),
(5974,163,o),
(5958,199,cs),
(5946,227,o),
(5942,237,o),
(5918,236,cs),
(5740,231,o),
(332,228,o),
(169,240,cs),
(149,242,o),
(150,244,o),
(151,263,cs),
(155,335,o),
(163,616,o),
(158,684,cs),
(155,721,o),
(153,753,o),
(146,790,cs),
(144,800,o),
(134,801,o),
(131,792,cs),
(118,752,o),
(80,729,o),
(56,712,cs),
(42,702,o),
(45,689,o),
(46,667,cs),
(60,460,o),
(53,299,o),
(41,85,cs),
(39,49,o),
(19,37,o),
(5,31,cs),
(-7,27,o),
(4,18,o),
(12,12,cs),
(38,-6,o),
(145,-11,o),
(202,-12,cs)
);
},
{
closed = 1;
nodes = (
(5632,87,o),
(236,92,o),
(154,104,cs),
(140,106,o),
(134,109,o),
(134,115,cs),
(135,130,o),
(136,144,o),
(137,159,c),
(116,129,l),
(238,106,o),
(5670,105,o),
(5840,120,cs),
(5850,121,o),
(5853,118,o),
(5854,115,cs),
(5857,107,o),
(5855,102,o),
(5826,100,cs)
);
}
);
visible = 1;
width = 6000;
},
{
anchors = (
{
name = damma;
pos = (-52,56);
},
{
name = fatha;
pos = (0,625);
},
{
name = kasra;
pos = (290,-91);
},
{
name = top;
pos = (269,275);
}
);
associatedMasterId = m01;
attr = {
coordinates = (
0,
0
);
};
layerId = "CA023420-338A-4674-A660-30605F917EAE";
name = "17 May 23 at 16:11";
shapes = (
{
closed = 1;
nodes = (
(288,-13,o),
(340,-13,o),
(370,-5,cs),
(394,1,o),
(423,20,o),
(422,47,cs),
(420,112,o),
(396,163,o),
(380,199,cs),
(368,227,o),
(364,235,o),
(340,234,cs),
(258,232,o),
(211,232,o),
(169,240,cs),
(149,244,o),
(150,244,o),
(151,263,cs),
(155,335,o),
(163,616,o),
(158,684,cs),
(155,721,o),
(153,753,o),
(146,790,cs),
(144,800,o),
(134,801,o),
(131,792,cs),
(118,752,o),
(80,729,o),
(56,712,cs),
(42,702,o),
(45,689,o),
(46,667,cs),
(60,460,o),
(53,299,o),
(41,85,cs),
(39,49,o),
(19,37,o),
(5,31,cs),
(-7,27,o),
(4,18,o),
(12,12,cs),
(38,-6,o),
(145,-11,o),
(202,-12,cs)
);
},
{
closed = 1;
nodes = (
(234,96,o),
(187,96,o),
(154,104,cs),
(140,107,o),
(134,109,o),
(134,115,cs),
(135,130,o),
(136,144,o),
(137,159,c),
(116,129,l),
(190,116,o),
(227,116,o),
(263,116,cs),
(273,116,o),
(275,118,o),
(276,115,cs),
(279,107,o),
(278,96,o),
(249,96,cs)
);
}
);
visible = 1;
width = 422;
}
);
metricLeft = "=0";
metricRight = "=0";
unicode = 1591;
},
{
color = 9;
glyphname = "tah-ar.init";
kernLeft = sad;
layers = (
{
anchors = (
{
name = damma;
pos = (10,171);
},
{
name = exit;
},
{
name = fatha;
pos = (-49,625);
},
{
name = kasra;
pos = (589,-55);
},
{
name = top;
pos = (389,285);
}
);
backgroundImage = {
alpha = 80;
angle = -0.9;
imagePath = "images/MS-ADD-01116-000-00025.jpg";
locked = 1;
pos = (-5331,-3575);
scale = (5,5);
};
layerId = m01;
shapes = (
{
closed = 1;
nodes = (
(253,-4,o),
(489,-10,o),
(713,7,cs),
(737,9,o),
(766,30,o),
(765,57,cs),
(763,122,o),
(739,173,o),
(723,209,cs),
(711,237,o),
(707,247,o),
(683,246,cs),
(505,241,o),
(299,238,o),
(136,250,cs),
(116,252,o),
(113,254,o),
(113,273,cs),
(113,363,o),
(98,681,o),
(94,771,cs),
(93,794,o),
(79,800,o),
(69,781,cs),
(57,758,o),
(17,725,o),
(0,710,cs),
(-15,697,o),
(-9,684,o),
(-8,674,cs),
(2,513,o),
(16,238,o),
(18,88,c),
(115,86,l),
(115,172,l),
(75,125,l),
(265,119,o),
(435,115,o),
(605,130,cs),
(615,131,o),
(618,128,o),
(619,125,cs),
(622,117,o),
(620,112,o),
(591,110,cs),
(377,95,o),
(150,107,o),
(82,108,cs),
(-20,110,l),
(-20,0,l)
);
}
);
width = 765;
},
{
associatedMasterId = m01;
layerId = "4394DFC0-B3E4-45A0-B4AB-1BF8696322D8";
name = "3 May 23 at 03:04";
shapes = (
{
closed = 1;
nodes = (
(18,0,l),
(92,2,o),
(127,8,o),
(123,116,cs),
(118,263,o),
(103,575,o),
(94,771,cs),
(93,794,o),
(79,800,o),
(69,781,cs),
(57,758,o),
(18,724,o),
(0,710,cs),
(-15,697,o),
(-9,684,o),
(-8,674,cs),
(2,513,o),
(16,239,o),
(18,110,c),
(-20,110,l),
(-20,0,l)
);
}
);
width = 765;
},
{
anchors = (
{
name = damma;
pos = (10,171);
},
{
name = exit;
},
{
name = fatha;
pos = (-49,625);
},
{
name = kasra;
pos = (3189,-55);
},
{
name = top;
pos = (2989,285);
}
);
associatedMasterId = m01;
attr = {
coordinates = (
0,
100
);
};
layerId = "342120A2-69CB-4D5B-B997-48E2238AD02F";
name = "{0, 100} 17 May 23 at 01:25";
shapes = (
{
closed = 1;
nodes = (
(253,-4,o),
(5724,-10,o),
(5948,7,cs),
(5972,9,o),
(6001,30,o),
(6000,57,cs),
(5998,122,o),
(5974,173,o),
(5958,209,cs),
(5946,237,o),
(5942,247,o),
(5918,246,cs),
(5740,241,o),
(299,238,o),
(136,250,cs),
(116,252,o),
(113,254,o),
(113,273,cs),
(113,363,o),
(98,681,o),
(94,771,cs),
(93,794,o),
(79,800,o),
(69,781,cs),
(57,758,o),
(17,725,o),
(0,710,cs),
(-15,697,o),
(-9,684,o),
(-8,674,cs),
(2,513,o),
(16,238,o),
(18,88,c),
(115,86,l),
(115,172,l),
(75,125,l),
(265,119,o),
(5670,115,o),
(5840,130,cs),
(5850,131,o),
(5853,128,o),
(5854,125,cs),
(5857,117,o),
(5855,112,o),
(5826,110,cs),
(5612,95,o),
(150,107,o),
(82,108,cs),
(-20,110,l),
(-20,0,l)
);
}
);
visible = 1;
width = 6000;
},
{
anchors = (
{
name = damma;
pos = (10,171);
},
{
name = exit;
},
{
name = fatha;
pos = (-49,625);
},
{
name = kasra;
pos = (284,-75);
},
{
name = top;
pos = (254,285);
}
);
associatedMasterId = m01;
attr = {
coordinates = (
0,
0
);
};
layerId = "6676DD99-9A0C-449A-88DA-1F58D3F5ED1A";
name = "17 May 23 at 16:11";
shapes = (
{
closed = 1;
nodes = (
(235,-4,o),
(256,-3,o),
(370,6,cs),
(394,8,o),
(423,30,o),
(422,57,cs),
(420,122,o),
(396,173,o),
(380,209,cs),
(368,237,o),
(364,247,o),
(340,245,cs),
(272,241,o),
(160,241,o),
(133,243,cs),
(119,244,o),
(113,254,o),
(113,273,cs),
(113,363,o),
(98,681,o),
(94,771,cs),
(93,794,o),
(79,800,o),
(69,781,cs),
(57,758,o),
(17,725,o),
(0,710,cs),
(-15,697,o),
(-9,684,o),
(-8,674,cs),
(2,513,o),
(16,238,o),
(18,88,c),
(115,86,l),
(115,172,l),
(75,125,l),
(165,122,o),
(218,124,o),
(262,126,cs),
(272,126,o),
(276,125,o),
(277,120,cs),
(278,113,o),
(274,111,o),
(248,109,cs),
(214,107,o),
(145,107,o),
(77,108,cs),
(-20,110,l),
(-20,0,l)
);
}
);
visible = 1;
width = 422;
}
);
metricLeft = "=-20";
metricRight = "=sad-ar";
},
{
color = 9;
glyphname = "tah-ar.init.hah1";
kernLeft = sad;
layers = (
{
anchors = (
{
name = damma;
pos = (10,286);
},
{
name = exit;
pos = (0,115);
},
{
name = fatha;
pos = (-47,625);
},
{
name = kasra;
pos = (589,60);
},
{
name = top;
pos = (389,400);
}
);
backgroundImage = {
alpha = 80;
angle = -0.9;
imagePath = "images/MS-ADD-01116-000-00025.jpg";
locked = 1;
pos = (-5331,-3550);
scale = (5,5);
};
layerId = m01;
shapes = (
{
closed = 1;
nodes = (
(253,111,o),
(489,105,o),
(713,122,cs),
(737,124,o),
(766,145,o),
(765,172,cs),
(763,237,o),
(739,288,o),
(723,324,cs),
(711,352,o),
(707,362,o),
(683,361,cs),
(505,356,o),
(299,353,o),
(136,365,cs),
(116,367,o),
(113,369,o),
(113,388,cs),
(113,478,o),
(98,695,o),
(94,785,cs),
(93,808,o),
(79,814,o),
(69,795,cs),
(57,772,o),
(17,739,o),
(0,724,cs),
(-15,711,o),
(-9,698,o),
(-8,688,cs),
(2,527,o),
(16,353,o),
(18,203,c),
(115,201,l),
(115,287,l),
(75,240,l),
(265,234,o),
(435,230,o),
(605,245,cs),
(615,246,o),
(618,243,o),
(619,240,cs),
(622,232,o),
(620,227,o),
(591,225,cs),
(377,210,o),
(150,222,o),
(82,223,cs),
(-20,225,l),
(-20,115,l)
);
}
);
width = 765;
},
{
anchors = (
{
name = damma;
pos = (10,286);
},
{
name = exit;
pos = (0,115);
},
{
name = fatha;
pos = (-47,625);
},
{
name = kasra;
pos = (3089,60);
},
{
name = top;
pos = (2889,400);
}
);
associatedMasterId = m01;
attr = {
coordinates = (
0,
100
);
};
layerId = "88F229B6-DD0B-4918-BCCF-4C0C47A68CDE";
name = "17 May 23 at 01:16";
shapes = (
{
closed = 1;
nodes = (
(253,111,o),
(5724,105,o),
(5948,122,cs),
(5972,124,o),
(6001,145,o),
(6000,172,cs),
(5998,237,o),
(5974,288,o),
(5958,324,cs),
(5946,352,o),
(5942,362,o),
(5918,361,cs),
(5740,356,o),
(299,353,o),
(136,365,cs),
(116,367,o),
(113,369,o),
(113,388,cs),
(113,478,o),
(98,695,o),
(94,785,cs),
(93,808,o),
(79,814,o),
(69,795,cs),
(57,772,o),
(17,739,o),
(0,724,cs),
(-15,711,o),
(-9,698,o),
(-8,688,cs),
(2,527,o),
(16,353,o),
(18,203,c),
(115,201,l),
(115,287,l),
(75,240,l),
(265,234,o),
(5670,230,o),
(5840,245,cs),
(5850,246,o),
(5853,243,o),
(5854,240,cs),
(5857,232,o),
(5855,227,o),
(5826,225,cs),
(5612,210,o),
(150,222,o),
(82,223,cs),
(-20,225,l),
(-20,115,l)
);
}
);
visible = 1;
width = 6000;
},
{
anchors = (
{
name = damma;
pos = (10,286);
},
{
name = exit;
pos = (0,115);
},
{
name = fatha;
pos = (-47,625);
},
{
name = kasra;
pos = (284,60);
},
{
name = top;
pos = (254,400);
}
);
associatedMasterId = m01;
attr = {
coordinates = (
0,
0
);
};
layerId = "BCED32DF-DF02-4224-A6E8-059FA84C5DFA";
name = "17 May 23 at 16:11";
shapes = (
{
closed = 1;
nodes = (
(235,111,o),
(256,112,o),
(370,121,cs),
(394,123,o),
(423,145,o),
(422,172,cs),
(420,237,o),
(396,288,o),
(380,324,cs),
(368,352,o),
(364,362,o),
(340,360,cs),
(272,356,o),
(155,359,o),
(136,361,cs),
(116,363,o),
(113,369,o),
(113,388,cs),
(113,478,o),
(98,695,o),
(94,785,cs),
(93,808,o),
(79,814,o),
(69,795,cs),
(57,772,o),
(17,739,o),
(0,724,cs),
(-15,711,o),
(-9,698,o),
(-8,688,cs),
(2,527,o),
(16,353,o),
(18,203,c),
(115,201,l),
(115,287,l),
(75,240,l),
(165,237,o),
(218,239,o),
(262,241,cs),
(272,241,o),
(276,240,o),
(277,235,cs),
(278,228,o),
(274,226,o),
(248,224,cs),
(214,222,o),
(145,222,o),
(77,223,cs),
(-20,225,l),
(-20,115,l)
);
}
);
width = 422;
}
);
metricLeft = "=-20";
metricRight = "=sad-ar";
},
{
color = 9;
glyphname = "tah-ar.init.hah2";
kernLeft = sad;
layers = (
{
anchors = (
{
name = damma;
pos = (10,401);
},
{
name = exit;
pos = (0,230);
},
{
name = fatha;
pos = (-39,603);
},
{
name = kasra;
pos = (589,175);
},
{
name = top;
pos = (389,515);
}
);
layerId = m01;
shapes = (
{
closed = 1;
nodes = (
(253,226,o),
(489,220,o),
(713,237,cs),
(737,239,o),
(766,260,o),
(765,287,cs),
(763,352,o),
(739,403,o),
(723,439,cs),
(711,467,o),
(707,477,o),
(683,476,cs),
(505,471,o),
(297,469,o),
(136,480,cs),
(119,481,o),
(117,484,o),
(116,503,cs),
(103,789,ls),
(102,814,o),
(87,812,o),
(82,803,cs),
(64,770,o),
(32,740,o),
(19,731,cs),
(-1,718,o),
(2,708,o),
(3,693,cs),
(6,632,o),
(20,382,o),
(21,318,c),
(125,315,l),
(121,402,l),
(75,355,l),
(265,349,o),
(435,345,o),
(605,360,cs),
(615,361,o),
(618,358,o),
(619,355,cs),
(622,347,o),
(620,342,o),
(591,340,cs),
(377,325,o),
(150,337,o),
(82,338,cs),
(-20,340,l),
(-20,230,l)
);
}
);
width = 765;
},
{
anchors = (
{
name = damma;
pos = (10,401);
},
{
name = exit;
pos = (0,230);
},
{
name = fatha;
pos = (-39,603);
},
{
name = kasra;
pos = (3179,175);
},
{
name = top;
pos = (2979,515);
}
);
associatedMasterId = m01;
attr = {
coordinates = (
0,
100
);
};
layerId = "C81DCBC0-C5CF-4390-81C3-70D0FB6B7C4D";
name = "17 May 23 at 01:16";
shapes = (
{
closed = 1;
nodes = (
(253,226,o),
(5725,215,o),
(5949,237,cs),
(5973,239,o),
(6002,260,o),
(6001,287,cs),
(5999,352,o),
(5975,403,o),
(5959,439,cs),
(5947,467,o),
(5943,477,o),
(5919,476,cs),
(5741,471,o),
(297,469,o),
(136,480,cs),
(119,481,o),
(117,484,o),
(116,503,cs),
(103,789,ls),
(102,814,o),
(87,812,o),
(82,803,cs),
(64,770,o),
(32,740,o),
(19,731,cs),
(-1,718,o),
(2,708,o),
(3,693,cs),
(6,632,o),
(20,382,o),
(21,318,c),
(125,315,l),
(121,402,l),
(75,355,l),
(265,349,o),
(5671,345,o),
(5841,360,cs),
(5851,361,o),
(5854,358,o),
(5855,355,cs),
(5858,347,o),
(5856,342,o),
(5827,340,cs),
(5613,325,o),
(150,337,o),
(82,338,cs),
(-20,340,l),
(-20,230,l)
);
}
);
visible = 1;
width = 6001;
},
{
anchors = (
{
name = damma;
pos = (10,401);
},
{
name = exit;
pos = (0,230);
},
{
name = fatha;
pos = (-39,603);
},
{
name = kasra;
pos = (284,175);
},
{
name = top;
pos = (254,515);
}
);
associatedMasterId = m01;
attr = {
coordinates = (
0,
0
);
};
layerId = "87342EEA-EB66-4235-B3FA-BFCA0294C297";
name = "17 May 23 at 16:11";
shapes = (
{
closed = 1;
nodes = (
(235,226,o),
(256,227,o),
(370,236,cs),
(394,238,o),
(423,260,o),
(422,287,cs),
(420,352,o),
(396,403,o),
(380,439,cs),
(368,467,o),
(364,477,o),
(340,475,cs),
(272,471,o),
(158,474,o),
(139,476,cs),
(119,478,o),
(117,484,o),
(116,503,cs),
(103,789,ls),
(102,814,o),
(87,812,o),
(82,803,cs),
(64,770,o),
(32,740,o),
(19,731,cs),
(-1,718,o),
(2,708,o),
(3,693,cs),
(6,632,o),
(20,382,o),
(21,318,c),
(125,315,l),
(121,402,l),
(75,355,l),
(165,352,o),
(218,354,o),
(262,356,cs),
(272,356,o),
(276,355,o),
(277,350,cs),
(278,343,o),
(274,341,o),
(248,339,cs),
(214,337,o),
(145,337,o),
(77,338,cs),
(-20,340,l),
(-20,230,l)
);
}
);
visible = 1;
width = 422;
}
);
metricLeft = "=-20";
metricRight = "=sad-ar";
},
{
color = 9;
glyphname = "ain-ar";
layers = (
{
anchors = (
{
name = damma;
pos = (-56,54);
},
{
name = fatha;
pos = (474,393);
},
{
name = kasra;
pos = (826,-52);
},
{
name = top;
pos = (382,294);
}
);
layerId = m01;
shapes = (
{
closed = 1;
nodes = (
(400,-123,o),
(542,-61,o),
(607,-38,cs),
(617,-34,o),
(622,-21,o),
(605,-21,cs),
(595,-21,o),
(415,-31,o),
(286,-23,cs),
(204,-18,o),
(127,6,o),
(113,88,cs),
(111,100,o),
(131,105,o),
(133,94,cs),
(152,12,o),
(249,-7,o),
(365,-7,cs),
(401,-7,o),
(711,-2,o),
(873,-2,cs),
(879,-2,o),
(886,2,o),
(893,7,cs),
(915,23,o),
(950,62,o),
(976,81,cs),
(984,87,o),
(986,98,o),
(969,97,cs),
(826,90,o),
(751,84,o),
(612,119,cs),
(476,152,o),
(387,220,o),
(415,267,cs),
(425,284,o),
(456,332,o),
(468,346,cs),
(478,358,o),
(469,373,o),
(454,358,cs),
(439,343,o),
(343,252,o),
(317,224,cs),
(272,176,o),
(332,80,o),
(404,65,c),
(422,99,l),
(346,81,o),
(292,132,o),
(239,185,cs),
(202,222,o),
(178,231,o),
(131,212,cs),
(60,182,o),
(0,115,o),
(0,19,cs),
(0,-113,o),
(164,-122,o),
(209,-122,cs)
);
}
);
width = 982;
},
{
anchors = (
{
name = damma;
pos = (-66,54);
},
{
name = fatha;
pos = (554,423);
},
{
name = kasra;
pos = (926,-72);
},
{
name = top;
pos = (482,294);
}
);
associatedMasterId = m01;
attr = {
coordinates = (
0,
20
);
};
layerId = "C44860A8-2572-4821-B881-095B1041344F";
name = "{0, 10} 17 May 23 at 17:17";
shapes = (
{
closed = 1;
nodes = (
(400,-123,o),
(542,-61,o),
(607,-38,cs),
(617,-34,o),
(622,-21,o),
(605,-21,cs),
(595,-21,o),
(415,-31,o),
(286,-23,cs),
(204,-18,o),
(127,6,o),
(113,88,cs),
(111,100,o),
(131,105,o),
(133,94,cs),
(152,12,o),
(249,-7,o),
(365,-7,cs),
(501,-7,o),
(811,-2,o),
(973,-2,cs),
(979,-2,o),
(986,2,o),
(993,7,cs),
(1015,23,o),
(1050,62,o),
(1076,81,cs),
(1084,87,o),
(1086,98,o),
(1069,97,cs),
(926,90,o),
(851,84,o),
(712,119,cs),
(576,152,o),
(487,220,o),
(515,267,cs),
(525,284,o),
(556,332,o),
(568,346,cs),
(578,358,o),
(569,373,o),
(554,358,cs),
(539,343,o),
(443,252,o),
(417,224,cs),
(372,176,o),
(432,80,o),
(504,65,c),
(472,99,l),
(326,89,o),
(292,132,o),
(239,185,cs),
(202,222,o),
(178,231,o),
(131,212,cs),
(60,182,o),
(0,115,o),
(0,19,cs),
(0,-113,o),
(164,-122,o),
(209,-122,cs)
);
}
);
visible = 1;
width = 1082;
},
{
anchors = (
{
name = damma;
pos = (-66,54);
},
{
name = fatha;
pos = (554,423);
},
{
name = kasra;
pos = (926,-72);
},
{
name = top;
pos = (482,294);
}
);
associatedMasterId = m01;
attr = {
coordinates = (
0,
100
);
};
layerId = "0F9F2B89-AD32-45B3-983D-5C17A2778527";
name = "{0, 100} 17 May 23 at 16:46";
shapes = (
{
closed = 1;
nodes = (
(400,-123,o),
(542,-61,o),
(607,-38,cs),
(617,-34,o),
(622,-21,o),
(605,-21,cs),
(595,-21,o),
(415,-31,o),
(286,-23,cs),
(204,-18,o),
(127,6,o),
(113,88,cs),
(111,100,o),
(131,105,o),
(133,94,cs),
(152,12,o),
(249,-7,o),
(365,-7,cs),
(501,-7,o),
(811,-2,o),
(973,-2,cs),
(979,-2,o),
(986,2,o),
(993,7,cs),
(1015,23,o),
(1050,62,o),
(1076,81,cs),
(1084,87,o),
(1086,98,o),
(1069,97,cs),
(926,90,o),
(851,84,o),
(712,119,cs),
(576,152,o),
(487,220,o),
(515,267,cs),
(525,284,o),
(556,332,o),
(568,346,cs),
(578,358,o),
(569,373,o),
(554,358,cs),
(539,343,o),
(443,252,o),
(417,224,cs),
(372,176,o),
(432,80,o),
(504,65,c),
(472,99,l),
(326,89,o),
(292,132,o),
(239,185,cs),
(202,222,o),
(178,231,o),
(131,212,cs),
(60,182,o),
(0,115,o),
(0,19,cs),
(0,-113,o),
(164,-122,o),
(209,-122,cs)
);
}
);
visible = 1;
width = 1082;
}
);
metricLeft = "=0";
metricRight = "=0";
unicode = 1593;
},
{
glyphname = "ain-ar.fina";
kernRight = beh;
layers = (
{
anchors = (
{
name = damma;
pos = (-48,48);
},
{
name = entry;
pos = (267,0);
},
{
name = fatha;
pos = (223,407);
},
{
name = kasra;
pos = (330,-380);
},
{
name = top;
pos = (44,233);
}
);
backgroundImage = {
alpha = 80;
angle = 0.4;
imagePath = "images/MS-ADD-01116-000-00032.jpg";
locked = 1;
pos = (-4968,-3653);
scale = (5,5);
};
layerId = m01;
shapes = (
{
closed = 1;
nodes = (
(484,-333,o),
(549,-285,o),
(589,-228,cs),
(600,-212,o),
(591,-209,o),
(580,-212,cs),
(344,-277,o),
(87,-218,o),
(220,81,cs),
(232,108,o),
(262,203,o),
(253,350,cs),
(252,366,o),
(245,370,o),
(236,355,cs),
(209,310,o),
(193,295,o),
(155,270,cs),
(147,265,o),
(144,259,o),
(145,250,cs),
(156,152,o),
(141,104,o),
(125,54,cs),
(91,-51,o),
(74,-140,o),
(95,-207,cs),
(121,-286,o),
(209,-333,o),
(331,-333,cs)
);
},
{
closed = 1;
nodes = (
(215,138,l),
(190,183,o),
(131,238,o),
(96,272,cs),
(89,279,o),
(81,282,o),
(76,274,cs),
(50,233,o),
(34,220,o),
(9,203,cs),
(0,197,o),
(-4,184,o),
(4,175,cs),
(46,131,o),
(96,96,o),
(125,54,c)
);
},
{
closed = 1;
nodes = (
(280,0,l),
(280,110,l),
(268,110,o),
(265,134,o),
(264,156,cs),
(263,197,o),
(260,262,o),
(253,350,c),
(209,253,l),
(157,0,l)
);
}
);
width = 267;
},
{
associatedMasterId = m01;
backgroundImage = {
alpha = 80;
angle = 0.4;
imagePath = "images/MS-ADD-01116-000-00032.jpg";
locked = 1;
pos = (-4968,-3653);
scale = (5,5);
};
layerId = "BBF9D86E-C245-4909-AE99-9576745B5543";
name = "4 Apr 23 at 00:41";
shapes = (
{
alignment = -1;
pos = (139,0);
ref = "behDotless-ar.medi";
}
);
visible = 1;
width = 267;
}
);
metricLeft = "=0";
metricRight = "=3@157";
},
{
glyphname = "ain-ar.medi";
kernRight = beh;
layers = (
{
anchors = (
{
name = damma;
pos = (-45,167);
},
{
name = entry;
pos = (220,0);
},
{
name = exit;
},
{
name = fatha;
pos = (165,427);
},
{
name = kasra;
pos = (153,-53);
},
{
name = top;
pos = (5,261);
}
);
backgroundImage = {
alpha = 80;
angle = -0.1;
imagePath = "images/MS-ADD-01116-000-00012.jpg";
locked = 1;
pos = (-5355,-2772);
scale = (5,5);
};
layerId = m01;
shapes = (
{
closed = 1;
nodes = (
(233,0,l),
(233,110,l),
(221,110,o),
(218,134,o),
(217,157,cs),
(215,234,o),
(211,313,o),
(201,376,cs),
(199,391,o),
(189,391,o),
(179,377,cs),
(149,337,o),
(116,302,o),
(65,261,c),
(171,201,l),
(129,228,o),
(87,267,o),
(58,307,cs),
(53,314,o),
(43,317,o),
(38,309,cs),
(12,268,o),
(-11,245,o),
(-36,228,cs),
(-45,222,o),
(-49,209,o),
(-41,200,cs),
(1,156,o),
(41,107,o),
(94,72,c),
(117,110,l),
(-20,110,l),
(-20,0,l)
);
}
);
width = 220;
},
{
associatedMasterId = m01;
backgroundImage = {
alpha = 80;
angle = -0.1;
imagePath = "images/MS-ADD-01116-000-00012.jpg";
locked = 1;
pos = (-5345,-2772);
scale = (5,5);
};
layerId = "667C039A-4034-40CF-B13D-F6D6F2A8613D";
name = "27 Mar 23 at 19:12";
shapes = (
{
closed = 1;
nodes = (
(238,0,l),
(238,110,l),
(209,110,l),
(230,101,l),
(228,187,o),
(222,297,o),
(209,376,cs),
(207,391,o),
(197,391,o),
(187,377,cs),
(157,337,o),
(120,291,o),
(75,250,c),
(171,201,l),
(129,228,o),
(87,267,o),
(58,307,cs),
(53,314,o),
(43,317,o),
(38,309,cs),
(12,268,o),
(-6,240,o),
(-31,223,cs),
(-40,217,o),
(-44,204,o),
(-36,195,cs),
(6,151,o),
(41,107,o),
(94,72,c),
(127,110,l),
(-20,110,l),
(-20,0,l)
);
},
{
closed = 1;
nodes = (
(27,0,l),
(27,109,l),
(-3,138,o),
(-28,163,o),
(-57,191,c),
(-67,191,l),
(-17,0,l)
);
}
);
width = 230;
},
{
associatedMasterId = m01;
backgroundImage = {
alpha = 80;
angle = -0.1;
imagePath = "images/MS-ADD-01116-000-00012.jpg";
locked = 1;
pos = (-5345,-2772);
scale = (5,5);
};
layerId = "408BC535-2B87-463D-B8F9-B1033A3BEC15";
name = "4 Apr 23 at 00:18";
shapes = (
{
alignment = -1;
pos = (92,0);
ref = "behDotless-ar.medi";
}
);
visible = 1;
width = 220;
}
);
metricLeft = "=-20@0";
metricRight = "=3@157";
},
{
glyphname = "ain-ar.init";
layers = (
{
anchors = (
{
name = damma;
pos = (4,171);
},
{
name = exit;
},
{
name = fatha;
pos = (182,403);
},
{
name = kasra;
pos = (362,-54);
},
{
name = top;
pos = (90,304);
}
);
backgroundImage = {
alpha = 80;
imagePath = "images/MS-ADD-01116-000-00032.jpg";
locked = 1;
pos = (-4098,-3629);
scale = (5,5);
};
layerId = m01;
shapes = (
{
closed = 1;
nodes = (
(218,-3,o),
(342,0,o),
(581,8,cs),
(587,8,o),
(594,12,o),
(601,17,cs),
(623,33,o),
(658,72,o),
(684,91,cs),
(692,97,o),
(694,108,o),
(677,107,cs),
(534,100,o),
(459,94,o),
(320,129,cs),
(184,162,o),
(95,230,o),
(123,277,cs),
(133,294,o),
(164,342,o),
(176,356,cs),
(186,368,o),
(177,383,o),
(162,368,cs),
(147,353,o),
(51,262,o),
(25,234,cs),
(-20,186,o),
(40,90,o),
(112,75,c),
(128,110,l),
(-20,110,l),
(-20,0,l)
);
}
);
width = 690;
}
);
metricLeft = "=-20";
metricRight = "=0";
},
{
glyphname = "ain-ar.init.hah";
layers = (
{
anchors = (
{
name = damma;
pos = (-16,171);
},
{
name = exit;
},
{
name = fatha;
pos = (162,403);
},
{
name = kasra;
pos = (522,-54);
},
{
name = top;
pos = (70,304);
}
);
backgroundImage = {
alpha = 80;
imagePath = "images/MS-ADD-01116-000-00032.jpg";
locked = 1;
pos = (-4098,-3629);
scale = (5,5);
};
layerId = m01;
shapes = (
{
closed = 1;
nodes = (
(210,-3,o),
(331,-2,o),
(494,6,cs),
(500,6,o),
(507,10,o),
(514,15,cs),
(536,31,o),
(571,70,o),
(597,89,cs),
(605,95,o),
(607,106,o),
(590,105,cs),
(490,99,o),
(390,109,o),
(307,129,cs),
(172,162,o),
(82,230,o),
(110,277,cs),
(120,294,o),
(151,342,o),
(163,356,cs),
(173,368,o),
(164,383,o),
(149,368,cs),
(134,353,o),
(38,262,o),
(12,234,cs),
(-33,186,o),
(27,90,o),
(99,75,c),
(115,110,l),
(73,102,o),
(35,91,o),
(-7,145,c),
(-7,0,l)
);
}
);
width = 603;
},
{
anchors = (
{
name = exit;
}
);
associatedMasterId = m01;
backgroundImage = {
alpha = 80;
imagePath = "images/MS-ADD-01116-000-00032.jpg";
locked = 1;
pos = (-4098,-3629);
scale = (5,5);
};
layerId = "8E881780-A182-4184-BE1E-0E184AB97EB7";
name = "13 May 23 at 15:29";
shapes = (
{
closed = 1;
nodes = (
(134,-1,o),
(394,3,o),
(465,3,cs),
(482,3,o),
(506,5,o),
(518,16,cs),
(540,35,o),
(562,56,o),
(584,88,cs),
(590,97,o),
(587,104,o),
(576,103,cs),
(418,94,o),
(206,143,o),
(77,296,cs),
(69,305,o),
(57,302,o),
(54,296,cs),
(37,261,o),
(3,227,o),
(-17,214,cs),
(-29,206,o),
(-27,201,o),
(-17,189,cs),
(12,153,o),
(80,81,o),
(126,63,c),
(137,110,l),
(92,102,o),
(34,93,o),
(-10,149,c),
(-10,0,l)
);
}
);
width = 603;
},
{
anchors = (
{
name = damma;
pos = (-16,171);
},
{
name = exit;
},
{
name = fatha;
pos = (162,403);
},
{
name = kasra;
pos = (502,-54);
},
{
name = top;
pos = (70,304);
}
);
associatedMasterId = m01;
backgroundImage = {
alpha = 80;
imagePath = "images/MS-ADD-01116-000-00032.jpg";
locked = 1;
pos = (-4098,-3629);
scale = (5,5);
};
layerId = "72B59425-9968-4590-8026-462ED36FB91A";
name = "13 May 23 at 15:36";
shapes = (
{
closed = 1;
nodes = (
(210,-3,o),
(331,0,o),
(568,8,cs),
(574,8,o),
(581,12,o),
(588,17,cs),
(610,33,o),
(645,72,o),
(671,91,cs),
(679,97,o),
(681,108,o),
(664,107,cs),
(521,100,o),
(446,94,o),
(307,129,cs),
(171,162,o),
(82,230,o),
(110,277,cs),
(120,294,o),
(151,342,o),
(163,356,cs),
(173,368,o),
(164,383,o),
(149,368,cs),
(134,353,o),
(38,262,o),
(12,234,cs),
(-33,186,o),
(27,90,o),
(99,75,c),
(115,110,l),
(73,102,o),
(35,91,o),
(-7,145,c),
(-7,0,l)
);
}
);
visible = 1;
width = 603;
}
);
metricRight = "=0";
},
{
color = 9;
glyphname = "fehDotless-ar";
layers = (
{
anchors = (
{
name = bottom;
pos = (995,43);
},
{
name = damma;
pos = (-41,58);
},
{
name = fatha;
pos = (778,496);
},
{
name = kasra;
pos = (894,-49);
},
{
name = top;
pos = (686,393);
}
);
backgroundImage = {
alpha = 80;
angle = 1.5;
imagePath = "images/MS-ADD-01116-000-00063.jpg";
locked = 1;
pos = (-2263,-2003);
scale = (5,5);
};
layerId = m01;
shapes = (
{
closed = 1;
nodes = (
(507,-14,o),
(757,-15,o),
(888,-1,cs),
(1001,11,o),
(1021,66,o),
(1020,122,cs),
(1018,273,o),
(922,447,o),
(796,445,cs),
(689,443,o),
(634,332,o),
(634,266,cs),
(635,197,o),
(655,159,o),
(689,137,cs),
(745,100,o),
(845,112,o),
(892,122,cs),
(903,123,o),
(905,108,o),
(894,105,cs),
(875,100,o),
(840,96,o),
(793,93,cs),
(650,86,o),
(398,89,o),
(177,97,cs),
(123,99,o),
(115,114,o),
(106,118,cs),
(97,122,o),
(87,121,o),
(85,117,cs),
(60,67,o),
(31,39,o),
(7,32,cs),
(-6,28,o),
(0,16,o),
(11,13,cs),
(55,0,o),
(109,-4,o),
(159,-5,cs)
);
},
{
closed = 1;
nodes = (
(803,270,o),
(797,276,o),
(797,283,cs),
(797,289,o),
(803,295,o),
(810,295,cs),
(816,295,o),
(822,289,o),
(822,283,cs),
(822,276,o),
(816,270,o),
(810,270,cs)
);
}
);
width = 1020;
},
{
anchors = (
{
name = bottom;
pos = (5975,43);
},
{
name = damma;
pos = (-41,58);
},
{
name = fatha;
pos = (5758,496);
},
{
name = kasra;
pos = (5874,-49);
},
{
name = top;
pos = (5666,393);
}
);
associatedMasterId = m01;
attr = {
coordinates = (
0,
100
);
};
backgroundImage = {
alpha = 80;
angle = 1.5;
imagePath = "images/MS-ADD-01116-000-00063.jpg";
locked = 1;
pos = (-2263,-2003);
scale = (5,5);
};
layerId = "CD47D3D8-91E7-4A64-A046-25B89C87F1C6";
name = "17 May 23 at 17:31";
shapes = (
{
closed = 1;
nodes = (
(1480,-31,o),
(5033,-35,o),
(5746,-9,cs),
(5864,-5,o),
(6002,3,o),
(6000,122,cs),
(5998,273,o),
(5902,447,o),
(5776,445,cs),
(5669,443,o),
(5614,332,o),
(5614,266,cs),
(5615,197,o),
(5635,159,o),
(5669,137,cs),
(5725,100,o),
(5825,112,o),
(5872,122,cs),
(5883,123,o),
(5882,110,o),
(5874,104,cs),
(5869,100,o),
(5827,94,o),
(5753,91,cs),
(5044,60,o),
(1443,50,o),
(237,95,cs),
(123,99,o),
(115,114,o),
(106,118,cs),
(97,122,o),
(87,121,o),
(85,117,cs),
(60,67,o),
(31,39,o),
(7,32,cs),
(-6,28,o),
(0,16,o),
(11,13,cs),
(55,0,o),
(109,-4,o),
(159,-5,cs)
);
},
{
closed = 1;
nodes = (
(5783,270,o),
(5777,276,o),
(5777,283,cs),
(5777,289,o),
(5783,295,o),
(5790,295,cs),
(5796,295,o),
(5802,289,o),
(5802,283,cs),
(5802,276,o),
(5796,270,o),
(5790,270,cs)
);
}
);
visible = 1;
width = 6000;
},
{
anchors = (
{
name = bottom;
pos = (595,43);
},
{
name = damma;
pos = (-51,68);
},
{
name = fatha;
pos = (378,516);
},
{
name = kasra;
pos = (494,-69);
},
{
name = top;
pos = (286,393);
}
);
associatedMasterId = m01;
attr = {
coordinates = (
0,
0
);
};
backgroundImage = {
alpha = 80;
angle = 1.5;
imagePath = "images/MS-ADD-01116-000-00063.jpg";
locked = 1;
pos = (-2663,-2003);
scale = (5,5);
};
layerId = "32CE617B-9BC0-4F91-998B-D8877494DCA0";
name = "17 May 23 at 17:31";
shapes = (
{
closed = 1;
nodes = (
(250,-9,o),
(398,-5,o),
(477,-1,cs),
(590,4,o),
(621,62,o),
(620,122,cs),
(617,273,o),
(522,447,o),
(396,445,cs),
(289,443,o),
(234,332,o),
(234,266,cs),
(235,197,o),
(255,159,o),
(289,137,cs),
(345,100,o),
(445,112,o),
(492,122,cs),
(503,123,o),
(505,107,o),
(494,105,cs),
(466,100,o),
(431,95,o),
(393,93,cs),
(325,90,o),
(244,88,o),
(174,103,cs),
(150,108,o),
(127,115,o),
(106,124,cs),
(97,128,o),
(87,127,o),
(85,123,cs),
(60,73,o),
(31,45,o),
(7,38,cs),
(-6,34,o),
(0,22,o),
(11,19,cs),
(42,10,o),
(85,4,o),
(133,0,cs)
);
},
{
closed = 1;
nodes = (
(403,270,o),
(397,276,o),
(397,283,cs),
(397,289,o),
(403,295,o),
(410,295,cs),
(416,295,o),
(422,289,o),
(422,283,cs),
(422,276,o),
(416,270,o),
(410,270,cs)
);
}
);
visible = 1;
width = 620;
}
);
metricLeft = "=behDotless-ar";
metricRight = "=0";
unicode = 1697;
},
{
color = 9;
glyphname = "fehDotless-ar.fina";
kernRight = feh.medi;
layers = (
{
anchors = (
{
name = bottom;
pos = (830,-36);
},
{
name = damma;
pos = (-37,60);
},
{
name = entry;
pos = (997,0);
},
{
name = fatha;
pos = (821,471);
},
{
name = kasra;
pos = (830,-53);
},
{
name = top;
pos = (688,357);
}
);
backgroundImage = {
alpha = 80;
imagePath = "images/MS-ADD-01116-000-00012.jpg";
locked = 1;
pos = (-4282,-2769);
scale = (5,5);
};
layerId = m01;
shapes = (
{
closed = 1;
nodes = (
(437,-6,o),
(569,-1,o),
(997,0,c),
(997,110,l),
(927,110,l),
(991,47,l),
(993,103,o),
(996,158,o),
(996,188,cs),
(996,327,o),
(916,413,o),
(822,413,cs),
(729,413,o),
(635,338,o),
(635,231,cs),
(635,145,o),
(699,97,o),
(758,62,c),
(810,100,l),
(463,94,o),
(412,96,o),
(195,100,cs),
(151,101,o),
(126,101,o),
(87,119,cs),
(79,123,o),
(71,127,o),
(67,110,cs),
(59,79,o),
(39,50,o),
(13,38,cs),
(-3,31,o),
(-4,21,o),
(10,13,cs),
(38,-3,o),
(79,-9,o),
(139,-8,cs)
);
},
{
closed = 1;
nodes = (
(821,238,o),
(815,244,o),
(815,251,cs),
(815,257,o),
(821,263,o),
(828,263,cs),
(834,263,o),
(840,257,o),
(840,251,cs),
(840,244,o),
(834,238,o),
(828,238,cs)
);
}
);
width = 997;
},
{
anchors = (
{
name = bottom;
pos = (5833,-36);
},
{
name = damma;
pos = (-37,60);
},
{
name = entry;
pos = (6000,0);
},
{
name = fatha;
pos = (5824,471);
},
{
name = kasra;
pos = (5833,-53);
},
{
name = top;
pos = (5691,357);
}
);
associatedMasterId = m01;
attr = {
coordinates = (
0,
100
);
};
backgroundImage = {
alpha = 80;
imagePath = "images/MS-ADD-01116-000-00012.jpg";
locked = 1;
pos = (-4282,-2769);
scale = (5,5);
};
layerId = "8DA8B023-25F4-4741-AFF4-D0E0186CAD99";
name = "{0, 100} 17 May 23 at 17:50";
shapes = (
{
closed = 1;
nodes = (
(1237,10,o),
(5372,-1,o),
(6000,0,c),
(6000,110,l),
(5930,110,l),
(5994,47,l),
(5996,103,o),
(5999,158,o),
(5999,188,cs),
(5999,327,o),
(5919,413,o),
(5825,413,cs),
(5732,413,o),
(5638,338,o),
(5638,231,cs),
(5638,145,o),
(5702,97,o),
(5761,62,c),
(5813,100,l),
(5266,91,o),
(1212,81,o),
(255,99,cs),
(151,101,o),
(126,101,o),
(87,119,cs),
(79,123,o),
(71,127,o),
(67,110,cs),
(59,79,o),
(39,50,o),
(13,38,cs),
(-3,31,o),
(-4,21,o),
(10,13,cs),
(38,-3,o),
(79,-9,o),
(139,-8,cs)
);
},
{
closed = 1;
nodes = (
(5824,238,o),
(5818,244,o),
(5818,251,cs),
(5818,257,o),
(5824,263,o),
(5831,263,cs),
(5837,263,o),
(5843,257,o),
(5843,251,cs),
(5843,244,o),
(5837,238,o),
(5831,238,cs)
);
}
);
width = 6000;
},
{
anchors = (
{
name = bottom;
pos = (430,-36);
},
{
name = damma;
pos = (-37,60);
},
{
name = entry;
pos = (597,0);
},
{
name = fatha;
pos = (421,471);
},
{
name = kasra;
pos = (430,-53);
},
{
name = top;
pos = (288,357);
}
);
associatedMasterId = m01;
attr = {
coordinates = (
0,
0
);
};
backgroundImage = {
alpha = 80;
imagePath = "images/MS-ADD-01116-000-00012.jpg";
locked = 1;
pos = (-4282,-2769);
scale = (5,5);
};
layerId = "FF04A85A-4637-4F86-8F13-07935D0179A3";
name = "17 May 23 at 17:51";
shapes = (
{
closed = 1;
nodes = (
(307,-6,o),
(399,-1,o),
(597,0,c),
(597,110,l),
(527,110,l),
(591,47,l),
(593,103,o),
(596,158,o),
(596,188,cs),
(596,327,o),
(516,413,o),
(422,413,cs),
(329,413,o),
(235,338,o),
(235,231,cs),
(235,145,o),
(299,97,o),
(358,62,c),
(410,100,l),
(355,98,o),
(256,92,o),
(177,99,cs),
(141,102,o),
(110,108,o),
(87,119,cs),
(79,123,o),
(71,127,o),
(67,110,cs),
(59,79,o),
(39,50,o),
(13,38,cs),
(-3,31,o),
(-4,21,o),
(10,13,cs),
(38,-3,o),
(79,-9,o),
(139,-8,cs)
);
},
{
closed = 1;
nodes = (
(421,238,o),
(415,244,o),
(415,251,cs),
(415,257,o),
(421,263,o),
(428,263,cs),
(434,263,o),
(440,257,o),
(440,251,cs),
(440,244,o),
(434,238,o),
(428,238,cs)
);
}
);
visible = 1;
width = 597;
}
);
metricLeft = "=behDotless-ar";
metricRight = "=0";
},
{
glyphname = "fehDotless-ar.medi";
kernRight = feh.medi;
layers = (
{
anchors = (
{
name = bottom;
pos = (208,-35);
},
{
name = damma;
pos = (3,172);
},
{
name = entry;
pos = (377,0);
},
{
name = exit;
},
{
name = fatha;
pos = (201,461);
},
{
name = kasra;
pos = (230,-51);
},
{
name = top;
pos = (80,367);
}
);
backgroundImage = {
alpha = 80;
imagePath = "images/MS-ADD-01116-000-00012.jpg";
locked = 1;
pos = (-4900,-2769);
scale = (5,5);
};
layerId = m01;
shapes = (
{
closed = 1;
nodes = (
(377,0,l),
(377,110,l),
(307,110,l),
(371,47,l),
(373,103,o),
(376,158,o),
(376,188,cs),
(376,327,o),
(296,413,o),
(202,413,cs),
(109,413,o),
(15,338,o),
(15,231,cs),
(15,145,o),
(79,97,o),
(138,62,c),
(106,110,l),
(-20,110,l),
(-20,0,l)
);
},
{
closed = 1;
nodes = (
(201,238,o),
(195,244,o),
(195,251,cs),
(195,257,o),
(201,263,o),
(208,263,cs),
(214,263,o),
(220,257,o),
(220,251,cs),
(220,244,o),
(214,238,o),
(208,238,cs)
);
}
);
width = 377;
}
);
metricLeft = "=-20";
metricRight = "=0";
},
{
glyphname = "fehDotless-ar.init";
layers = (
{
anchors = (
{
name = bottom;
pos = (295,43);
},
{
name = damma;
pos = (-37,172);
},
{
name = exit;
},
{
name = fatha;
pos = (133,513);
},
{
name = kasra;
pos = (212,-44);
},
{
name = top;
pos = (18,411);
}
);
backgroundImage = {
alpha = 80;
imagePath = "images/MS-ADD-01116-000-00012.jpg";
pos = (-1784,-3557);
scale = (5,5);
};
layerId = m01;
shapes = (
{
closed = 1;
nodes = (
(130,-2,o),
(334,-3,o),
(334,115,cs),
(334,287,o),
(251,462,o),
(136,462,cs),
(29,462,o),
(-47,351,o),
(-47,260,cs),
(-47,216,o),
(-24,178,o),
(10,155,cs),
(66,117,o),
(165,128,o),
(213,137,cs),
(224,139,o),
(225,128,o),
(214,121,cs),
(195,109,o),
(69,109,o),
(-20,110,c),
(-20,0,l)
);
},
{
closed = 1;
nodes = (
(126,287,o),
(120,293,o),
(120,300,cs),
(120,306,o),
(126,312,o),
(133,312,cs),
(139,312,o),
(145,306,o),
(145,300,cs),
(145,293,o),
(139,287,o),
(133,287,cs)
);
}
);
width = 334;
}
);
metricLeft = "=-20@0";
metricRight = "=0";
},
{
glyphname = "fehDotless-ar.init.hah";
layers = (
{
anchors = (
{
name = bottom;
pos = (284,50);
},
{
name = damma;
pos = (-43,172);
},
{
name = exit;
},
{
name = fatha;
pos = (127,513);
},
{
name = kasra;
pos = (206,-44);
},
{
name = top;
pos = (12,411);
}
);
backgroundImage = {
alpha = 80;
imagePath = "images/MS-ADD-01116-000-00012.jpg";
pos = (-1790,-3557);
scale = (5,5);
};
layerId = m01;
shapes = (
{
closed = 1;
nodes = (
(82,-14,o),
(328,9,o),
(328,115,cs),
(328,287,o),
(245,462,o),
(130,462,cs),
(23,462,o),
(-53,351,o),
(-53,260,cs),
(-53,216,o),
(-30,178,o),
(4,155,cs),
(60,117,o),
(159,128,o),
(207,137,cs),
(218,139,o),
(219,128,o),
(208,121,cs),
(198,114,o),
(157,111,o),
(107,110,cs),
(28,108,o),
(-12,138,o),
(-40,170,c),
(-40,-4,l)
);
},
{
closed = 1;
nodes = (
(120,287,o),
(114,293,o),
(114,300,cs),
(114,306,o),
(120,312,o),
(127,312,cs),
(133,312,o),
(139,306,o),
(139,300,cs),
(139,293,o),
(133,287,o),
(127,287,cs)
);
}
);
width = 328;
}
);
metricRight = "=0";
},
{
glyphname = "fehDotless-ar.init.yeh";
layers = (
{
anchors = (
{
name = bottom;
pos = (284,50);
},
{
name = damma;
pos = (-43,172);
},
{
name = exit;
},
{
name = fatha;
pos = (127,513);
},
{
name = kasra;
pos = (206,-44);
},
{
name = top;
pos = (12,411);
}
);
backgroundImage = {
alpha = 80;
imagePath = "images/MS-ADD-01116-000-00012.jpg";
pos = (-1790,-3557);
scale = (5,5);
};
layerId = m01;
shapes = (
{
closed = 1;
nodes = (
(-38,-20,o),
(328,-14,o),
(328,115,cs),
(328,287,o),
(245,462,o),
(130,462,cs),
(23,462,o),
(-53,351,o),
(-53,260,cs),
(-53,216,o),
(-30,178,o),
(4,155,cs),
(60,117,o),
(159,128,o),
(207,137,cs),
(218,139,o),
(219,128,o),
(208,121,cs),
(198,114,o),
(157,111,o),
(107,110,cs),
(28,108,o),
(-12,138,o),
(-40,170,c),
(-98,6,l)
);
},
{
closed = 1;
nodes = (
(120,287,o),
(114,293,o),
(114,300,cs),
(114,306,o),
(120,312,o),
(127,312,cs),
(133,312,o),
(139,306,o),
(139,300,cs),
(139,293,o),
(133,287,o),
(127,287,cs)
);
}
);
width = 328;
}
);
metricRight = "=0";
},
{
glyphname = "qafDotless-ar";
layers = (
{
anchors = (
{
name = damma;
pos = (-72,138);
},
{
name = fatha;
pos = (138,424);
},
{
name = kasra;
pos = (276,-289);
},
{
name = top;
pos = (39,309);
}
);
backgroundImage = {
alpha = 80;
angle = 1;
imagePath = "images/MS-ADD-01116-000-00056.jpg";
locked = 1;
pos = (-1294,-3692);
scale = (5,5);
};
layerId = m01;
shapes = (
{
closed = 1;
nodes = (
(456,-205,o),
(469,-184,o),
(469,-157,cs),
(469,-112,o),
(464,-72,o),
(452,-37,cs),
(446,-18,o),
(437,-1,o),
(419,1,cs),
(381,6,o),
(343,5,o),
(305,8,cs),
(290,9,o),
(283,11,o),
(292,27,cs),
(312,60,o),
(328,95,o),
(328,143,cs),
(328,224,o),
(261,373,o),
(167,373,cs),
(67,373,o),
(0,269,o),
(0,172,cs),
(0,95,o),
(60,49,o),
(192,49,cs),
(228,49,o),
(255,52,o),
(276,60,c),
(261,73,l),
(238,31,o),
(206,-10,o),
(178,-43,cs),
(167,-57,o),
(164,-83,o),
(183,-91,cs),
(226,-109,o),
(277,-109,o),
(337,-109,cs),
(354,-109,o),
(360,-115,o),
(360,-123,c),
(262,-130,o),
(196,-122,o),
(170,-98,cs),
(164,-93,o),
(157,-91,o),
(152,-97,cs),
(120,-135,o),
(92,-165,o),
(68,-182,cs),
(57,-190,o),
(66,-200,o),
(77,-204,cs),
(174,-245,o),
(291,-252,o),
(432,-212,cs)
);
},
{
closed = 1;
nodes = (
(154,211,o),
(148,217,o),
(148,224,cs),
(148,230,o),
(154,236,o),
(161,236,cs),
(167,236,o),
(173,230,o),
(173,224,cs),
(173,217,o),
(167,211,o),
(161,211,cs)
);
}
);
width = 469;
}
);
metricLeft = "=0";
metricRight = "=0";
unicode = 1647;
},
{
glyphname = "qafDotless-ar.fina";
layers = (
{
anchors = (
{
name = damma;
pos = (-70,148);
},
{
name = entry;
pos = (373,0);
},
{
name = fatha;
pos = (112,418);
},
{
name = kasra;
pos = (346,-329);
},
{
name = top;
pos = (47,295);
}
);
backgroundImage = {
alpha = 80;
angle = 1.4;
imagePath = "images/MS-ADD-01116-000-00054.jpg";
locked = 1;
pos = (-3485,-1814);
scale = (5,5);
};
layerId = m01;
shapes = (
{
closed = 1;
nodes = (
(296,-286,o),
(418,-288,o),
(528,-263,cs),
(552,-258,o),
(570,-224,o),
(570,-197,cs),
(570,-152,o),
(560,-112,o),
(548,-77,cs),
(542,-58,o),
(522,-33,o),
(504,-31,cs),
(423,-22,o),
(311,-47,o),
(327,59,c),
(307,-78,l),
(332,-50,o),
(370,41,o),
(370,107,cs),
(370,197,o),
(290,363,o),
(186,363,cs),
(74,363,o),
(0,266,o),
(0,159,cs),
(0,73,o),
(67,0,o),
(213,0,cs),
(253,0,o),
(283,2,o),
(307,4,c),
(297,30,l),
(283,-2,o),
(261,-35,o),
(246,-66,cs),
(238,-82,o),
(234,-117,o),
(271,-132,cs),
(296,-143,o),
(347,-149,o),
(407,-149,cs),
(424,-149,o),
(430,-155,o),
(430,-163,c),
(332,-170,o),
(271,-158,o),
(241,-139,cs),
(233,-134,o),
(218,-131,o),
(209,-141,cs),
(181,-175,o),
(143,-216,o),
(127,-216,cs),
(112,-216,o),
(107,-238,o),
(134,-252,cs),
(154,-263,o),
(178,-272,o),
(227,-278,cs)
);
},
{
closed = 1;
nodes = (
(182,178,o),
(176,184,o),
(176,191,cs),
(176,197,o),
(182,203,o),
(189,203,cs),
(195,203,o),
(201,197,o),
(201,191,cs),
(201,184,o),
(195,178,o),
(189,178,cs)
);
},
{
closed = 1;
nodes = (
(373,0,l),
(373,110,l),
(330,110,l),
(330,0,l)
);
}
);
width = 373;
}
);
metricLeft = "=0";
metricRight = "=0@10";
},
{
color = 9;
glyphname = "kaf-ar";
layers = (
{
anchors = (
{
name = damma;
pos = (-30,61);
},
{
name = fatha;
pos = (86,573);
},
{
name = gaf;
pos = (191,718);
},
{
name = kasra;
pos = (720,-65);
}
);
backgroundImage = {
alpha = 80;
imagePath = "images/MS-ADD-01116-000-00007.jpg";
locked = 1;
pos = (-5139,-1866);
scale = (5,5);
};
layerId = m01;
shapes = (
{
closed = 1;
nodes = (
(409,-17,o),
(620,-20,o),
(844,-3,cs),
(868,-1,o),
(897,20,o),
(896,47,cs),
(894,112,o),
(870,163,o),
(854,199,cs),
(842,227,o),
(838,237,o),
(814,236,cs),
(636,231,o),
(429,228,o),
(268,240,cs),
(246,242,o),
(235,252,o),
(234,271,cs),
(228,343,o),
(244,517,o),
(239,648,cs),
(238,685,o),
(234,721,o),
(232,758,cs),
(231,768,o),
(225,769,o),
(220,760,cs),
(198,720,o),
(171,693,o),
(147,676,cs),
(122,658,o),
(143,632,o),
(145,565,cs),
(149,448,o),
(147,299,o),
(148,149,cs),
(148,120,o),
(196,118,o),
(255,116,cs),
(415,111,o),
(576,106,o),
(736,120,cs),
(746,121,o),
(749,118,o),
(750,115,cs),
(753,107,o),
(751,102,o),
(722,100,cs),
(508,85,o),
(281,93,o),
(213,97,cs),
(178,99,o),
(150,103,o),
(140,111,cs),
(126,122,o),
(113,116,o),
(106,108,cs),
(86,84,o),
(55,52,o),
(27,39,cs),
(21,36,o),
(20,38,o),
(14,41,cs),
(-1,48,o),
(-6,25,o),
(9,16,cs),
(39,-3,o),
(104,-13,o),
(185,-14,cs)
);
}
);
width = 896;
},
{
anchors = (
{
name = damma;
pos = (-30,61);
},
{
name = fatha;
pos = (86,573);
},
{
name = gaf;
pos = (191,718);
},
{
name = kasra;
pos = (3040,-65);
}
);
associatedMasterId = m01;
attr = {
coordinates = (
0,
100
);
};
layerId = "74D6E443-AAA2-4E7E-A54D-56928A737A53";
name = "17 May 23 at 02:07";
shapes = (
{
closed = 1;
nodes = (
(409,-17,o),
(5694,-44,o),
(5948,-3,cs),
(5972,1,o),
(6001,20,o),
(6000,47,cs),
(5998,112,o),
(5974,163,o),
(5958,199,cs),
(5946,227,o),
(5942,237,o),
(5918,236,cs),
(5740,231,o),
(429,228,o),
(268,240,cs),
(246,242,o),
(235,252,o),
(234,271,cs),
(228,343,o),
(244,517,o),
(239,648,cs),
(238,685,o),
(234,721,o),
(232,758,cs),
(231,768,o),
(225,769,o),
(220,760,cs),
(198,720,o),
(171,693,o),
(147,676,cs),
(122,658,o),
(143,632,o),
(145,565,cs),
(149,448,o),
(147,299,o),
(148,149,cs),
(148,120,o),
(196,118,o),
(255,116,cs),
(415,111,o),
(5680,106,o),
(5840,120,cs),
(5850,121,o),
(5853,118,o),
(5854,115,cs),
(5857,107,o),
(5855,102,o),
(5826,100,cs),
(5612,85,o),
(281,93,o),
(213,97,cs),
(178,99,o),
(150,103,o),
(140,111,cs),
(126,122,o),
(113,116,o),
(106,108,cs),
(86,84,o),
(55,52,o),
(27,39,cs),
(21,36,o),
(20,38,o),
(14,41,cs),
(-1,48,o),
(-6,25,o),
(9,16,cs),
(39,-3,o),
(104,-13,o),
(185,-14,cs)
);
}
);
visible = 1;
width = 6000;
},
{
anchors = (
{
name = damma;
pos = (-30,61);
},
{
name = fatha;
pos = (86,573);
},
{
name = gaf;
pos = (191,718);
},
{
name = kasra;
pos = (330,-85);
}
);
associatedMasterId = m01;
attr = {
coordinates = (
0,
0
);
};
layerId = "4E144A20-CADF-4CEE-ACB3-E2BE40B54E77";
name = "17 May 23 at 05:12";
shapes = (
{
closed = 1;
nodes = (
(289,-16,o),
(310,-12,o),
(414,-4,cs),
(438,-2,o),
(467,20,o),
(466,47,cs),
(464,112,o),
(440,163,o),
(424,199,cs),
(412,227,o),
(408,236,o),
(384,236,cs),
(336,237,o),
(302,236,o),
(268,237,cs),
(246,238,o),
(235,249,o),
(234,268,cs),
(228,340,o),
(244,517,o),
(239,648,cs),
(238,685,o),
(234,721,o),
(232,758,cs),
(231,768,o),
(225,769,o),
(220,760,cs),
(198,720,o),
(171,693,o),
(147,676,cs),
(122,658,o),
(143,632,o),
(145,565,cs),
(149,448,o),
(147,299,o),
(148,149,cs),
(148,120,o),
(196,117,o),
(225,116,cs),
(245,115,o),
(286,115,o),
(306,116,cs),
(316,116,o),
(319,114,o),
(320,111,cs),
(323,103,o),
(321,96,o),
(292,95,cs),
(258,94,o),
(241,94,o),
(213,95,cs),
(178,96,o),
(150,103,o),
(140,111,cs),
(126,122,o),
(113,116,o),
(106,108,cs),
(86,84,o),
(55,52,o),
(27,39,cs),
(21,36,o),
(20,38,o),
(14,41,cs),
(-1,48,o),
(-6,25,o),
(9,16,cs),
(39,-3,o),
(104,-13,o),
(185,-14,cs)
);
}
);
visible = 1;
width = 466;
}
);
metricLeft = "=0";
metricRight = "=0";
unicode = 1603;
},
{
color = 9;
glyphname = "kaf-ar.init";
kernLeft = kaf;
layers = (
{
anchors = (
{
name = damma;
pos = (18,177);
},
{
name = exit;
},
{
name = fatha;
pos = (191,354);
},
{
name = gaf;
pos = (126,292);
},
{
name = kasra;
pos = (590,-53);
}
);
backgroundImage = {
alpha = 80;
angle = 0.4;
imagePath = "images/MS-ADD-01116-000-00016.jpg";
locked = 1;
pos = (-2102,-3408);
scale = (5,5);
};
layerId = m01;
shapes = (
{
closed = 1;
nodes = (
(15,0,l),
(178,0,o),
(465,0,o),
(720,0,cs),
(754,0,o),
(765,14,o),
(765,42,cs),
(765,98,o),
(743,176,o),
(713,230,cs),
(707,241,o),
(699,245,o),
(692,245,cs),
(503,245,o),
(289,230,o),
(124,249,c),
(175,328,ls),
(184,342,o),
(171,349,o),
(162,338,cs),
(23,163,ls),
(20,159,o),
(20,155,o),
(25,152,cs),
(34,146,o),
(68,141,o),
(116,137,cs),
(248,126,o),
(486,133,o),
(608,134,cs),
(612,134,o),
(619,134,o),
(621,130,cs),
(625,124,o),
(619,120,o),
(597,119,cs),
(433,115,o),
(296,108,o),
(114,117,cs),
(31,121,o),
(8,124,o),
(1,141,c),
(-10,141,l),
(-10,0,l)
);
}
);
width = 765;
},
{
anchors = (
{
name = damma;
pos = (18,177);
},
{
name = exit;
},
{
name = fatha;
pos = (191,354);
},
{
name = gaf;
pos = (126,292);
},
{
name = kasra;
pos = (3090,-53);
}
);
associatedMasterId = m01;
attr = {
coordinates = (
0,
100
);
};
layerId = "F7B304CE-F14F-4C45-8F42-E525D4807B96";
name = "17 May 23 at 02:07";
shapes = (
{
closed = 1;
nodes = (
(15,0,l),
(178,0,o),
(5700,0,o),
(5955,0,cs),
(5989,0,o),
(6000,14,o),
(6000,42,cs),
(6000,98,o),
(5978,176,o),
(5948,230,cs),
(5942,241,o),
(5934,245,o),
(5927,245,cs),
(5738,245,o),
(151,220,o),
(124,249,c),
(175,328,ls),
(184,342,o),
(171,349,o),
(162,338,cs),
(23,163,ls),
(20,159,o),
(20,155,o),
(25,152,cs),
(34,146,o),
(68,141,o),
(116,137,cs),
(248,126,o),
(5721,133,o),
(5843,134,cs),
(5847,134,o),
(5854,134,o),
(5856,130,cs),
(5860,124,o),
(5854,120,o),
(5832,119,cs),
(5668,115,o),
(296,108,o),
(114,117,cs),
(31,121,o),
(8,124,o),
(1,141,c),
(-10,141,l),
(-10,0,l)
);
}
);
visible = 1;
width = 6000;
},
{
anchors = (
{
name = damma;
pos = (28,227);
},
{
name = exit;
},
{
name = fatha;
pos = (239,300);
},
{
name = gaf;
pos = (126,292);
},
{
name = kasra;
pos = (247,-73);
}
);
associatedMasterId = m01;
attr = {
coordinates = (
0,
0
);
};
layerId = "9C4DD387-C1A2-43F3-A266-AC5DE9811939";
name = "17 May 23 at 13:22";
shapes = (
{
closed = 1;
nodes = (
(15,0,l),
(168,-3,o),
(232,-3,o),
(377,0,cs),
(411,1,o),
(422,14,o),
(422,42,cs),
(422,98,o),
(400,172,o),
(370,226,cs),
(364,237,o),
(356,241,o),
(349,241,cs),
(225,239,o),
(163,239,o),
(122,245,c),
(175,328,ls),
(184,342,o),
(171,349,o),
(162,338,cs),
(23,163,ls),
(20,159,o),
(20,155,o),
(25,152,c),
(34,146,o),
(60,136,o),
(116,135,cs),
(175,134,o),
(183,134,o),
(265,134,cs),
(269,134,o),
(276,134,o),
(278,130,cs),
(282,124,o),
(276,116,o),
(254,116,cs),
(183,116,o),
(173,117,o),
(114,117,cs),
(31,117,o),
(8,124,o),
(1,141,c),
(-10,141,l),
(-10,0,l)
);
}
);
visible = 1;
width = 422;
}
);
metricLeft = "=-10";
metricRight = "=0";
},
{
glyphname = "lam-ar";
layers = (
{
anchors = (
{
name = damma;
pos = (33,56);
},
{
name = fatha;
pos = (0,625);
},
{
name = kasra;
pos = (246,-135);
}
);
backgroundImage = {
alpha = 80;
angle = -0.2;
imagePath = "images/MS-ADD-01116-000-00005.jpg";
locked = 1;
pos = (-4737,-1764);
scale = (5,5);
};
layerId = m01;
shapes = (
{
closed = 1;
nodes = (
(175,-234,o),
(186,-222,o),
(186,-198,cs),
(186,-93,o),
(178,11,o),
(177,78,c),
(172,263,o),
(155,573,o),
(143,769,cs),
(142,792,o),
(127,798,o),
(117,779,cs),
(105,756,o),
(75,712,o),
(57,702,cs),
(39,692,o),
(48,679,o),
(49,669,cs),
(63,508,o),
(88,83,o),
(99,-166,c),
(119,-135,l),
(77,-145,o),
(40,-142,o),
(7,-131,cs),
(-1,-129,o),
(-11,-126,o),
(-17,-133,cs),
(-41,-162,o),
(-62,-192,o),
(-91,-211,cs),
(-104,-220,o),
(-109,-233,o),
(-96,-240,cs),
(-12,-283,o),
(91,-283,o),
(159,-243,cs)
);
}
);
width = 186;
}
);
metricLeft = "=-100@-220";
metricRight = "=0";
unicode = 1604;
},
{
glyphname = "lam-ar.fina.short";
kernRight = beh;
layers = (
{
anchors = (
{
name = damma;
pos = (33,56);
},
{
name = entry;
pos = (178,0);
},
{
name = exit;
pos = (130,0);
},
{
name = fatha;
pos = (3,509);
},
{
name = kasra;
pos = (246,-135);
}
);
backgroundImage = {
alpha = 80;
angle = -0.2;
imagePath = "../images/MS-ADD-01116-000-00005.jpg";
locked = 1;
pos = (-4737,-1764);
scale = (5,5);
};
layerId = m01;
shapes = (
{
closed = 1;
nodes = (
(175,-234,o),
(186,-222,o),
(186,-198,cs),
(186,-93,o),
(178,11,o),
(177,78,c),
(172,263,o),
(169,475,o),
(158,671,cs),
(157,694,o),
(143,700,o),
(133,681,cs),
(121,658,o),
(82,624,o),
(64,610,cs),
(49,597,o),
(55,584,o),
(56,574,cs),
(70,413,o),
(88,83,o),
(99,-166,c),
(119,-135,l),
(77,-145,o),
(40,-142,o),
(7,-131,cs),
(-1,-129,o),
(-11,-126,o),
(-17,-133,cs),
(-41,-162,o),
(-62,-192,o),
(-91,-211,cs),
(-104,-220,o),
(-109,-233,o),
(-96,-240,cs),
(-12,-283,o),
(91,-283,o),
(159,-243,cs)
);
},
{
closed = 1;
nodes = (
(190,0,l),
(190,110,l),
(118,110,l),
(118,0,l)
);
}
);
width = 178;
},
{
associatedMasterId = m01;
backgroundImage = {
alpha = 80;
angle = -0.2;
imagePath = "../images/MS-ADD-01116-000-00005.jpg";
locked = 1;
pos = (-4737,-1764);
scale = (5,5);
};
layerId = "D969F4A3-3B14-4CC0-B72A-5B513B267645";
name = "4 Apr 23 at 01:20";
shapes = (
{
alignment = -1;
pos = (50,0);
ref = "behDotless-ar.medi.high";
}
);
width = 178;
}
);
metricLeft = "=-100@-220";
metricRight = "=3@157";
},
{
glyphname = "lam-ar.medi.hah2.round";
kernLeft = lam;
kernRight = beh;
layers = (
{
anchors = (
{
name = damma;
pos = (-29,404);
},
{
name = entry;
pos = (97,230);
},
{
name = exit;
pos = (0,230);
},
{
name = fatha;
pos = (-83,648);
},
{
name = hamzaabove;
pos = (140,674);
},
{
name = kasra;
pos = (62,174);
}
);
layerId = m01;
shapes = (
{
closed = 1;
nodes = (
(109,230,l),
(109,340,l),
(97,340,o),
(95,364,o),
(94,387,cs),
(87,556,o),
(77,625,o),
(70,786,cs),
(69,809,o),
(55,815,o),
(45,796,cs),
(33,773,o),
(-5,739,o),
(-23,725,cs),
(-39,713,o),
(-33,699,o),
(-32,689,cs),
(-22,528,o),
(-8,379,o),
(-5,285,cs),
(-4,250,o),
(11,230,o),
(60,230,cs)
);
}
);
width = 97;
}
);
metricLeft = "=-5@285";
metricRight = "=3@387";
},
{
glyphname = "lam-ar.init";
kernLeft = lam;
layers = (
{
anchors = (
{
name = damma;
pos = (5,173);
},
{
name = exit;
},
{
name = fatha;
pos = (-58,625);
},
{
name = kasra;
pos = (123,-36);
}
);
backgroundImage = {
alpha = 80;
angle = -0.1;
imagePath = "images/MS-ADD-01116-000-00003.jpg";
locked = 1;
pos = (-3157,-1867);
scale = (5,5);
};
layerId = m01;
shapes = (
{
closed = 1;
nodes = (
(18,0,l),
(92,2,o),
(127,8,o),
(123,116,cs),
(118,263,o),
(103,575,o),
(94,771,cs),
(93,794,o),
(79,800,o),
(69,781,cs),
(57,758,o),
(18,724,o),
(0,710,cs),
(-15,697,o),
(-9,684,o),
(-8,674,cs),
(2,513,o),
(16,239,o),
(18,110,c),
(-20,110,l),
(-20,0,l)
);
}
);
width = 123;
}
);
metricLeft = "=-20@0";
metricRight = "=0";
},
{
glyphname = "lam-ar.init.hah1";
kernLeft = lam;
layers = (
{
anchors = (
{
name = damma;
pos = (5,288);
},
{
name = exit;
pos = (0,115);
},
{
name = fatha;
pos = (-54,635);
},
{
name = kasra;
pos = (123,79);
}
);
backgroundImage = {
alpha = 80;
angle = -0.1;
imagePath = "images/MS-ADD-01116-000-00003.jpg";
locked = 1;
pos = (-6202,-3619);
scale = (5,5);
};
layerId = m01;
shapes = (
{
closed = 1;
nodes = (
(18,115,l),
(92,117,o),
(127,123,o),
(123,231,cs),
(118,378,o),
(107,590,o),
(98,786,cs),
(97,809,o),
(83,815,o),
(73,796,cs),
(61,773,o),
(22,739,o),
(4,725,cs),
(-11,712,o),
(-5,699,o),
(-4,689,cs),
(6,528,o),
(16,354,o),
(18,225,c),
(-20,225,l),
(-20,115,l)
);
}
);
width = 123;
},
{
associatedMasterId = m01;
backgroundImage = {
alpha = 80;
angle = -0.1;
imagePath = "images/MS-ADD-01116-000-00003.jpg";
locked = 1;
pos = (-6202,-3734);
scale = (5,5);
};
layerId = "57202DD3-E382-4D04-9977-46B2FD35FB4D";
name = "1 May 23 at 01:53";
shapes = (
{
closed = 1;
nodes = (
(18,0,l),
(92,2,o),
(127,8,o),
(123,116,cs),
(118,263,o),
(107,475,o),
(98,671,cs),
(97,694,o),
(83,700,o),
(73,681,cs),
(61,658,o),
(22,624,o),
(4,610,cs),
(-11,597,o),
(-5,584,o),
(-4,574,cs),
(6,413,o),
(16,239,o),
(18,110,c),
(-20,110,l),
(-20,0,l)
);
}
);
width = 123;
}
);
metricLeft = "=-20@115";
metricRight = "=0";
},
{
glyphname = "lam-ar.init.hah1.alt";
layers = (
{
anchors = (
{
name = damma;
pos = (-9,232);
},
{
name = exit;
pos = (-63,130);
},
{
name = fatha;
pos = (-69,625);
},
{
name = kasra;
pos = (163,-72);
}
);
backgroundImage = {
alpha = 80;
angle = -1.1;
imagePath = "images/MS-ADD-01116-000-00003.jpg";
locked = 1;
pos = (-2756,-3785);
scale = (5,5);
};
layerId = m01;
shapes = (
{
closed = 1;
nodes = (
(105,130,l),
(100,276,o),
(89,578,o),
(81,766,cs),
(80,789,o),
(66,795,o),
(56,776,cs),
(44,753,o),
(5,719,o),
(-13,705,cs),
(-28,692,o),
(-22,679,o),
(-21,669,cs),
(-11,518,o),
(-2,256,o),
(0,130,c)
);
}
);
width = 105;
}
);
metricLeft = "=0@130";
metricRight = "=0";
},
{
glyphname = "lam-ar.init.hah2";
kernLeft = lam;
layers = (
{
anchors = (
{
name = damma;
pos = (5,403);
},
{
name = exit;
pos = (0,230);
},
{
name = fatha;
pos = (-48,620);
},
{
name = kasra;
pos = (123,194);
}
);
layerId = m01;
shapes = (
{
closed = 1;
nodes = (
(18,230,l),
(92,232,o),
(127,238,o),
(123,346,cs),
(118,493,o),
(110,645,o),
(104,787,cs),
(103,810,o),
(89,816,o),
(79,797,cs),
(67,774,o),
(28,740,o),
(10,726,cs),
(-5,713,o),
(1,700,o),
(2,690,cs),
(9,580,o),
(16,444,o),
(20,340,c),
(-20,340,l),
(-20,230,l)
);
}
);
width = 123;
},
{
associatedMasterId = m01;
backgroundImage = {
alpha = 80;
angle = -0.1;
imagePath = "images/MS-ADD-01116-000-00003.jpg";
locked = 1;
pos = (-6202,-3734);
scale = (5,5);
};
layerId = "57202DD3-E382-4D04-9977-46B2FD35FB4D";
name = "1 May 23 at 01:53";
shapes = (
{
closed = 1;
nodes = (
(18,0,l),
(92,2,o),
(127,8,o),
(123,116,cs),
(118,263,o),
(107,475,o),
(98,671,cs),
(97,694,o),
(83,700,o),
(73,681,cs),
(61,658,o),
(22,624,o),
(4,610,cs),
(-11,597,o),
(-5,584,o),
(-4,574,cs),
(6,413,o),
(16,239,o),
(18,110,c),
(-20,110,l),
(-20,0,l)
);
}
);
width = 123;
}
);
metricLeft = "=-20@230";
metricRight = "=0";
},
{
glyphname = "lam-ar.init.hah2.alt";
layers = (
{
anchors = (
{
name = damma;
pos = (-9,332);
},
{
name = exit;
pos = (-63,230);
},
{
name = fatha;
pos = (-69,608);
},
{
name = kasra;
pos = (163,28);
}
);
layerId = m01;
shapes = (
{
closed = 1;
nodes = (
(105,230,l),
(100,376,o),
(89,578,o),
(81,766,cs),
(80,789,o),
(66,795,o),
(56,776,cs),
(44,753,o),
(5,719,o),
(-13,705,cs),
(-28,692,o),
(-22,679,o),
(-21,669,cs),
(-11,518,o),
(-2,356,o),
(0,230,c)
);
}
);
width = 105;
}
);
metricLeft = "=0@230";
metricRight = "=0";
},
{
glyphname = "meem-ar";
kernRight = meem;
layers = (
{
anchors = (
{
name = damma;
pos = (-20,60);
},
{
name = fatha;
pos = (350,375);
},
{
name = kasra;
pos = (376,-93);
}
);
backgroundImage = {
alpha = 80;
imagePath = "images/MS-ADD-01116-000-00005.jpg";
locked = 1;
pos = (-4613,-2812);
scale = (5,5);
};
layerId = m01;
shapes = (
{
closed = 1;
nodes = (
(370,-45,ls),
(436,-45,o),
(554,-55,o),
(554,86,cs),
(554,216,o),
(473,327,o),
(368,327,cs),
(267,327,o),
(171,234,o),
(198,84,c),
(171,86,o),
(146,92,o),
(122,100,cs),
(111,104,o),
(100,103,o),
(95,94,cs),
(75,61,o),
(50,44,o),
(12,30,cs),
(-7,23,o),
(0,9,o),
(6,1,cs),
(39,-44,o),
(193,-45,o),
(356,-45,cs)
);
},
{
closed = 1;
nodes = (
(380,137,o),
(374,143,o),
(374,150,cs),
(374,156,o),
(380,162,o),
(387,162,cs),
(393,162,o),
(399,156,o),
(399,150,cs),
(399,143,o),
(393,137,o),
(387,137,cs)
);
}
);
width = 554;
},
{
associatedMasterId = m01;
layerId = "E0CE7A6A-A561-47FC-A655-1D4A4B2AE5B5";
name = "26 Apr 21, 22:21";
shapes = (
{
closed = 1;
nodes = (
(914,-24,o),
(956,10,o),
(956,128,cs),
(956,290,o),
(850,486,o),
(708,486,cs),
(564,486,o),
(442,324,o),
(442,114,cs),
(442,8,o),
(530,-24,o),
(708,-24,cs)
);
},
{
closed = 1;
nodes = (
(706,210,o),
(702,214,o),
(702,224,cs),
(702,232,o),
(706,236,o),
(716,236,cs),
(724,236,o),
(728,232,o),
(728,224,cs),
(728,214,o),
(724,210,o),
(716,210,cs)
);
}
);
width = 950;
},
{
associatedMasterId = m01;
layerId = "68EBDF7B-15A5-46E4-9C57-C98FC85622D4";
name = "26 Apr 21, 22:20";
shapes = (
{
closed = 1;
nodes = (
(928,-22,o),
(956,24,o),
(956,142,cs),
(956,304,o),
(854,500,o),
(710,500,cs),
(560,500,o),
(420,318,o),
(420,128,c),
(352,128,o),
(282,134,o),
(214,152,c),
(158,94,o),
(92,50,o),
(20,8,c),
(236,-6,o),
(490,-22,o),
(702,-22,cs)
);
},
{
closed = 1;
nodes = (
(692,234,o),
(688,238,o),
(688,248,cs),
(688,256,o),
(692,260,o),
(702,260,cs),
(710,260,o),
(714,256,o),
(714,248,cs),
(714,238,o),
(710,234,o),
(702,234,cs)
);
}
);
width = 950;
}
);
metricLeft = "=0";
metricRight = "=0";
unicode = 1605;
},
{
glyphname = "meem-ar.fina";
layers = (
{
anchors = (
{
name = damma;
pos = (-39,60);
},
{
name = entry;
pos = (567,0);
},
{
name = fatha;
pos = (305,385);
},
{
name = kasra;
pos = (451,-93);
}
);
backgroundImage = {
alpha = 80;
angle = -0.6;
imagePath = "images/MS-ADD-01116-000-00023.jpg";
locked = 1;
pos = (-3591,-2752);
scale = (5,5);
};
layerId = m01;
shapes = (
{
closed = 1;
nodes = (
(441,-46,o),
(567,-55,o),
(567,47,cs),
(567,216,o),
(470,324,o),
(373,324,cs),
(275,324,o),
(171,230,o),
(193,42,cs),
(204,-40,o),
(300,-44,o),
(375,-45,cs)
);
},
{
closed = 1;
nodes = (
(567,0,l),
(567,110,l),
(402,94,o),
(244,58,o),
(122,110,cs),
(111,115,o),
(100,113,o),
(95,104,cs),
(75,71,o),
(50,48,o),
(12,34,cs),
(-7,27,o),
(0,13,o),
(6,5,cs),
(40,-41,o),
(174,-41,o),
(342,-30,c)
);
},
{
closed = 1;
nodes = (
(388,127,o),
(382,133,o),
(382,140,cs),
(382,146,o),
(388,152,o),
(395,152,cs),
(401,152,o),
(407,146,o),
(407,140,cs),
(407,133,o),
(401,127,o),
(395,127,cs)
);
}
);
width = 567;
},
{
associatedMasterId = m01;
layerId = "E0CE7A6A-A561-47FC-A655-1D4A4B2AE5B5";
name = "26 Apr 21, 22:21";
shapes = (
{
closed = 1;
nodes = (
(914,-24,o),
(956,10,o),
(956,128,cs),
(956,290,o),
(850,486,o),
(708,486,cs),
(564,486,o),
(442,324,o),
(442,114,cs),
(442,8,o),
(530,-24,o),
(708,-24,cs)
);
},
{
closed = 1;
nodes = (
(706,210,o),
(702,214,o),
(702,224,cs),
(702,232,o),
(706,236,o),
(716,236,cs),
(724,236,o),
(728,232,o),
(728,224,cs),
(728,214,o),
(724,210,o),
(716,210,cs)
);
}
);
width = 950;
},
{
associatedMasterId = m01;
layerId = "68EBDF7B-15A5-46E4-9C57-C98FC85622D4";
name = "26 Apr 21, 22:20";
shapes = (
{
closed = 1;
nodes = (
(928,-22,o),
(956,24,o),
(956,142,cs),
(956,304,o),
(854,500,o),
(710,500,cs),
(560,500,o),
(420,318,o),
(420,128,c),
(352,128,o),
(282,134,o),
(214,152,c),
(158,94,o),
(92,50,o),
(20,8,c),
(236,-6,o),
(490,-22,o),
(702,-22,cs)
);
},
{
closed = 1;
nodes = (
(692,234,o),
(688,238,o),
(688,248,cs),
(688,256,o),
(692,260,o),
(702,260,cs),
(710,260,o),
(714,256,o),
(714,248,cs),
(714,238,o),
(710,234,o),
(702,234,cs)
);
}
);
width = 950;
}
);
metricLeft = "=0";
metricRight = "=0";
},
{
glyphname = "meem-ar.fina.round";
layers = (
{
anchors = (
{
name = entry;
pos = (554,0);
}
);
layerId = m01;
shapes = (
{
ref = "meem-ar";
}
);
width = 554;
},
{
associatedMasterId = m01;
layerId = "E0CE7A6A-A561-47FC-A655-1D4A4B2AE5B5";
name = "26 Apr 21, 22:21";
shapes = (
{
closed = 1;
nodes = (
(914,-24,o),
(956,10,o),
(956,128,cs),
(956,290,o),
(850,486,o),
(708,486,cs),
(564,486,o),
(442,324,o),
(442,114,cs),
(442,8,o),
(530,-24,o),
(708,-24,cs)
);
},
{
closed = 1;
nodes = (
(706,210,o),
(702,214,o),
(702,224,cs),
(702,232,o),
(706,236,o),
(716,236,cs),
(724,236,o),
(728,232,o),
(728,224,cs),
(728,214,o),
(724,210,o),
(716,210,cs)
);
}
);
width = 950;
},
{
associatedMasterId = m01;
layerId = "68EBDF7B-15A5-46E4-9C57-C98FC85622D4";
name = "26 Apr 21, 22:20";
shapes = (
{
closed = 1;
nodes = (
(928,-22,o),
(956,24,o),
(956,142,cs),
(956,304,o),
(854,500,o),
(710,500,cs),
(560,500,o),
(420,318,o),
(420,128,c),
(352,128,o),
(282,134,o),
(214,152,c),
(158,94,o),
(92,50,o),
(20,8,c),
(236,-6,o),
(490,-22,o),
(702,-22,cs)
);
},
{
closed = 1;
nodes = (
(692,234,o),
(688,238,o),
(688,248,cs),
(688,256,o),
(692,260,o),
(702,260,cs),
(710,260,o),
(714,256,o),
(714,248,cs),
(714,238,o),
(710,234,o),
(702,234,cs)
);
}
);
width = 950;
}
);
metricLeft = "=0";
metricRight = "=0";
},
{
glyphname = "meem-ar.medi";
kernLeft = meem;
layers = (
{
anchors = (
{
name = damma;
pos = (7,171);
},
{
name = entry;
pos = (380,0);
},
{
name = exit;
},
{
name = fatha;
pos = (190,402);
},
{
name = kasra;
pos = (276,-56);
}
);
backgroundImage = {
alpha = 80;
angle = -0.6;
imagePath = "images/MS-ADD-01116-000-00005.jpg";
locked = 1;
pos = (-3209,-2727);
scale = (5,5);
};
layerId = m01;
shapes = (
{
closed = 1;
nodes = (
(266,-9,o),
(380,-9,o),
(380,74,cs),
(380,243,o),
(302,351,o),
(205,351,cs),
(107,351,o),
(-3,257,o),
(18,69,cs),
(25,6,o),
(125,-7,o),
(200,-8,cs)
);
},
{
closed = 1;
nodes = (
(380,0,l),
(380,110,l),
(-20,110,l),
(-20,115,o),
(-20,8,o),
(-20,0,c)
);
},
{
closed = 1;
nodes = (
(203,167,o),
(197,173,o),
(197,180,cs),
(197,186,o),
(203,192,o),
(210,192,cs),
(216,192,o),
(222,186,o),
(222,180,cs),
(222,173,o),
(216,167,o),
(210,167,cs)
);
}
);
width = 380;
}
);
metricLeft = "=-20";
metricRight = "=0";
},
{
glyphname = "meem-ar.medi.round2";
kernLeft = meem.alt;
layers = (
{
anchors = (
{
name = damma;
pos = (-14,174);
},
{
name = entry;
pos = (398,0);
},
{
name = exit;
},
{
name = fatha;
pos = (213,400);
},
{
name = kasra;
pos = (262,-76);
}
);
layerId = m01;
shapes = (
{
closed = 1;
nodes = (
(370,-26,o),
(398,20,o),
(398,80,cs),
(398,207,o),
(314,354,o),
(212,354,cs),
(91,354,o),
(-7,221,o),
(-10,103,cs),
(-11,14,o),
(91,-26,o),
(250,-26,cs)
);
},
{
closed = 1;
nodes = (
(398,0,l),
(398,110,l),
(250,110,l),
(250,0,l)
);
},
{
closed = 1;
nodes = (
(220,154,o),
(214,160,o),
(214,167,cs),
(214,173,o),
(220,179,o),
(227,179,cs),
(233,179,o),
(239,173,o),
(239,167,cs),
(239,160,o),
(233,154,o),
(227,154,cs)
);
}
);
width = 398;
}
);
metricLeft = "=-10";
metricRight = "=0";
},
{
glyphname = "meem-ar.init";
kernLeft = meem;
layers = (
{
anchors = (
{
name = damma;
pos = (13,167);
},
{
name = exit;
},
{
name = fatha;
pos = (240,420);
},
{
name = kasra;
pos = (319,-56);
}
);
backgroundImage = {
alpha = 80;
angle = 1;
imagePath = "images/MS-ADD-01116-000-00003.jpg";
locked = 1;
pos = (-5002,-2914);
scale = (5,5);
};
layerId = m01;
shapes = (
{
closed = 1;
nodes = (
(397,-10,o),
(425,40,o),
(425,100,cs),
(425,227,o),
(341,374,o),
(239,374,cs),
(118,374,o),
(20,241,o),
(17,123,cs),
(16,34,o),
(118,-10,o),
(277,-10,cs)
);
},
{
closed = 1;
nodes = (
(249,110,l),
(-20,110,l),
(-20,0,l),
(67,0,o),
(162,-9,o),
(249,-10,c)
);
},
{
closed = 1;
nodes = (
(254,168,o),
(248,174,o),
(248,181,cs),
(248,187,o),
(254,193,o),
(261,193,cs),
(267,193,o),
(273,187,o),
(273,181,cs),
(273,174,o),
(267,168,o),
(261,168,cs)
);
}
);
width = 425;
}
);
metricLeft = "=-20";
metricRight = "=0";
},
{
glyphname = "meem-ar.init.round";
kernLeft = meem.alt;
layers = (
{
anchors = (
{
name = damma;
pos = (-21,181);
},
{
name = exit;
},
{
name = fatha;
pos = (200,411);
},
{
name = kasra;
pos = (308,-78);
}
);
backgroundImage = {
alpha = 80;
imagePath = "images/MS-ADD-01116-000-00008.jpg";
locked = 1;
pos = (-3041,-2823);
scale = (5,5);
};
layerId = m01;
shapes = (
{
closed = 1;
nodes = (
(352,-33,o),
(398,-7,o),
(398,94,cs),
(398,194,o),
(330,361,o),
(205,361,cs),
(60,361,o),
(-26,223,o),
(-7,104,cs),
(7,26,o),
(76,-35,o),
(230,-34,cs)
);
},
{
closed = 1;
nodes = (
(197,148,o),
(191,154,o),
(191,161,cs),
(191,167,o),
(197,173,o),
(204,173,cs),
(210,173,o),
(216,167,o),
(216,161,cs),
(216,154,o),
(210,148,o),
(204,148,cs)
);
}
);
width = 398;
}
);
metricLeft = "=-10";
metricRight = "=0";
},
{
glyphname = "noonghunna-ar";
layers = (
{
anchors = (
{
name = damma;
pos = (125,-51);
},
{
name = fatha;
pos = (95,332);
},
{
name = kasra;
pos = (343,-51);
},
{
name = top;
pos = (84,229);
}
);
backgroundImage = {
alpha = 80;
angle = -1;
imagePath = "images/MS-ADD-01116-000-00005.jpg";
locked = 1;
pos = (-3359,-3689);
scale = (5,5);
};
layerId = m01;
shapes = (
{
closed = 1;
nodes = (
(278,-338,o),
(288,-275,o),
(289,-233,cs),
(291,-183,o),
(300,-41,o),
(290,68,cs),
(281,180,o),
(238,267,o),
(136,290,cs),
(123,293,o),
(121,294,o),
(118,283,cs),
(108,231,o),
(59,189,o),
(12,176,cs),
(-4,172,o),
(-4,157,o),
(14,153,cs),
(132,128,o),
(182,116,o),
(198,-6,cs),
(206,-65,o),
(209,-146,o),
(202,-244,c),
(137,-248,o),
(102,-238,o),
(71,-221,cs),
(67,-218,o),
(61,-216,o),
(57,-222,cs),
(29,-264,o),
(1,-294,o),
(-23,-304,cs),
(-38,-310,o),
(-34,-322,o),
(-22,-330,cs),
(39,-372,o),
(175,-381,o),
(242,-353,cs)
);
}
);
width = 295;
}
);
metricLeft = "=0@164";
metricRight = "=0";
unicode = 1722;
},
{
glyphname = "noonghunna-ar.fina";
layers = (
{
anchors = (
{
name = damma;
pos = (117,-124);
},
{
name = entry;
pos = (250,0);
},
{
name = fatha;
pos = (87,242);
},
{
name = kasra;
pos = (335,-219);
},
{
name = top;
pos = (76,139);
}
);
backgroundImage = {
alpha = 80;
imagePath = "images/MS-ADD-01116-000-00039.jpg";
locked = 1;
pos = (-1894,-2813);
scale = (5,5);
};
layerId = m01;
shapes = (
{
closed = 1;
nodes = (
(270,-388,o),
(280,-325,o),
(281,-283,cs),
(282,-217,o),
(284,-99,o),
(282,-22,cs),
(279,90,o),
(244,141,o),
(132,204,cs),
(119,211,o),
(113,204,o),
(110,193,cs),
(97,141,o),
(59,99,o),
(12,86,cs),
(-4,82,o),
(-4,67,o),
(14,63,cs),
(132,38,o),
(192,26,o),
(194,-96,cs),
(195,-162,o),
(197,-258,o),
(189,-373,c),
(219,-294,l),
(129,-298,o),
(94,-288,o),
(63,-271,cs),
(59,-268,o),
(53,-266,o),
(49,-272,cs),
(21,-314,o),
(-7,-344,o),
(-31,-354,cs),
(-46,-360,o),
(-42,-372,o),
(-30,-380,cs),
(31,-422,o),
(167,-431,o),
(234,-403,cs)
);
}
);
width = 250;
},
{
associatedMasterId = m01;
backgroundImage = {
alpha = 80;
imagePath = "images/MS-ADD-01116-000-00008.jpg";
locked = 1;
pos = (-2815,-2823);
scale = (5,5);
};
layerId = "7BD7D871-245F-4273-9ACD-8C5C8EDBBA48";
name = "6 Apr 23 at 01:39";
shapes = (
{
closed = 1;
nodes = (
(270,-388,o),
(280,-325,o),
(281,-283,cs),
(283,-233,o),
(292,-91,o),
(282,18,cs),
(273,130,o),
(230,217,o),
(128,240,cs),
(115,243,o),
(113,244,o),
(110,233,cs),
(100,181,o),
(51,139,o),
(4,126,cs),
(-12,122,o),
(-12,107,o),
(6,103,cs),
(124,78,o),
(174,66,o),
(190,-56,cs),
(198,-115,o),
(201,-196,o),
(194,-294,c),
(129,-298,o),
(94,-288,o),
(63,-271,cs),
(59,-268,o),
(53,-266,o),
(49,-272,cs),
(21,-314,o),
(-7,-344,o),
(-31,-354,cs),
(-46,-360,o),
(-42,-372,o),
(-30,-380,cs),
(31,-422,o),
(167,-431,o),
(234,-403,cs)
);
}
);
visible = 1;
width = 250;
}
);
metricLeft = "=-0@74";
metricRight = "=-33";
},
{
glyphname = "heh-ar";
layers = (
{
anchors = (
{
name = damma;
pos = (-53,114);
},
{
name = fatha;
pos = (274,520);
},
{
name = kasra;
pos = (260,-60);
},
{
name = top;
pos = (263,433);
}
);
backgroundImage = {
alpha = 80;
imagePath = "images/MS-ADD-01116-000-00012.jpg";
locked = 1;
pos = (-3021,-3639);
scale = (5,5);
};
layerId = m01;
shapes = (
{
closed = 1;
nodes = (
(295,-8,o),
(355,6,o),
(356,64,cs),
(357,109,o),
(344,402,o),
(315,468,cs),
(303,496,o),
(290,475,o),
(288,470,cs),
(277,433,o),
(245,407,o),
(218,393,cs),
(208,388,o),
(204,381,o),
(208,369,cs),
(217,342,o),
(223,287,o),
(224,248,c),
(284,354,l),
(157,347,o),
(0,274,o),
(0,137,cs),
(0,14,o),
(149,-18,o),
(225,-13,cs)
);
},
{
closed = 1;
nodes = (
(224,152,o),
(218,158,o),
(218,165,cs),
(218,171,o),
(224,177,o),
(231,177,cs),
(237,177,o),
(243,171,o),
(243,165,cs),
(243,158,o),
(237,152,o),
(231,152,cs)
);
}
);
width = 356;
}
);
metricLeft = "=0";
metricRight = "=0";
unicode = 1607;
},
{
glyphname = "heh-ar.fina";
kernRight = beh;
layers = (
{
anchors = (
{
name = damma;
pos = (-54,176);
},
{
name = entry;
pos = (339,0);
},
{
name = fatha;
pos = (262,493);
},
{
name = kasra;
pos = (303,-52);
},
{
name = top;
pos = (268,407);
}
);
backgroundImage = {
alpha = 80;
imagePath = "images/MS-ADD-01116-000-00031.jpg";
locked = 1;
pos = (-3171,-2818);
scale = (5,5);
};
layerId = m01;
shapes = (
{
closed = 1;
nodes = (
(262,-2,o),
(309,-3,o),
(352,0,c),
(352,110,l),
(340,110,o),
(337,134,o),
(336,157,cs),
(334,234,o),
(329,378,o),
(310,442,cs),
(306,458,o),
(295,460,o),
(288,445,cs),
(276,416,o),
(264,397,o),
(239,378,cs),
(203,352,o),
(207,395,o),
(225,235,c),
(247,349,l),
(78,311,o),
(0,229,o),
(0,141,cs),
(0,48,o),
(67,3,o),
(197,0,cs)
);
},
{
closed = 1;
nodes = (
(218,154,o),
(212,160,o),
(212,167,cs),
(212,173,o),
(218,179,o),
(225,179,cs),
(231,179,o),
(237,173,o),
(237,167,cs),
(237,160,o),
(231,154,o),
(225,154,cs)
);
}
);
width = 339;
},
{
anchors = (
{
name = damma;
pos = (-74,176);
},
{
name = fatha;
pos = (262,513);
},
{
name = kasra;
pos = (213,-72);
},
{
name = top;
pos = (249,395);
}
);
associatedMasterId = m01;
backgroundImage = {
alpha = 80;
imagePath = "images/MS-ADD-01116-000-00031.jpg";
locked = 1;
pos = (-3171,-2818);
scale = (5,5);
};
layerId = "9DD22380-8ECD-46EF-8F43-C94BB99A59B0";
name = "26 Feb 23 at 01:48";
shapes = (
{
closed = 1;
nodes = (
(360,0,l),
(360,110,l),
(348,110,o),
(346,134,o),
(344,157,cs),
(338,234,o),
(326,380,o),
(317,449,cs),
(315,468,o),
(296,466,o),
(292,453,cs),
(284,424,o),
(254,382,o),
(235,376,cs),
(222,372,o),
(219,364,o),
(220,354,cs),
(225,303,o),
(235,174,o),
(240,110,c),
(201,110,l),
(201,0,l)
);
}
);
width = 352;
},
{
associatedMasterId = m01;
backgroundImage = {
alpha = 80;
imagePath = "images/MS-ADD-01116-000-00031.jpg";
locked = 1;
pos = (-3171,-2818);
scale = (5,5);
};
layerId = "9EC9D13F-BB79-4F49-B981-825D4AE87993";
name = "4 Apr 23 at 00:20";
shapes = (
{
alignment = -1;
pos = (211,0);
ref = "behDotless-ar.medi.high";
}
);
visible = 1;
width = 339;
}
);
metricLeft = "=0";
metricRight = "=3@157";
},
{
glyphname = "heh-ar.medi.round";
kernRight = beh;
layers = (
{
anchors = (
{
name = damma;
pos = (-35,168);
},
{
name = entry;
pos = (323,0);
},
{
name = exit;
},
{
name = fatha;
pos = (233,520);
},
{
name = kasra;
pos = (235,-61);
}
);
layerId = m01;
shapes = (
{
closed = 1;
nodes = (
(283,-11,o),
(335,51,o),
(336,110,c),
(324,110,o),
(321,134,o),
(320,157,cs),
(318,234,o),
(303,453,o),
(298,470,cs),
(295,482,o),
(278,484,o),
(272,470,cs),
(261,442,o),
(228,417,o),
(204,407,cs),
(196,403,o),
(194,394,o),
(195,388,cs),
(197,378,o),
(198,356,o),
(204,332,c),
(204,385,l),
(137,368,o),
(55,326,o),
(18,275,cs),
(-20,223,o),
(-42,152,o),
(11,76,cs),
(52,16,o),
(125,-5,o),
(204,-8,c)
);
},
{
closed = 1;
nodes = (
(336,0,l),
(336,110,l),
(200,110,l),
(200,0,l)
);
},
{
closed = 1;
nodes = (
(188,131,o),
(183,137,o),
(183,144,cs),
(183,150,o),
(190,156,o),
(197,156,cs),
(203,155,o),
(208,149,o),
(208,143,cs),
(208,136,o),
(201,130,o),
(195,131,cs)
);
},
{
closed = 1;
nodes = (
(183,240,o),
(177,246,o),
(178,253,cs),
(178,259,o),
(184,265,o),
(191,265,cs),
(197,264,o),
(203,258,o),
(203,252,cs),
(202,245,o),
(196,239,o),
(190,240,cs)
);
}
);
width = 323;
},
{
associatedMasterId = m01;
layerId = "11346B3D-01EF-4CA3-AA0C-4E15A6679D04";
name = "4 Apr 23 at 00:19";
shapes = (
{
alignment = -1;
pos = (195,0);
ref = "behDotless-ar.medi.high";
}
);
visible = 1;
width = 323;
}
);
metricLeft = "=meem-ar.medi.round";
metricRight = "=3@157";
},
{
glyphname = "heh-ar.init.round";
layers = (
{
anchors = (
{
name = damma;
pos = (-33,169);
},
{
name = exit;
},
{
name = fatha;
pos = (214,524);
},
{
name = kasra;
pos = (239,-61);
}
);
layerId = m01;
shapes = (
{
closed = 1;
nodes = (
(293,-4,o),
(329,35,o),
(327,94,cs),
(323,207,o),
(270,455,o),
(263,476,cs),
(259,488,o),
(242,489,o),
(237,475,cs),
(227,446,o),
(196,420,o),
(172,408,cs),
(164,404,o),
(161,398,o),
(163,393,cs),
(169,382,o),
(173,360,o),
(180,337,c),
(193,387,l),
(127,367,o),
(48,321,o),
(13,268,cs),
(-22,214,o),
(-40,142,o),
(17,69,cs),
(61,11,o),
(135,-6,o),
(214,-5,c)
);
},
{
closed = 1;
nodes = (
(191,133,o),
(185,139,o),
(185,146,cs),
(185,152,o),
(191,158,o),
(198,158,cs),
(204,158,o),
(210,152,o),
(210,146,cs),
(210,139,o),
(204,133,o),
(198,133,cs)
);
},
{
closed = 1;
nodes = (
(170,241,o),
(164,247,o),
(164,254,cs),
(164,260,o),
(170,266,o),
(177,266,cs),
(183,266,o),
(189,260,o),
(189,254,cs),
(189,247,o),
(183,241,o),
(177,241,cs)
);
}
);
width = 327;
}
);
metricLeft = "=meem-ar.medi.alt";
metricRight = "=0";
},
{
glyphname = "waw-ar";
layers = (
{
anchors = (
{
name = damma;
pos = (-42,54);
},
{
name = fatha;
pos = (281,459);
},
{
name = hamzaabove;
pos = (63,284);
},
{
name = kasra;
pos = (259,-104);
}
);
backgroundImage = {
alpha = 80;
imagePath = "images/MS-ADD-01116-000-00003.jpg";
locked = 1;
pos = (-5778,-2825);
scale = (5,5);
};
layerId = m01;
shapes = (
{
closed = 1;
nodes = (
(339,-54,o),
(452,-32,o),
(491,24,cs),
(505,44,o),
(509,68,o),
(509,98,cs),
(509,189,o),
(430,403,o),
(289,403,cs),
(193,403,o),
(114,317,o),
(114,214,cs),
(114,76,o),
(235,57,o),
(378,83,cs),
(391,85,o),
(393,68,o),
(377,65,cs),
(334,57,o),
(214,44,o),
(131,91,cs),
(120,97,o),
(104,107,o),
(97,95,cs),
(84,72,o),
(39,31,o),
(18,31,cs),
(7,31,o),
(-8,22,o),
(6,8,cs),
(52,-38,o),
(155,-61,o),
(260,-57,cs)
);
},
{
closed = 1;
nodes = (
(270,243,o),
(264,249,o),
(264,256,cs),
(264,262,o),
(270,268,o),
(277,268,cs),
(283,268,o),
(289,262,o),
(289,256,cs),
(289,249,o),
(283,243,o),
(277,243,cs)
);
}
);
width = 509;
}
);
metricLeft = "=0";
metricRight = "=0";
unicode = 1608;
},
{
glyphname = "waw-ar.fina";
layers = (
{
anchors = (
{
name = damma;
pos = (-10,40);
},
{
name = entry;
pos = (472,0);
},
{
name = fatha;
pos = (283,385);
},
{
name = hamzaabove;
pos = (77,215);
},
{
name = kasra;
pos = (261,-188);
}
);
backgroundImage = {
alpha = 80;
angle = -1;
imagePath = "images/MS-ADD-01116-000-00005.jpg";
locked = 1;
pos = (-5640,-3663);
scale = (5,5);
};
layerId = m01;
shapes = (
{
closed = 1;
nodes = (
(410,-138,o),
(522,-125,o),
(522,0,c),
(522,109,l),
(499,109,o),
(486,126,o),
(480,143,cs),
(472,165,o),
(464,217,o),
(431,260,cs),
(394,308,o),
(361,332,o),
(290,332,cs),
(177,332,o),
(125,224,o),
(125,137,cs),
(125,-3,o),
(237,-17,o),
(380,-6,cs),
(393,-5,o),
(395,-21,o),
(379,-24,cs),
(350,-29,o),
(198,-36,o),
(131,24,cs),
(122,32,o),
(106,42,o),
(99,30,cs),
(86,7,o),
(37,-33,o),
(16,-33,cs),
(5,-33,o),
(-7,-41,o),
(4,-56,cs),
(45,-112,o),
(118,-138,o),
(262,-138,cs)
);
},
{
closed = 1;
nodes = (
(303,147,o),
(297,153,o),
(297,160,cs),
(297,166,o),
(303,172,o),
(310,172,cs),
(316,172,o),
(322,166,o),
(322,160,cs),
(322,153,o),
(316,147,o),
(310,147,cs)
);
}
);
width = 472;
}
);
metricLeft = "=waw-ar";
metricRight = "=-50";
},
{
glyphname = "alefMaksura-ar";
layers = (
{
anchors = (
{
name = bottom;
pos = (387,-146);
},
{
name = damma;
pos = (-77,0);
},
{
name = fatha;
pos = (131,351);
},
{
name = kasra;
pos = (230,-246);
}
);
backgroundImage = {
alpha = 80;
angle = -0.6;
imagePath = "images/MS-ADD-01116-000-00049.jpg";
pos = (-3980,-1797);
scale = (5,5);
};
layerId = m01;
shapes = (
{
closed = 1;
nodes = (
(390,-159,o),
(401,-124,o),
(392,-67,cs),
(383,-14,o),
(359,27,o),
(345,53,cs),
(338,65,o),
(337,71,o),
(314,68,cs),
(205,54,o),
(148,78,o),
(123,104,cs),
(113,114,o),
(122,122,o),
(129,117,cs),
(166,91,o),
(236,74,o),
(282,87,cs),
(312,95,o),
(325,148,o),
(328,204,c),
(309,199,o),
(296,194,o),
(281,209,cs),
(235,253,o),
(205,304,o),
(165,304,cs),
(87,304,o),
(0,215,o),
(0,88,cs),
(0,-12,o),
(71,-75,o),
(248,-57,cs),
(262,-56,o),
(261,-64,o),
(264,-69,c),
(177,-81,o),
(89,-69,o),
(39,-40,cs),
(27,-33,o),
(19,-43,o),
(12,-54,cs),
(-4,-81,o),
(-34,-116,o),
(-51,-116,cs),
(-69,-116,o),
(-71,-128,o),
(-60,-141,cs),
(-1,-209,o),
(242,-195,o),
(350,-169,cs)
);
}
);
width = 395;
}
);
metricLeft = "=0@88";
metricRight = "=0";
unicode = 1609;
},
{
glyphname = "alefMaksura-ar.salt";
layers = (
{
anchors = (
{
name = bottom;
pos = (296,-337);
},
{
name = damma;
pos = (-54,74);
},
{
name = fatha;
pos = (131,351);
},
{
name = kasra;
pos = (360,-115);
}
);
backgroundImage = {
alpha = 80;
angle = -1.5;
imagePath = "images/MS-ADD-01116-000-00029.jpg";
locked = 1;
pos = (-5959,-3599);
scale = (5,5);
};
layerId = m01;
shapes = (
{
closed = 1;
nodes = (
(277,-337,o),
(312,-311,o),
(312,-251,cs),
(312,-220,o),
(306,-178,o),
(304,-128,cs),
(303,-75,o),
(298,-21,o),
(301,37,cs),
(301,48,o),
(298,60,o),
(276,60,cs),
(211,60,o),
(148,78,o),
(123,104,cs),
(113,114,o),
(122,122,o),
(129,117,cs),
(166,91,o),
(236,74,o),
(282,87,cs),
(312,95,o),
(325,148,o),
(328,204,c),
(309,199,o),
(296,194,o),
(281,209,cs),
(235,253,o),
(205,304,o),
(165,304,cs),
(87,304,o),
(0,215,o),
(0,88,cs),
(0,-12,o),
(72,-61,o),
(236,-55,c),
(206,-50,l),
(227,-76,o),
(221,-176,o),
(220,-247,c),
(236,-226,l),
(176,-233,o),
(128,-230,o),
(78,-213,cs),
(65,-209,o),
(58,-216,o),
(51,-227,cs),
(35,-254,o),
(5,-289,o),
(-12,-289,cs),
(-30,-289,o),
(-34,-305,o),
(-21,-314,cs),
(31,-350,o),
(152,-356,o),
(237,-343,cs)
);
}
);
width = 328;
}
);
metricLeft = "=0@88";
metricRight = "=0";
},
{
glyphname = "alefMaksura-ar.fina";
layers = (
{
anchors = (
{
name = bottom;
pos = (376,-235);
},
{
name = damma;
pos = (-53,1);
},
{
name = entry;
pos = (282,0);
},
{
name = fatha;
pos = (131,274);
},
{
name = kasra;
pos = (230,-333);
}
);
backgroundImage = {
alpha = 80;
angle = -0.6;
imagePath = "images/MS-ADD-01116-000-00049.jpg";
locked = 1;
pos = (-3978,-1881);
scale = (5,5);
};
layerId = m01;
shapes = (
{
closed = 1;
nodes = (
(382,-249,o),
(393,-214,o),
(384,-157,cs),
(375,-104,o),
(351,-63,o),
(337,-37,cs),
(330,-25,o),
(329,-22,o),
(306,-22,cs),
(252,-23,o),
(148,-24,o),
(123,17,cs),
(116,29,o),
(122,37,o),
(133,26,cs),
(166,-5,o),
(208,0,o),
(282,0,c),
(282,110,l),
(240,123,o),
(220,216,o),
(165,217,cs),
(77,219,o),
(0,128,o),
(0,30,cs),
(0,-99,o),
(83,-156,o),
(244,-147,cs),
(258,-146,o),
(257,-154,o),
(260,-159,c),
(173,-171,o),
(81,-159,o),
(31,-130,cs),
(19,-123,o),
(11,-133,o),
(4,-144,cs),
(-12,-171,o),
(-42,-206,o),
(-59,-206,cs),
(-77,-206,o),
(-79,-218,o),
(-68,-231,cs),
(-9,-299,o),
(234,-285,o),
(342,-259,cs)
);
}
);
width = 282;
}
);
metricLeft = "=0@30";
metricRight = "=0@0";
},
{
glyphname = "alefMaksura-ar.fina.salt";
layers = (
{
anchors = (
{
name = bottom;
pos = (296,-424);
},
{
name = damma;
pos = (-54,-13);
},
{
name = entry;
pos = (282,0);
},
{
name = fatha;
pos = (131,264);
},
{
name = kasra;
pos = (360,-202);
}
);
backgroundImage = {
alpha = 80;
imagePath = "images/MS-ADD-01116-000-00017.jpg";
locked = 1;
pos = (-4013,-2786);
scale = (5,5);
};
layerId = m01;
shapes = (
{
closed = 1;
nodes = (
(277,-424,o),
(312,-398,o),
(312,-338,cs),
(312,-307,o),
(306,-265,o),
(304,-215,cs),
(303,-162,o),
(298,-108,o),
(301,-50,cs),
(301,-39,o),
(298,-27,o),
(276,-27,cs),
(211,-27,o),
(148,-9,o),
(123,17,cs),
(113,27,o),
(122,35,o),
(129,30,cs),
(166,4,o),
(173,-2,o),
(282,0,c),
(282,110,l),
(241,107,o),
(201,212,o),
(161,212,cs),
(83,212,o),
(0,138,o),
(0,11,cs),
(0,-89,o),
(72,-148,o),
(236,-142,c),
(206,-137,l),
(227,-163,o),
(221,-263,o),
(220,-334,c),
(236,-313,l),
(176,-320,o),
(128,-317,o),
(78,-300,cs),
(65,-296,o),
(58,-303,o),
(51,-314,cs),
(35,-341,o),
(5,-376,o),
(-12,-376,cs),
(-30,-376,o),
(-34,-392,o),
(-21,-401,cs),
(31,-437,o),
(152,-443,o),
(237,-430,cs)
);
}
);
width = 282;
}
);
metricLeft = "=0@11";
metricRight = "=0@0";
},
{
glyphname = "alefMaksura-ar.fina.wide";
layers = (
{
anchors = (
{
name = bottom;
pos = (423,-240);
},
{
name = damma;
pos = (-53,1);
},
{
name = entry;
pos = (267,0);
},
{
name = fatha;
pos = (131,274);
},
{
name = kasra;
pos = (230,-323);
}
);
backgroundImage = {
alpha = 80;
angle = -0.6;
imagePath = "images/MS-ADD-01116-000-00049.jpg";
locked = 1;
pos = (-3978,-1881);
scale = (5,5);
};
layerId = m01;
shapes = (
{
closed = 1;
nodes = (
(437,-246,o),
(448,-211,o),
(439,-154,cs),
(430,-101,o),
(406,-60,o),
(392,-34,cs),
(385,-22,o),
(384,-18,o),
(361,-19,cs),
(252,-26,o),
(148,-24,o),
(123,17,cs),
(116,29,o),
(122,37,o),
(133,26,cs),
(166,-5,o),
(208,0,o),
(282,0,c),
(282,110,l),
(240,123,o),
(220,216,o),
(165,217,cs),
(77,219,o),
(0,128,o),
(0,30,cs),
(0,-114,o),
(102,-162,o),
(295,-144,cs),
(309,-143,o),
(308,-151,o),
(311,-156,c),
(178,-174,o),
(89,-156,o),
(39,-127,cs),
(27,-120,o),
(19,-130,o),
(12,-141,cs),
(-4,-168,o),
(-34,-203,o),
(-51,-203,cs),
(-69,-203,o),
(-71,-215,o),
(-60,-228,cs),
(-1,-296,o),
(289,-282,o),
(397,-256,cs)
);
}
);
width = 267;
}
);
metricLeft = "=0@30";
metricRight = "=-15@0";
},
{
glyphname = "alefMaksura-ar.fina.wide.salt";
layers = (
{
anchors = (
{
name = bottom;
pos = (369,-411);
},
{
name = damma;
pos = (-44,-13);
},
{
name = entry;
pos = (282,0);
},
{
name = fatha;
pos = (131,254);
},
{
name = kasra;
pos = (440,-202);
}
);
backgroundImage = {
alpha = 80;
imagePath = "images/MS-ADD-01116-000-00017.jpg";
locked = 1;
pos = (-4013,-2786);
scale = (5,5);
};
layerId = m01;
shapes = (
{
closed = 1;
nodes = (
(362,-430,o),
(397,-398,o),
(397,-338,cs),
(397,-307,o),
(391,-265,o),
(389,-215,cs),
(388,-162,o),
(389,-108,o),
(382,-50,cs),
(381,-39,o),
(375,-19,o),
(353,-19,cs),
(198,-19,o),
(164,-17,o),
(123,22,cs),
(112,32,o),
(122,38,o),
(129,33,cs),
(152,17,o),
(171,2,o),
(212,0,cs),
(230,-1,o),
(253,-1,o),
(282,0,c),
(282,110,l),
(241,107,o),
(201,212,o),
(161,212,cs),
(83,212,o),
(0,138,o),
(0,11,cs),
(0,-107,o),
(101,-165,o),
(335,-128,c),
(262,-129,l),
(296,-130,o),
(301,-252,o),
(300,-334,c),
(328,-321,l),
(231,-341,o),
(171,-337,o),
(103,-314,cs),
(90,-310,o),
(83,-317,o),
(76,-328,cs),
(60,-355,o),
(30,-390,o),
(13,-390,cs),
(-5,-390,o),
(-9,-406,o),
(4,-415,cs),
(56,-453,o),
(237,-452,o),
(322,-437,cs)
);
}
);
width = 282;
}
);
metricLeft = "=0@11";
metricRight = "=0@10";
},
{
glyphname = "alefMaksura-ar.fina.tooth";
layers = (
{
anchors = (
{
name = bottom;
pos = (348,-230);
},
{
name = damma;
pos = (-88,-82);
},
{
name = entry;
pos = (5,0);
},
{
name = fatha;
pos = (-83,272);
},
{
name = kasra;
pos = (197,-308);
}
);
backgroundImage = {
alpha = 80;
imagePath = "images/MS-ADD-01116-000-00018.jpg";
locked = 1;
pos = (-3154,-2556);
scale = (5,5);
};
layerId = m01;
shapes = (
{
closed = 1;
nodes = (
(353,-240,o),
(364,-205,o),
(355,-148,cs),
(346,-95,o),
(334,-62,o),
(320,-36,cs),
(313,-24,o),
(312,-20,o),
(289,-21,cs),
(177,-26,o),
(157,-20,o),
(138,-17,cs),
(119,-14,o),
(119,-5,o),
(119,0,c),
(119,57,l),
(0,57,l),
(0,0,l),
(0,-107,o),
(19,-151,o),
(221,-142,cs),
(235,-141,o),
(234,-149,o),
(237,-154,c),
(144,-166,o),
(56,-156,o),
(6,-127,cs),
(-6,-120,o),
(-14,-130,o),
(-21,-141,cs),
(-37,-168,o),
(-67,-198,o),
(-84,-198,cs),
(-102,-198,o),
(-105,-211,o),
(-93,-223,cs),
(-34,-279,o),
(205,-276,o),
(313,-250,cs)
);
}
);
width = 358;
}
);
metricLeft = "=0@0";
metricRight = "=0";
},
{
glyphname = "yehbarree-ar";
layers = (
{
anchors = (
{
name = bottom;
pos = (486,-45);
},
{
name = damma;
pos = (-54,152);
},
{
name = fatha;
pos = (150,401);
},
{
name = kasra;
pos = (286,-54);
}
);
backgroundImage = {
alpha = 80;
angle = 0.2;
imagePath = "images/MS-ADD-01116-000-00058.jpg";
locked = 1;
pos = (-3053,-3591);
scale = (5,5);
};
layerId = m01;
shapes = (
{
closed = 1;
nodes = (
(583,-7,o),
(887,-3,o),
(991,24,cs),
(1034,35,o),
(1052,52,o),
(1065,104,cs),
(1068,117,o),
(1064,122,o),
(1056,120,cs),
(901,76,o),
(479,82,o),
(320,98,cs),
(184,112,o),
(137,148,o),
(112,174,cs),
(102,184,o),
(112,198,o),
(118,192,cs),
(155,150,o),
(238,114,o),
(284,127,cs),
(314,135,o),
(351,176,o),
(347,244,c),
(328,239,o),
(307,234,o),
(292,249,cs),
(246,293,o),
(216,343,o),
(173,344,cs),
(97,345,o),
(0,255,o),
(0,144,cs),
(0,32,o),
(123,-7,o),
(383,-7,cs)
);
},
{
closed = 0;
nodes = (
(491,193,l)
);
}
);
width = 1066;
}
);
metricLeft = "=0";
metricRight = "=0";
unicode = 1746;
},
{
glyphname = "yehbarree-ar.fina";
layers = (
{
anchors = (
{
name = bottom;
pos = (486,-160);
},
{
name = damma;
pos = (-54,37);
},
{
name = entry;
pos = (312,0);
},
{
name = fatha;
pos = (150,276);
},
{
name = kasra;
pos = (286,-169);
}
);
backgroundImage = {
alpha = 80;
angle = -1.5;
imagePath = "images/MS-ADD-01116-000-00029.jpg";
locked = 1;
pos = (-2646,-2721);
scale = (5,5);
};
layerId = m01;
shapes = (
{
closed = 1;
nodes = (
(583,-124,o),
(887,-105,o),
(952,-95,cs),
(1011,-86,o),
(1029,-64,o),
(1065,-21,cs),
(1074,-11,o),
(1064,-3,o),
(1056,-5,cs),
(901,-36,o),
(471,-41,o),
(312,-22,cs),
(194,-8,o),
(177,14,o),
(146,35,cs),
(134,43,o),
(143,59,o),
(155,50,cs),
(196,22,o),
(227,-1,o),
(312,0,c),
(312,110,l),
(268,148,o),
(247,225,o),
(177,225,cs),
(96,225,o),
(2,128,o),
(0,29,cs),
(-3,-95,o),
(123,-124,o),
(383,-124,cs)
);
}
);
width = 1069;
}
);
metricLeft = "=0";
metricRight = "=0";
},
{
glyphname = "yehbarree-ar.fina.baseline";
layers = (
{
anchors = (
{
name = bottom;
pos = (486,-43);
},
{
name = damma;
pos = (-54,154);
},
{
name = entry;
pos = (267,115);
},
{
name = fatha;
pos = (121,383);
},
{
name = kasra;
pos = (286,-52);
}
);
backgroundImage = {
alpha = 80;
angle = -1.5;
imagePath = "images/MS-ADD-01116-000-00029.jpg";
locked = 1;
pos = (-2646,-2604);
scale = (5,5);
};
layerId = m01;
shapes = (
{
closed = 1;
nodes = (
(583,-4,o),
(905,14,o),
(1010,37,cs),
(1065,49,o),
(1090,76,o),
(1130,120,cs),
(1139,130,o),
(1129,138,o),
(1121,136,cs),
(964,91,o),
(464,84,o),
(317,87,cs),
(182,90,o),
(138,109,o),
(123,132,cs),
(115,144,o),
(122,152,o),
(133,141,cs),
(166,110,o),
(208,115,o),
(282,115,c),
(282,225,l),
(240,238,o),
(220,331,o),
(165,332,cs),
(77,334,o),
(-1,244,o),
(0,146,cs),
(1,23,o),
(123,-4,o),
(382,-4,cs)
);
}
);
width = 1134;
},
{
anchors = (
{
name = bottom;
pos = (486,-43);
},
{
name = damma;
pos = (-54,154);
},
{
name = fatha;
pos = (170,399);
},
{
name = kasra;
pos = (286,-52);
}
);
associatedMasterId = m01;
backgroundImage = {
alpha = 80;
angle = -1.5;
imagePath = "images/MS-ADD-01116-000-00029.jpg";
locked = 1;
pos = (-2646,-2604);
scale = (5,5);
};
layerId = "7520CDAC-461E-4D3E-90DA-0D6711E233E9";
name = "13 Mar 23 at 12:22";
shapes = (
{
closed = 1;
nodes = (
(583,-4,o),
(905,14,o),
(1010,37,cs),
(1065,49,o),
(1090,76,o),
(1130,120,cs),
(1139,130,o),
(1129,138,o),
(1121,136,cs),
(966,92,o),
(478,82,o),
(319,98,cs),
(222,108,o),
(172,134,o),
(141,155,cs),
(128,163,o),
(137,178,o),
(149,170,cs),
(198,137,o),
(247,120,o),
(346,118,c),
(346,228,l),
(258,230,o),
(278,346,o),
(173,346,cs),
(97,346,o),
(-1,245,o),
(0,149,cs),
(1,23,o),
(123,-4,o),
(383,-4,cs)
);
}
);
visible = 1;
width = 1134;
}
);
metricLeft = "=0";
metricRight = "=0";
},
{
glyphname = "kashida-ar.1";
layers = (
{
anchors = (
{
name = entry;
pos = (100,0);
},
{
name = exit;
}
);
layerId = m01;
shapes = (
{
closed = 1;
nodes = (
(20,0,o),
(60,0,o),
(100,0,c),
(100,110,l),
(60,110,o),
(20,110,o),
(-20,110,c),
(-20,0,l)
);
}
);
width = 100;
},
{
anchors = (
{
name = entry;
pos = (6000,0);
},
{
name = exit;
}
);
associatedMasterId = m01;
attr = {
coordinates = (
0,
100
);
};
layerId = "200AAD3F-109F-4B5F-B6CA-7BA661F2BEFA";
name = "17 May 23 at 02:27";
shapes = (
{
closed = 1;
nodes = (
(1987,-13,o),
(3993,-13,o),
(6000,0,c),
(6000,110,l),
(3993,94,o),
(587,94,o),
(-20,110,c),
(-20,0,l)
);
}
);
width = 6000;
}
);
metricLeft = "=-20";
metricRight = "=0";
},
{
glyphname = "lam_lam_heh-ar";
layers = (
{
anchors = (
{
name = caret_1;
pos = (345,0);
},
{
name = caret_2;
pos = (467,0);
},
{
name = damma_3;
pos = (-78,131);
},
{
name = fatha_1;
pos = (498,809);
},
{
name = fatha_2;
pos = (339,698);
},
{
name = fatha_3;
pos = (261,452);
},
{
name = kasra_1;
pos = (547,-67);
},
{
name = kasra_2;
pos = (414,-66);
},
{
name = kasra_3;
pos = (243,-66);
}
);
backgroundImage = {
alpha = 80;
angle = -0.1;
imagePath = "images/MS-ADD-01116-000-00003.jpg";
locked = 1;
pos = (-2708,-1867);
scale = (5,5);
};
layerId = m01;
shapes = (
{
closed = 1;
nodes = (
(312,-6,o),
(359,-7,o),
(452,-6,cs),
(558,-5,o),
(577,9,o),
(572,116,cs),
(565,263,o),
(551,587,o),
(540,783,cs),
(539,806,o),
(522,812,o),
(512,793,cs),
(500,770,o),
(463,734,o),
(438,715,cs),
(429,708,o),
(437,692,o),
(442,632,cs),
(450,521,o),
(461,255,o),
(475,121,c),
(470,119,o),
(461,119,o),
(459,133,cs),
(439,286,o),
(436,595,o),
(407,703,cs),
(398,735,o),
(376,719,o),
(373,707,cs),
(366,678,o),
(348,649,o),
(322,637,cs),
(309,631,o),
(293,629,o),
(300,609,cs),
(304,596,o),
(313,571,o),
(318,541,cs),
(327,491,o),
(350,252,o),
(353,119,c),
(348,116,o),
(336,121,o),
(335,135,cs),
(329,217,o),
(326,302,o),
(312,375,cs),
(305,409,o),
(283,435,o),
(269,400,cs),
(261,381,o),
(253,370,o),
(233,345,cs),
(222,332,o),
(208,327,o),
(209,318,cs),
(210,311,l),
(93,308,o),
(2,231,o),
(0,140,cs),
(-2,57,o),
(64,-6,o),
(217,-6,cs)
);
},
{
closed = 1;
nodes = (
(209,135,o),
(203,141,o),
(203,148,cs),
(203,154,o),
(209,160,o),
(216,160,cs),
(222,160,o),
(228,154,o),
(228,148,cs),
(228,141,o),
(222,135,o),
(216,135,cs)
);
}
);
width = 573;
}
);
metricLeft = "=0";
metricRight = "=0";
},
{
glyphname = "lam_alef-ar";
layers = (
{
anchors = (
{
name = caret_1;
pos = (248,0);
},
{
name = damma_1;
pos = (85,246);
},
{
name = damma_2;
pos = (-65,19);
},
{
name = fatha_1;
pos = (-85,638);
},
{
name = fatha_2;
pos = (427,674);
},
{
name = hamzaabove_2;
pos = (427,674);
},
{
name = hamzabelow_2;
pos = (91,-84);
},
{
name = kasra_1;
pos = (477,-79);
},
{
name = kasra_2;
pos = (91,-84);
},
{
name = madda_2;
pos = (224,640);
}
);
backgroundImage = {
alpha = 80;
angle = 1;
imagePath = "images/MS-ADD-01116-000-00007.jpg";
locked = 1;
pos = (-2576,-2971);
scale = (5,5);
};
layerId = m01;
shapes = (
{
closed = 1;
nodes = (
(546,18,o),
(561,55,o),
(508,102,cs),
(383,212,o),
(221,387,o),
(61,743,cs),
(55,757,o),
(46,756,o),
(41,744,cs),
(25,703,o),
(1,683,o),
(-24,663,cs),
(-36,654,o),
(-34,643,o),
(-29,633,cs),
(54,456,o),
(202,221,o),
(322,109,c),
(294,102,o),
(236,104,o),
(212,110,c),
(320,268,o),
(375,533,o),
(366,786,cs),
(365,811,o),
(350,815,o),
(343,789,cs),
(336,764,o),
(308,728,o),
(280,710,cs),
(272,705,o),
(271,693,o),
(272,676,cs),
(287,383,o),
(216,283,o),
(31,47,cs),
(19,32,o),
(-33,-18,o),
(32,-29,cs),
(107,-42,o),
(362,-63,o),
(500,-2,cs)
);
},
{
closed = 1;
nodes = (
(269,107,o),
(263,113,o),
(263,120,cs),
(263,126,o),
(269,132,o),
(276,132,cs),
(282,132,o),
(288,126,o),
(288,120,cs),
(288,113,o),
(282,107,o),
(276,107,cs)
);
},
{
closed = 0;
nodes = (
(309,186,l)
);
},
{
closed = 1;
nodes = (
(195,75,l),
(331,75,l),
(331,185,l),
(195,185,l)
);
}
);
width = 542;
},
{
anchors = (
{
name = caret_1;
pos = (281,0);
},
{
name = fatha_1;
pos = (-70,666);
},
{
name = fatha_2;
pos = (482,697);
},
{
name = hamzaabove_2;
pos = (482,697);
},
{
name = hamzabelow_2;
pos = (109,-104);
},
{
name = kasra_1;
pos = (495,-99);
},
{
name = kasra_2;
pos = (109,-104);
}
);
associatedMasterId = m01;
backgroundImage = {
alpha = 80;
imagePath = "images/MS-ADD-01116-000-00003.jpg";
locked = 1;
pos = (-4741,-1855);
scale = (5,5);
};
layerId = "76779272-CB8B-466A-A2BB-8224AB3C03F1";
name = "11 Mar 23 at 17:24";
shapes = (
{
closed = 1;
nodes = (
(543,-12,o),
(578,27,o),
(538,77,cs),
(470,163,o),
(404,242,o),
(341,328,c),
(379,453,o),
(399,588,o),
(399,757,cs),
(399,782,o),
(387,785,o),
(374,767,cs),
(353,737,o),
(331,715,o),
(303,697,cs),
(295,692,o),
(295,682,o),
(297,665,cs),
(307,590,o),
(302,489,o),
(281,413,c),
(214,515,o),
(150,628,o),
(91,771,cs),
(85,785,o),
(76,784,o),
(71,772,cs),
(55,731,o),
(34,701,o),
(9,681,cs),
(-3,672,o),
(-1,661,o),
(4,651,cs),
(64,519,o),
(126,390,o),
(204,274,c),
(142,190,o),
(60,90,o),
(27,30,c),
(6,27,o),
(-1,4,o),
(15,-2,cs),
(124,-42,o),
(340,-50,o),
(500,-20,cs)
);
},
{
closed = 1;
nodes = (
(281,131,o),
(275,137,o),
(275,144,cs),
(275,150,o),
(281,156,o),
(288,156,cs),
(294,156,o),
(300,150,o),
(300,144,cs),
(300,137,o),
(294,131,o),
(288,131,cs)
);
}
);
width = 556;
}
);
metricLeft = "=0@0";
metricRight = "=0";
},
{
glyphname = "lam_alef-ar.fina";
layers = (
{
anchors = (
{
name = caret_1;
pos = (217,0);
},
{
name = damma_1;
pos = (56,289);
},
{
name = damma_2;
pos = (-62,61);
},
{
name = entry;
pos = (510,0);
},
{
name = fatha_1;
pos = (-34,592);
},
{
name = fatha_2;
pos = (410,645);
},
{
name = hamzaabove_2;
pos = (410,645);
},
{
name = hamzabelow_2;
pos = (96,-43);
},
{
name = kasra_1;
pos = (412,-58);
},
{
name = kasra_2;
pos = (96,-43);
},
{
name = madda_2;
pos = (224,657);
}
);
backgroundImage = {
alpha = 80;
angle = 2;
crop = (0,0,1500,1189);
imagePath = "images/MS-ADD-01116-000-00040.jpg";
locked = 1;
pos = (-1185,-1749);
scale = (5,5);
};
layerId = m01;
shapes = (
{
closed = 1;
nodes = (
(540,110,l),
(391,124,o),
(158,607,o),
(97,756,cs),
(91,770,o),
(81,769,o),
(75,757,cs),
(57,720,o),
(36,698,o),
(11,678,cs),
(-1,669,o),
(1,658,o),
(6,648,cs),
(51,554,o),
(155,345,o),
(238,230,c),
(271,311,l),
(313,448,o),
(357,619,o),
(357,761,cs),
(357,785,o),
(349,788,o),
(337,770,cs),
(317,740,o),
(291,701,o),
(266,697,cs),
(254,695,o),
(255,685,o),
(255,670,cs),
(255,335,o),
(78,178,o),
(8,77,c),
(-3,61,o),
(-3,56,o),
(7,43,c),
(24,20,o),
(62,5,o),
(122,3,cs),
(232,-1,o),
(386,0,o),
(510,0,c)
);
},
{
closed = 1;
nodes = (
(236,177,o),
(230,183,o),
(230,190,cs),
(230,196,o),
(236,202,o),
(243,202,cs),
(249,202,o),
(255,196,o),
(255,190,cs),
(255,183,o),
(249,177,o),
(243,177,cs)
);
}
);
width = 510;
},
{
anchors = (
{
name = caret_1;
pos = (247,0);
},
{
name = fatha_1;
pos = (-43,624);
},
{
name = fatha_2;
pos = (438,580);
},
{
name = hamzaabove_2;
pos = (438,580);
},
{
name = hamzabelow_2;
pos = (104,-68);
},
{
name = kasra_1;
pos = (420,-63);
},
{
name = kasra_2;
pos = (104,-68);
}
);
associatedMasterId = m01;
backgroundImage = {
alpha = 80;
angle = 1.2;
imagePath = "images/MS-ADD-01116-000-00040.jpg";
locked = 1;
pos = (-1205,-1737);
scale = (5,5);
};
layerId = "66AE186A-69C6-435E-A8EC-C227B24BF435";
name = "11 Mar 23 at 18:19";
shapes = (
{
closed = 1;
nodes = (
(518,110,l),
(429,135,o),
(337,307,o),
(279,400,cs),
(213,507,o),
(149,653,o),
(108,760,cs),
(103,774,o),
(94,773,o),
(89,761,cs),
(73,720,o),
(52,690,o),
(27,670,cs),
(15,661,o),
(17,650,o),
(22,640,cs),
(63,546,o),
(129,398,o),
(215,276,c),
(296,348,l),
(338,485,o),
(370,603,o),
(370,745,cs),
(370,769,o),
(359,772,o),
(347,754,cs),
(327,724,o),
(296,693,o),
(280,688,cs),
(268,685,o),
(269,671,o),
(269,656,cs),
(269,597,o),
(244,397,o),
(227,368,cs),
(154,245,o),
(58,126,o),
(10,68,cs),
(-4,52,o),
(-2,46,o),
(10,34,cs),
(54,-13,o),
(327,1,o),
(518,0,c)
);
},
{
closed = 1;
nodes = (
(245,167,o),
(239,173,o),
(239,180,cs),
(239,186,o),
(245,192,o),
(252,192,cs),
(258,192,o),
(264,186,o),
(264,180,cs),
(264,173,o),
(258,167,o),
(252,167,cs)
);
}
);
width = 508;
}
);
metricLeft = "=0";
metricRight = "=-30";
},
{
glyphname = "fehDotless_alef-ar";
layers = (
{
anchors = (
{
name = caret_1;
pos = (126,0);
},
{
name = damma_1;
pos = (139,192);
},
{
name = damma_2;
pos = (-36,66);
},
{
name = fatha_1;
pos = (348,507);
},
{
name = fatha_2;
pos = (166,669);
},
{
name = hamzaabove_2;
pos = (166,669);
},
{
name = hamzabelow_2;
pos = (134,-56);
},
{
name = kasra_1;
pos = (468,-49);
},
{
name = kasra_2;
pos = (133,-56);
},
{
name = madda_2;
pos = (-45,619);
},
{
name = top_1;
pos = (232,432);
}
);
backgroundImage = {
alpha = 80;
imagePath = "images/MS-ADD-01116-000-00005.jpg";
locked = 1;
pos = (-3926,-3724);
scale = (5,5);
};
layerId = m01;
shapes = (
{
closed = 1;
nodes = (
(499,-10,o),
(560,23,o),
(560,122,cs),
(560,309,o),
(457,459,o),
(339,460,cs),
(208,461,o),
(126,344,o),
(147,213,cs),
(160,134,o),
(247,95,o),
(436,114,cs),
(450,115,o),
(449,98,o),
(437,97,cs),
(293,82,o),
(132,97,o),
(106,225,cs),
(90,304,o),
(117,586,o),
(105,762,cs),
(104,782,o),
(90,782,o),
(84,771,cs),
(64,735,o),
(39,714,o),
(13,698,cs),
(-4,687,o),
(-1,669,o),
(6,602,cs),
(16,502,o),
(11,338,o),
(7,230,cs),
(4,141,o),
(10,68,o),
(53,30,cs),
(92,-6,o),
(172,-14,o),
(286,-13,cs)
);
},
{
closed = 1;
nodes = (
(359,265,o),
(353,271,o),
(353,278,cs),
(353,284,o),
(359,290,o),
(366,290,cs),
(372,290,o),
(378,284,o),
(378,278,cs),
(378,271,o),
(372,265,o),
(366,265,cs)
);
}
);
width = 560;
}
);
metricLeft = "=0";
metricRight = "=0";
},
{
glyphname = "seen_alefMaksura-ar";
layers = (
{
anchors = (
{
name = bottom_2;
pos = (367,-238);
},
{
name = caret_1;
pos = (97,0);
},
{
name = damma_1;
pos = (-79,115);
},
{
name = damma_2;
pos = (-97,-194);
},
{
name = fatha_1;
pos = (175,403);
},
{
name = fatha_2;
pos = (-83,272);
},
{
name = kasra_1;
pos = (292,-26);
},
{
name = kasra_2;
pos = (197,-318);
},
{
name = top_1;
pos = (159,244);
}
);
layerId = m01;
shapes = (
{
closed = 1;
nodes = (
(-11,112,o),
(-5,49,o),
(0,1,cs),
(4,-33,o),
(3,-79,o),
(27,-104,cs),
(57,-135,o),
(111,-147,o),
(254,-142,cs),
(268,-142,o),
(267,-151,o),
(270,-156,c),
(137,-164,o),
(56,-156,o),
(6,-127,cs),
(-6,-120,o),
(-14,-130,o),
(-21,-141,cs),
(-37,-168,o),
(-67,-203,o),
(-84,-203,cs),
(-102,-203,o),
(-106,-217,o),
(-93,-228,cs),
(-34,-278,o),
(189,-283,o),
(337,-255,cs),
(377,-247,o),
(390,-205,o),
(381,-148,cs),
(372,-95,o),
(367,-62,o),
(353,-36,cs),
(346,-24,o),
(345,-21,o),
(322,-21,cs),
(181,-22,o),
(159,-17,o),
(140,-12,cs),
(121,-7,o),
(119,-5,o),
(119,57,c),
(97,7,l),
(154,0,o),
(188,0,o),
(266,0,cs),
(322,0,o),
(347,39,o),
(346,73,cs),
(344,174,o),
(331,236,o),
(329,313,cs),
(329,332,o),
(316,331,o),
(310,323,cs),
(279,277,o),
(265,247,o),
(237,236,cs),
(224,231,o),
(222,224,o),
(224,214,cs),
(228,193,o),
(232,174,o),
(234,110,c),
(243,143,l),
(231,143,o),
(216,160,o),
(212,197,cs),
(208,234,o),
(205,252,o),
(202,278,cs),
(200,303,o),
(186,292,o),
(181,283,cs),
(160,243,o),
(143,221,o),
(115,197,cs),
(104,188,o),
(103,185,o),
(105,175,cs),
(107,164,o),
(110,132,o),
(111,110,c),
(121,133,l),
(109,133,o),
(94,135,o),
(90,172,cs),
(86,209,o),
(83,227,o),
(80,253,cs),
(78,278,o),
(64,267,o),
(59,258,cs),
(38,218,o),
(21,196,o),
(-7,172,cs),
(-18,163,o),
(-19,160,o),
(-17,150,cs)
);
}
);
width = 346;
},
{
associatedMasterId = m01;
layerId = "65096C4C-3D00-4C83-94A4-19234221A358";
name = "29 Mar 23 at 23:57";
shapes = (
{
closed = 1;
nodes = (
(272,0,ls),
(311,0,o),
(347,37,o),
(346,72,cs),
(344,172,o),
(331,263,o),
(331,363,cs),
(331,372,o),
(324,376,o),
(317,365,cs),
(297,334,o),
(269,305,o),
(240,286,cs),
(226,277,o),
(229,260,o),
(231,229,cs),
(233,196,o),
(233,166,o),
(235,110,c),
(196,110,l),
(196,0,l)
);
}
);
visible = 1;
width = 471;
}
);
metricLeft = "=seen_alefMaksura-ar.fina";
metricRight = "=0@73";
},
{
glyphname = "seen_alefMaksura-ar.fina";
kernRight = beh;
layers = (
{
anchors = (
{
name = bottom_2;
pos = (376,-238);
},
{
name = caret_1;
pos = (97,0);
},
{
name = damma_1;
pos = (-79,115);
},
{
name = damma_2;
pos = (-97,-194);
},
{
name = entry;
pos = (343,0);
},
{
name = fatha_1;
pos = (175,403);
},
{
name = fatha_2;
pos = (-83,272);
},
{
name = kasra_1;
pos = (292,-26);
},
{
name = kasra_2;
pos = (197,-318);
},
{
name = top_1;
pos = (159,244);
}
);
backgroundImage = {
alpha = 80;
angle = 1.8;
imagePath = "images/MS-ADD-01116-000-00066.jpg";
locked = 1;
pos = (-2959,-1894);
scale = (5,5);
};
layerId = m01;
shapes = (
{
closed = 1;
nodes = (
(-5,49,o),
(0,1,cs),
(4,-33,o),
(3,-79,o),
(27,-104,cs),
(57,-135,o),
(122,-147,o),
(265,-142,cs),
(279,-142,o),
(278,-151,o),
(281,-156,c),
(148,-164,o),
(56,-156,o),
(6,-127,cs),
(-6,-120,o),
(-14,-130,o),
(-21,-141,cs),
(-37,-168,o),
(-67,-203,o),
(-84,-203,cs),
(-102,-203,o),
(-106,-217,o),
(-93,-228,cs),
(-34,-278,o),
(200,-283,o),
(348,-255,cs),
(388,-247,o),
(401,-205,o),
(392,-148,cs),
(383,-95,o),
(378,-62,o),
(364,-36,cs),
(357,-24,o),
(356,-21,o),
(333,-21,cs),
(192,-22,o),
(159,-17,o),
(140,-12,cs),
(121,-7,o),
(119,-5,o),
(119,57,c),
(97,7,l),
(154,0,o),
(269,0,o),
(356,0,c),
(356,110,l),
(344,110,o),
(341,134,o),
(340,157,cs),
(338,234,o),
(336,271,o),
(332,313,cs),
(330,332,o),
(319,331,o),
(313,323,cs),
(282,277,o),
(268,247,o),
(240,236,cs),
(227,231,o),
(225,224,o),
(227,214,cs),
(231,193,o),
(232,174,o),
(234,110,c),
(242,143,l),
(230,143,o),
(215,160,o),
(211,197,cs),
(207,234,o),
(204,252,o),
(201,278,cs),
(199,303,o),
(185,292,o),
(180,283,cs),
(159,243,o),
(142,221,o),
(114,197,cs),
(103,188,o),
(102,185,o),
(104,175,cs),
(106,164,o),
(109,132,o),
(110,110,c),
(121,134,l),
(109,134,o),
(94,135,o),
(90,172,cs),
(86,209,o),
(83,227,o),
(80,253,cs),
(78,278,o),
(64,267,o),
(59,258,cs),
(38,218,o),
(21,196,o),
(-7,172,cs),
(-18,163,o),
(-19,160,o),
(-17,150,cs),
(-11,112,o)
);
}
);
width = 343;
},
{
associatedMasterId = m01;
backgroundImage = {
alpha = 80;
angle = 1.8;
imagePath = "images/MS-ADD-01116-000-00066.jpg";
locked = 1;
pos = (-2939,-1894);
scale = (5,5);
};
layerId = "0FB1C5DB-1278-447B-B0DF-20747A0CDF15";
metricLeft = "=";
name = "29 Mar 23 at 23:16";
shapes = (
{
alignment = -1;
pos = (215,0);
ref = "behDotless-ar.medi";
}
);
visible = 1;
width = 343;
}
);
metricLeft = "=0@0";
metricRight = "=0@130";
},
{
glyphname = period;
layers = (
{
backgroundImage = {
alpha = 80;
angle = -1.4;
imagePath = "images/MS-ADD-01116-000-00009.jpg";
locked = 1;
pos = (-1907,-3694);
scale = (5,5);
};
layerId = m01;
shapes = (
{
closed = 1;
nodes = (
(154,4,o),
(167,9,o),
(179,28,cs),
(197,56,o),
(212,86,o),
(218,106,cs),
(222,120,o),
(216,129,o),
(205,132,cs),
(165,143,o),
(118,167,o),
(88,184,cs),
(79,189,o),
(74,184,o),
(71,177,cs),
(49,129,o),
(31,96,o),
(11,92,cs),
(-2,89,o),
(-3,79,o),
(7,70,cs),
(40,40,o),
(116,14,o),
(135,9,cs)
);
}
);
width = 219;
}
);
metricLeft = "=0";
metricRight = "=0";
unicode = 46;
},
{
glyphname = "endofayah-ar.05";
layers = (
{
layerId = m01;
shapes = (
{
closed = 1;
nodes = (
(284,4,o),
(327,10,o),
(329,68,cs),
(329,103,o),
(337,308,o),
(316,356,cs),
(307,376,o),
(301,364,o),
(293,356,cs),
(267,330,o),
(249,308,o),
(228,292,cs),
(219,285,o),
(218,274,o),
(221,265,cs),
(223,257,o),
(226,248,o),
(227,238,c),
(147,225,o),
(69,188,o),
(69,106,cs),
(69,16,o),
(178,-4,o),
(233,0,cs)
);
},
{
closed = 1;
nodes = (
(241,122,o),
(244,126,o),
(244,130,cs),
(244,135,o),
(241,138,o),
(236,138,cs),
(232,138,o),
(228,135,o),
(228,130,cs),
(228,126,o),
(232,122,o),
(236,122,cs)
);
},
{
closed = 1;
nodes = (
(179,12,o),
(85,29,o),
(85,106,cs),
(85,182,o),
(160,213,o),
(243,224,c),
(245,243,o),
(239,259,o),
(236,269,cs),
(234,276,o),
(234,276,o),
(238,279,cs),
(260,296,o),
(279,318,o),
(303,344,c),
(320,290,o),
(313,102,o),
(313,68,cs),
(311,24,o),
(282,20,o),
(232,16,cs)
);
}
);
width = 400;
},
{
associatedMasterId = m01;
attr = {
colorPalette = 4;
};
layerId = "3C156617-8D36-4104-AFC9-5789B45D6171";
metricRight = "=60";
name = "24 Feb 23 at 20:06";
shapes = (
{
closed = 1;
nodes = (
(285,-6,o),
(337,1,o),
(339,68,cs),
(339,103,o),
(347,310,o),
(325,360,cs),
(313,387,o),
(300,377,o),
(286,363,cs),
(260,337,o),
(242,315,o),
(222,300,cs),
(209,290,o),
(208,274,o),
(211,262,cs),
(213,257,o),
(214,252,o),
(216,246,c),
(137,231,o),
(59,192,o),
(59,106,cs),
(59,7,o),
(177,-14,o),
(234,-10,cs)
);
}
);
width = 400;
},
{
associatedMasterId = m01;
attr = {
colorPalette = 1;
};
backgroundImage = {
alpha = 80;
imagePath = "images/MS-ADD-01116-000-00012.jpg";
locked = 1;
pos = (-2787,-2732);
scale = (5,5);
};
layerId = "38461C08-F54E-4BE4-9620-3C6CF5840E38";
shapes = (
{
closed = 1;
nodes = (
(284,4,o),
(327,10,o),
(329,68,cs),
(329,103,o),
(337,308,o),
(316,356,cs),
(307,376,o),
(301,364,o),
(293,356,cs),
(267,330,o),
(249,308,o),
(228,292,cs),
(219,285,o),
(218,274,o),
(221,265,cs),
(223,257,o),
(226,248,o),
(227,238,c),
(147,225,o),
(69,188,o),
(69,106,cs),
(69,16,o),
(178,-4,o),
(233,0,cs)
);
},
{
closed = 1;
nodes = (
(232,122,o),
(228,126,o),
(228,130,cs),
(228,135,o),
(232,138,o),
(236,138,cs),
(241,138,o),
(244,135,o),
(244,130,cs),
(244,126,o),
(241,122,o),
(236,122,cs)
);
}
);
width = 400;
}
);
metricRight = "=70";
metricWidth = "=space";
},
{
glyphname = "dotabove-ar";
layers = (
{
anchors = (
{
name = _top;
pos = (79,38);
}
);
layerId = m01;
shapes = (
{
closed = 1;
nodes = (
(18,13,o),
(21,14,o),
(22,15,cs),
(53,40,o),
(80,68,o),
(104,99,cs),
(105,100,o),
(106,103,o),
(106,105,cs),
(106,111,o),
(102,115,o),
(96,115,cs),
(93,115,o),
(90,114,o),
(88,111,cs),
(64,82,o),
(39,54,o),
(10,31,cs),
(7,29,o),
(6,26,o),
(6,23,cs),
(6,17,o),
(10,13,o),
(16,13,cs)
);
}
);
width = 110;
},
{
anchors = (
{
name = _top;
pos = (90,50);
}
);
associatedMasterId = m01;
layerId = "1951D83C-027C-46A2-BBE7-A485E6845D98";
name = "1 May 21, 00:30";
shapes = (
{
closed = 1;
nodes = (
(128,152,l),
(112,164,l),
(0,12,l),
(16,0,l)
);
}
);
width = 128;
},
{
anchors = (
{
name = _top;
pos = (79,38);
}
);
associatedMasterId = m01;
layerId = "35FFA398-3489-4430-A27C-01EFA9C459D5";
name = "25 Feb 23 at 15:48";
shapes = (
{
closed = 1;
nodes = (
(52,38,o),
(81,71,o),
(106,100,cs),
(117,113,o),
(101,126,o),
(91,113,cs),
(67,84,o),
(36,52,o),
(6,27,cs),
(-8,14,o),
(4,1,o),
(19,13,cs)
);
}
);
width = 110;
}
);
metricLeft = "=6";
metricRight = "=4";
},
{
glyphname = "dotabove-ar.beh";
layers = (
{
anchors = (
{
name = _top;
pos = (74,38);
}
);
layerId = m01;
shapes = (
{
angle = 9;
pos = (4,-9);
ref = "dotabove-ar";
}
);
width = 96;
},
{
anchors = (
{
name = _top;
pos = (90,50);
}
);
associatedMasterId = m01;
layerId = "1951D83C-027C-46A2-BBE7-A485E6845D98";
name = "1 May 21, 00:30";
shapes = (
{
closed = 1;
nodes = (
(128,152,l),
(112,164,l),
(0,12,l),
(16,0,l)
);
}
);
width = 128;
},
{
anchors = (
{
name = _top;
pos = (79,38);
}
);
associatedMasterId = m01;
layerId = "35FFA398-3489-4430-A27C-01EFA9C459D5";
name = "25 Feb 23 at 15:48";
shapes = (
{
closed = 1;
nodes = (
(52,38,o),
(81,71,o),
(106,100,cs),
(117,113,o),
(101,126,o),
(91,113,cs),
(67,84,o),
(36,52,o),
(6,27,cs),
(-8,14,o),
(4,1,o),
(19,13,cs)
);
}
);
width = 110;
}
);
metricLeft = "=dotabove-ar";
metricRight = "=dotabove-ar";
},
{
glyphname = "dotabove-ar.reh";
layers = (
{
anchors = (
{
name = _top;
pos = (63,50);
}
);
layerId = m01;
shapes = (
{
closed = 1;
nodes = (
(13,24,o),
(15,25,o),
(17,27,cs),
(43,54,o),
(69,83,o),
(92,112,cs),
(93,113,o),
(94,116,o),
(94,118,cs),
(94,124,o),
(90,128,o),
(84,128,cs),
(81,128,o),
(78,127,o),
(76,124,cs),
(53,95,o),
(29,68,o),
(3,41,cs),
(1,39,o),
(0,37,o),
(0,34,cs),
(0,28,o),
(4,24,o),
(10,24,cs)
);
}
);
width = 94;
}
);
metricLeft = "=0";
metricRight = "=0";
},
{
glyphname = "alefabove-ar";
layers = (
{
anchors = (
{
name = _alefabove;
}
);
annotations = (
{
pos = (-200,655);
text = "https://corpuscoranicum.de/en/manuscripts/594/page/148r";
type = Text;
width = 270;
}
);
attr = {
colorPalette = 3;
};
backgroundImage = {
alpha = 80;
imagePath = "images/alefabove-ar.medi.png";
pos = (-872,-7);
scale = (0.6,0.6);
};
layerId = m01;
shapes = (
{
closed = 1;
nodes = (
(19,333,o),
(0,333,o),
(-1,357,cs),
(-5,478,o),
(-11,610,o),
(-27,690,cs),
(-31,708,o),
(-26,707,o),
(-21,714,cs),
(-6,737,o),
(10,761,o),
(15,786,cs),
(18,800,o),
(31,808,o),
(29,781,cs),
(18,650,o),
(19,516,o),
(19,358,cs)
);
}
);
width = 0;
}
);
metricWidth = "=0";
unicode = 1648;
},
{
glyphname = ayah.010;
layers = (
{
anchors = (
{
name = _top;
pos = (248,203);
}
);
background = {
shapes = (
{
closed = 1;
nodes = (
(-493,10,o),
(-575,92,o),
(-575,195,cs),
(-575,297,o),
(-493,379,o),
(-391,379,cs),
(-288,379,o),
(-206,297,o),
(-206,195,cs),
(-206,92,o),
(-288,10,o),
(-391,10,cs)
);
}
);
};
layerId = m01;
shapes = (
{
alignment = -1;
pos = (0,180);
ref = _ayah.010;
}
);
width = 495;
},
{
associatedMasterId = m01;
attr = {
colorPalette = 4;
};
background = {
shapes = (
{
closed = 1;
nodes = (
(-493,10,o),
(-575,92,o),
(-575,195,cs),
(-575,297,o),
(-493,379,o),
(-391,379,cs),
(-288,379,o),
(-206,297,o),
(-206,195,cs),
(-206,92,o),
(-288,10,o),
(-391,10,cs)
);
}
);
};
layerId = "D542F106-890E-45CF-A3C8-AEA4B940F3D6";
name = "17 Apr 23 at 00:00";
shapes = (
{
closed = 1;
nodes = (
(116,128,o),
(141,128,o),
(158,133,cs),
(183,139,o),
(187,159,o),
(186,174,cs),
(186,176,l),
(311,176,ls),
(406,176,o),
(436,176,o),
(451,179,c),
(455,179,o),
(459,181,o),
(462,184,c),
(471,190,o),
(485,206,o),
(496,214,cs),
(503,219,o),
(502,229,o),
(490,229,cs),
(437,225,o),
(350,251,o),
(372,290,cs),
(376,296,o),
(389,315,o),
(393,320,cs),
(401,330,o),
(391,342,o),
(380,332,c),
(375,326,o),
(335,290,o),
(325,278,cs),
(322,274,o),
(320,271,o),
(318,267,c),
(315,290,ls),
(314,301,o),
(304,305,o),
(297,291,cs),
(290,280,o),
(283,273,o),
(272,263,c),
(270,262,o),
(267,259,o),
(265,257,c),
(261,266,o),
(258,275,o),
(255,285,cs),
(252,295,o),
(243,293,o),
(240,286,cs),
(233,265,o),
(225,257,o),
(215,252,c),
(214,251,o),
(212,250,o),
(212,249,c),
(209,256,o),
(205,265,o),
(201,280,cs),
(198,290,o),
(190,291,o),
(184,282,cs),
(175,267,o),
(170,259,o),
(161,256,cs),
(157,254,o),
(154,251,o),
(153,248,c),
(145,257,o),
(136,265,o),
(129,270,cs),
(125,272,o),
(123,274,o),
(120,274,cs),
(116,274,o),
(113,270,o),
(112,269,cs),
(100,259,o),
(70,224,o),
(55,210,c),
(51,205,o),
(49,197,o),
(55,193,c),
(51,194,o),
(48,195,o),
(45,197,cs),
(38,201,o),
(35,199,o),
(32,195,cs),
(24,185,o),
(14,173,o),
(3,169,cs),
(-7,165,o),
(-8,156,o),
(1,150,cs),
(19,138,o),
(55,127,o),
(91,128,cs)
);
}
);
width = 495;
},
{
associatedMasterId = m01;
attr = {
colorPalette = 1;
};
background = {
shapes = (
{
closed = 1;
nodes = (
(-493,10,o),
(-575,92,o),
(-575,195,cs),
(-575,297,o),
(-493,379,o),
(-391,379,cs),
(-288,379,o),
(-206,297,o),
(-206,195,cs),
(-206,92,o),
(-288,10,o),
(-391,10,cs)
);
}
);
};
layerId = "A4C02AA6-6022-44EC-AFA7-E0EFF98AA081";
name = "Color 1 17 Apr 23 at 00:03";
shapes = (
{
alignment = -1;
pos = (0,180);
ref = _ayah.010;
}
);
width = 495;
}
);
metricRight = "=|118";
},
{
glyphname = ayah.020;
layers = (
{
anchors = (
{
name = _top;
pos = (268,173);
}
);
background = {
shapes = (
{
closed = 1;
nodes = (
(-493,10,o),
(-575,92,o),
(-575,195,cs),
(-575,297,o),
(-493,379,o),
(-391,379,cs),
(-288,379,o),
(-206,297,o),
(-206,195,cs),
(-206,92,o),
(-288,10,o),
(-391,10,cs)
);
}
);
};
layerId = m01;
shapes = (
{
alignment = -1;
pos = (250,42);
ref = _ayah.waw;
},
{
alignment = -1;
pos = (121,13);
ref = _ayah.noon;
},
{
alignment = -1;
pos = (0,180);
ref = _ayah.010;
}
);
width = 495;
},
{
associatedMasterId = m01;
attr = {
colorPalette = 4;
};
background = {
shapes = (
{
closed = 1;
nodes = (
(-493,10,o),
(-575,92,o),
(-575,195,cs),
(-575,297,o),
(-493,379,o),
(-391,379,cs),
(-288,379,o),
(-206,297,o),
(-206,195,cs),
(-206,92,o),
(-288,10,o),
(-391,10,cs)
);
}
);
};
layerId = "D542F106-890E-45CF-A3C8-AEA4B940F3D6";
metricLeft = "=-5";
metricRight = "=-5";
name = "17 Apr 23 at 00:00";
shapes = (
{
closed = 1;
nodes = (
(116,128,o),
(141,128,o),
(158,133,cs),
(183,139,o),
(186,159,o),
(186,174,cs),
(186,176,l),
(311,176,ls),
(406,176,o),
(436,176,o),
(451,179,c),
(455,179,o),
(459,181,o),
(462,184,c),
(471,190,o),
(485,206,o),
(496,214,cs),
(503,219,o),
(502,229,o),
(490,229,cs),
(437,225,o),
(350,251,o),
(372,290,cs),
(376,296,o),
(389,315,o),
(393,320,cs),
(401,330,o),
(391,342,o),
(380,332,c),
(375,326,o),
(335,290,o),
(325,278,cs),
(322,274,o),
(320,271,o),
(318,267,c),
(315,290,ls),
(314,301,o),
(304,305,o),
(297,291,cs),
(290,280,o),
(283,273,o),
(272,263,c),
(270,262,o),
(267,259,o),
(265,257,c),
(261,266,o),
(258,275,o),
(255,285,cs),
(252,295,o),
(243,293,o),
(240,286,cs),
(233,265,o),
(225,257,o),
(215,252,c),
(214,251,o),
(212,250,o),
(212,249,c),
(209,256,o),
(205,265,o),
(201,280,cs),
(198,290,o),
(190,291,o),
(184,282,cs),
(175,267,o),
(170,259,o),
(161,256,cs),
(157,254,o),
(154,251,o),
(153,248,c),
(145,257,o),
(136,265,o),
(129,270,cs),
(125,272,o),
(123,274,o),
(120,274,cs),
(116,274,o),
(113,270,o),
(112,269,cs),
(100,259,o),
(70,224,o),
(55,210,c),
(51,205,o),
(49,197,o),
(55,193,c),
(51,194,o),
(48,195,o),
(45,197,cs),
(38,201,o),
(35,199,o),
(32,195,cs),
(24,185,o),
(14,173,o),
(3,169,cs),
(-7,165,o),
(-8,156,o),
(1,150,cs),
(19,138,o),
(55,127,o),
(91,128,cs)
);
},
{
closed = 1;
nodes = (
(240,19,o),
(246,37,o),
(245,55,cs),
(242,104,o),
(236,142,o),
(211,170,cs),
(204,177,o),
(197,175,o),
(195,166,cs),
(191,147,o),
(174,132,o),
(158,128,cs),
(146,126,o),
(145,113,o),
(158,109,cs),
(192,99,o),
(203,85,o),
(200,55,c),
(181,54,o),
(176,58,o),
(164,64,cs),
(160,66,o),
(156,66,o),
(152,62,c),
(141,47,o),
(132,40,o),
(123,37,cs),
(113,33,o),
(115,21,o),
(124,17,c),
(151,9,o),
(196,5,o),
(223,13,cs)
);
},
{
closed = 1;
nodes = (
(353,21,o),
(389,27,o),
(401,46,c),
(407,53,o),
(408,62,o),
(408,71,cs),
(408,100,o),
(383,168,o),
(337,168,cs),
(305,168,o),
(279,140,o),
(279,106,cs),
(279,60,o),
(321,54,o),
(364,62,cs),
(365,62,o),
(364,68,o),
(362,67,c),
(350,64,o),
(315,60,o),
(292,73,cs),
(287,76,o),
(279,80,o),
(275,74,cs),
(271,67,o),
(260,56,o),
(255,56,cs),
(247,56,o),
(242,49,o),
(248,41,c),
(264,26,o),
(297,19,o),
(328,20,cs)
);
}
);
width = 495;
},
{
associatedMasterId = m01;
attr = {
colorPalette = 1;
};
background = {
shapes = (
{
closed = 1;
nodes = (
(-493,10,o),
(-575,92,o),
(-575,195,cs),
(-575,297,o),
(-493,379,o),
(-391,379,cs),
(-288,379,o),
(-206,297,o),
(-206,195,cs),
(-206,92,o),
(-288,10,o),
(-391,10,cs)
);
}
);
};
layerId = "A4C02AA6-6022-44EC-AFA7-E0EFF98AA081";
name = "Color 1 17 Apr 23 at 00:03";
shapes = (
{
alignment = -1;
pos = (121,13);
ref = _ayah.noon;
},
{
pos = (250,42);
ref = _ayah.waw;
},
{
alignment = -1;
pos = (0,180);
ref = _ayah.010;
}
);
width = 495;
}
);
metricLeft = "=0";
metricRight = "=0";
},
{
glyphname = ayah.030;
layers = (
{
anchors = (
{
name = _top;
pos = (184,200);
}
);
background = {
shapes = (
{
closed = 1;
nodes = (
(-493,10,o),
(-575,92,o),
(-575,195,cs),
(-575,297,o),
(-493,379,o),
(-391,379,cs),
(-288,379,o),
(-206,297,o),
(-206,195,cs),
(-206,92,o),
(-288,10,o),
(-391,10,cs)
);
}
);
};
layerId = m01;
shapes = (
{
alignment = -1;
pos = (0,180);
ref = _ayah.030;
},
{
alignment = -1;
pos = (131,13);
ref = _ayah.noon;
}
);
width = 319;
},
{
associatedMasterId = m01;
attr = {
colorPalette = 4;
};
background = {
shapes = (
{
closed = 1;
nodes = (
(-493,10,o),
(-575,92,o),
(-575,195,cs),
(-575,297,o),
(-493,379,o),
(-391,379,cs),
(-288,379,o),
(-206,297,o),
(-206,195,cs),
(-206,92,o),
(-288,10,o),
(-391,10,cs)
);
}
);
};
layerId = "D542F106-890E-45CF-A3C8-AEA4B940F3D6";
metricLeft = "=-5";
metricRight = "=-5";
name = "17 Apr 23 at 00:00";
shapes = (
{
closed = 1;
nodes = (
(150,120,o),
(186,125,o),
(188,175,c),
(292,175,ls),
(311,175,o),
(324,193,o),
(324,209,cs),
(323,249,o),
(321,285,o),
(321,325,cs),
(321,334,o),
(312,337,o),
(306,329,cs),
(298,317,o),
(287,308,o),
(277,298,cs),
(275,296,l),
(273,333,o),
(270,371,o),
(267,420,cs),
(267,437,o),
(253,438,o),
(248,426,c),
(243,418,o),
(229,406,o),
(222,400,cs),
(214,393,o),
(216,386,o),
(216,382,cs),
(217,361,o),
(219,343,o),
(220,327,c),
(216,329,o),
(212,328,o),
(208,323,cs),
(195,305,o),
(188,298,o),
(182,292,cs),
(177,287,o),
(175,284,o),
(175,279,cs),
(175,273,o),
(176,267,o),
(177,260,c),
(174,267,o),
(170,274,o),
(165,280,cs),
(151,298,o),
(137,309,o),
(109,309,cs),
(64,309,o),
(44,266,o),
(44,231,cs),
(44,214,o),
(47,202,o),
(52,193,c),
(47,197,o),
(40,199,o),
(36,192,cs),
(31,184,o),
(13,169,o),
(6,169,cs),
(-3,169,o),
(-9,161,o),
(-2,152,cs),
(15,128,o),
(33,120,o),
(92,120,cs)
);
},
{
closed = 1;
nodes = (
(250,19,o),
(256,37,o),
(255,55,cs),
(252,104,o),
(246,142,o),
(221,170,cs),
(214,177,o),
(207,175,o),
(205,166,cs),
(201,147,o),
(184,132,o),
(168,128,cs),
(156,126,o),
(155,113,o),
(168,109,cs),
(202,99,o),
(213,85,o),
(210,55,c),
(191,54,o),
(186,58,o),
(174,64,cs),
(170,66,o),
(166,66,o),
(162,62,c),
(151,47,o),
(142,40,o),
(133,37,cs),
(123,33,o),
(125,21,o),
(134,17,c),
(161,9,o),
(206,5,o),
(233,13,cs)
);
}
);
width = 319;
},
{
associatedMasterId = m01;
attr = {
colorPalette = 1;
};
background = {
shapes = (
{
closed = 1;
nodes = (
(-493,10,o),
(-575,92,o),
(-575,195,cs),
(-575,297,o),
(-493,379,o),
(-391,379,cs),
(-288,379,o),
(-206,297,o),
(-206,195,cs),
(-206,92,o),
(-288,10,o),
(-391,10,cs)
);
}
);
};
layerId = "A4C02AA6-6022-44EC-AFA7-E0EFF98AA081";
name = "Color 1 17 Apr 23 at 00:03";
shapes = (
{
alignment = -1;
pos = (0,180);
ref = _ayah.030;
},
{
alignment = -1;
pos = (131,13);
ref = _ayah.noon;
}
);
visible = 1;
width = 319;
}
);
metricLeft = "=0";
metricRight = "=0";
},
{
glyphname = ayah.040;
layers = (
{
anchors = (
{
name = _top;
pos = (162,115);
}
);
background = {
shapes = (
{
closed = 1;
nodes = (
(-511,10,o),
(-593,92,o),
(-593,195,cs),
(-593,297,o),
(-511,379,o),
(-409,379,cs),
(-306,379,o),
(-224,297,o),
(-224,195,cs),
(-224,92,o),
(-306,10,o),
(-409,10,cs)
);
}
);
};
layerId = m01;
shapes = (
{
alignment = -1;
ref = _ayah.040.1;
},
{
alignment = -1;
pos = (36,120);
ref = _ayah.040.0;
}
);
width = 315;
},
{
associatedMasterId = m01;
attr = {
colorPalette = 4;
};
background = {
shapes = (
{
closed = 1;
nodes = (
(-536,10,o),
(-618,92,o),
(-618,195,cs),
(-618,297,o),
(-536,379,o),
(-434,379,cs),
(-331,379,o),
(-249,297,o),
(-249,195,cs),
(-249,92,o),
(-331,10,o),
(-434,10,cs)
);
}
);
};
layerId = "D2787F8A-80EA-4D80-BC06-07D8B28ECB15";
metricLeft = "=31";
metricRight = "=2";
name = "Color 4 17 Apr 23 at 04:35";
shapes = (
{
closed = 1;
nodes = (
(276,134,o),
(299,152,o),
(314,185,cs),
(316,191,o),
(309,196,o),
(303,192,cs),
(284,178,o),
(249,178,o),
(232,181,cs),
(211,184,o),
(204,191,o),
(198,212,cs),
(190,238,o),
(196,265,o),
(195,303,cs),
(195,314,o),
(184,316,o),
(180,307,cs),
(178,300,o),
(168,290,o),
(164,289,c),
(157,284,o),
(159,278,o),
(159,267,cs),
(162,237,o),
(162,229,o),
(162,205,cs),
(162,164,o),
(184,135,o),
(227,134,cs)
);
},
{
closed = 1;
nodes = (
(117,132,o),
(135,133,o),
(148,137,cs),
(165,142,o),
(166,155,o),
(166,165,cs),
(165,194,o),
(142,225,o),
(123,237,cs),
(116,242,o),
(113,239,o),
(110,236,cs),
(102,228,o),
(81,201,o),
(70,191,cs),
(67,188,o),
(66,184,o),
(69,180,cs),
(68,181,o),
(68,181,o),
(67,181,cs),
(63,182,o),
(60,182,o),
(58,180,cs),
(52,172,o),
(45,160,o),
(38,158,cs),
(30,156,o),
(29,147,o),
(37,143,cs),
(50,138,o),
(76,134,o),
(100,133,cs)
);
}
);
width = 316;
},
{
associatedMasterId = m01;
attr = {
colorPalette = 1;
};
background = {
shapes = (
{
closed = 1;
nodes = (
(-493,10,o),
(-575,92,o),
(-575,195,cs),
(-575,297,o),
(-493,379,o),
(-391,379,cs),
(-288,379,o),
(-206,297,o),
(-206,195,cs),
(-206,92,o),
(-288,10,o),
(-391,10,cs)
);
}
);
};
layerId = "3DD0BA8B-8555-4B08-8AA6-007F4576AE05";
metricLeft = "=36";
metricRight = "=5";
name = "Color 1 17 Apr 23 at 04:36";
shapes = (
{
alignment = -1;
pos = (36,120);
ref = _ayah.040.0;
}
);
width = 315;
},
{
associatedMasterId = m01;
attr = {
colorPalette = 4;
};
background = {
shapes = (
{
closed = 1;
nodes = (
(-536,10,o),
(-618,92,o),
(-618,195,cs),
(-618,297,o),
(-536,379,o),
(-434,379,cs),
(-331,379,o),
(-249,297,o),
(-249,195,cs),
(-249,92,o),
(-331,10,o),
(-434,10,cs)
);
}
);
};
layerId = "D542F106-890E-45CF-A3C8-AEA4B940F3D6";
metricLeft = "=-5";
metricRight = "=-4";
name = "17 Apr 23 at 00:00";
shapes = (
{
closed = 1;
nodes = (
(87,4,o),
(91,16,o),
(90,30,cs),
(88,88,o),
(85,117,o),
(66,136,cs),
(60,142,o),
(54,138,o),
(53,132,cs),
(50,119,o),
(38,108,o),
(26,105,cs),
(20,103,o),
(16,93,o),
(25,90,cs),
(51,81,o),
(60,74,o),
(56,31,c),
(45,30,o),
(38,32,o),
(31,36,cs),
(29,37,o),
(25,39,o),
(22,35,cs),
(14,26,o),
(8,21,o),
(1,16,c),
(-6,15,o),
(-9,7,o),
(2,1,c),
(22,-4,o),
(54,-7,o),
(74,-1,cs)
);
},
{
closed = 1;
nodes = (
(308,31,o),
(319,45,o),
(319,58,cs),
(318,87,o),
(317,112,o),
(317,142,cs),
(317,148,o),
(309,151,o),
(305,144,c),
(298,137,o),
(291,128,o),
(284,123,c),
(281,119,l),
(279,131,o),
(276,140,o),
(275,143,cs),
(273,150,o),
(267,153,o),
(262,144,cs),
(254,133,o),
(252,130,o),
(237,120,c),
(236,122,o),
(234,123,o),
(233,125,c),
(229,129,o),
(224,129,o),
(221,125,c),
(216,115,o),
(212,111,o),
(206,103,c),
(204,99,l),
(195,112,o),
(184,121,o),
(163,121,cs),
(134,121,o),
(115,95,o),
(115,74,cs),
(115,63,o),
(117,55,o),
(121,49,c),
(119,49,o),
(117,48,o),
(115,44,c),
(113,42,o),
(99,31,o),
(96,31,cs),
(90,31,o),
(84,24,o),
(91,17,c),
(101,1,o),
(113,-6,o),
(155,-6,cs),
(196,-6,o),
(229,-3,o),
(232,31,c),
(295,31,ls)
);
},
{
closed = 1;
nodes = (
);
}
);
width = 315;
},
{
associatedMasterId = m01;
attr = {
colorPalette = 1;
};
background = {
shapes = (
{
closed = 1;
nodes = (
(-511,10,o),
(-593,92,o),
(-593,195,cs),
(-593,297,o),
(-511,379,o),
(-409,379,cs),
(-306,379,o),
(-224,297,o),
(-224,195,cs),
(-224,92,o),
(-306,10,o),
(-409,10,cs)
);
}
);
};
layerId = "A4C02AA6-6022-44EC-AFA7-E0EFF98AA081";
name = "Color 1 17 Apr 23 at 00:03";
shapes = (
{
alignment = -1;
ref = _ayah.040.1;
}
);
visible = 1;
width = 315;
}
);
metricLeft = "=0";
metricRight = "=0";
},
{
glyphname = ayah.050;
layers = (
{
anchors = (
{
name = _top;
pos = (225,193);
}
);
background = {
shapes = (
{
closed = 1;
nodes = (
(-506,10,o),
(-588,92,o),
(-588,195,cs),
(-588,297,o),
(-506,379,o),
(-404,379,cs),
(-301,379,o),
(-219,297,o),
(-219,195,cs),
(-219,92,o),
(-301,10,o),
(-404,10,cs)
);
}
);
};
layerId = m01;
shapes = (
{
alignment = -1;
pos = (158,20);
ref = _ayah.noon;
},
{
alignment = -1;
pos = (0,189);
ref = _ayah.050;
}
);
width = 448;
},
{
associatedMasterId = m01;
attr = {
colorPalette = 4;
};
background = {
shapes = (
{
closed = 1;
nodes = (
(-507,10,o),
(-589,92,o),
(-589,195,cs),
(-589,297,o),
(-507,379,o),
(-405,379,cs),
(-302,379,o),
(-220,297,o),
(-220,195,cs),
(-220,92,o),
(-302,10,o),
(-405,10,cs)
);
}
);
};
layerId = "D542F106-890E-45CF-A3C8-AEA4B940F3D6";
metricLeft = "=-5";
metricRight = "=-5";
name = "17 Apr 23 at 00:00";
shapes = (
{
closed = 1;
nodes = (
(277,26,o),
(283,44,o),
(282,62,cs),
(279,111,o),
(273,149,o),
(248,177,cs),
(241,184,o),
(234,182,o),
(232,173,cs),
(228,154,o),
(211,139,o),
(195,135,cs),
(183,133,o),
(182,120,o),
(195,116,cs),
(229,106,o),
(240,92,o),
(237,62,c),
(218,61,o),
(213,65,o),
(201,71,cs),
(197,73,o),
(193,73,o),
(189,69,c),
(178,54,o),
(169,47,o),
(160,44,cs),
(150,40,o),
(152,28,o),
(161,24,c),
(188,16,o),
(233,12,o),
(260,20,cs)
);
},
{
closed = 1;
nodes = (
(10,150,o),
(15,140,o),
(62,140,cs),
(107,140,o),
(135,147,o),
(137,185,c),
(407,184,ls),
(413,184,o),
(424,185,o),
(429,189,cs),
(436,196,o),
(444,203,o),
(451,214,cs),
(455,219,o),
(452,225,o),
(445,226,cs),
(384,239,o),
(365,251,o),
(342,287,cs),
(338,294,o),
(329,294,o),
(326,287,cs),
(323,280,o),
(321,272,o),
(316,264,c),
(309,281,o),
(296,290,o),
(277,290,cs),
(260,290,o),
(245,285,o),
(236,270,c),
(235,274,ls),
(233,284,o),
(226,287,o),
(218,275,cs),
(212,266,o),
(207,258,o),
(200,251,c),
(198,257,o),
(197,263,o),
(196,270,cs),
(193,280,o),
(185,278,o),
(182,271,cs),
(177,256,o),
(169,249,o),
(161,244,c),
(160,249,o),
(159,257,o),
(158,266,cs),
(157,275,o),
(148,276,o),
(142,268,cs),
(134,258,o),
(126,251,o),
(119,245,c),
(109,261,o),
(99,272,o),
(74,272,cs),
(47,272,o),
(29,252,o),
(29,225,cs),
(29,216,o),
(30,209,o),
(33,203,c),
(31,204,o),
(28,203,o),
(26,200,cs),
(23,193,o),
(9,182,o),
(5,182,cs),
(-2,182,o),
(-9,174,o),
(-2,166,cs)
);
}
);
width = 448;
},
{
associatedMasterId = m01;
attr = {
colorPalette = 1;
};
background = {
shapes = (
{
closed = 1;
nodes = (
(-506,10,o),
(-588,92,o),
(-588,195,cs),
(-588,297,o),
(-506,379,o),
(-404,379,cs),
(-301,379,o),
(-219,297,o),
(-219,195,cs),
(-219,92,o),
(-301,10,o),
(-404,10,cs)
);
}
);
};
layerId = "A4C02AA6-6022-44EC-AFA7-E0EFF98AA081";
name = "Color 1 17 Apr 23 at 00:03";
shapes = (
{
alignment = -1;
pos = (158,20);
ref = _ayah.noon;
},
{
alignment = -1;
pos = (0,189);
ref = _ayah.050;
}
);
visible = 1;
width = 448;
}
);
metricLeft = "=0";
metricRight = "=0";
},
{
glyphname = ayah.060;
layers = (
{
anchors = (
{
name = _top;
pos = (190,193);
}
);
background = {
shapes = (
{
closed = 1;
nodes = (
(-541,10,o),
(-623,92,o),
(-623,195,cs),
(-623,297,o),
(-541,379,o),
(-439,379,cs),
(-336,379,o),
(-254,297,o),
(-254,195,cs),
(-254,92,o),
(-336,10,o),
(-439,10,cs)
);
}
);
};
layerId = m01;
shapes = (
{
alignment = -1;
pos = (123,20);
ref = _ayah.noon;
},
{
alignment = -1;
pos = (0,183);
ref = _ayah.060;
}
);
width = 339;
},
{
associatedMasterId = m01;
attr = {
colorPalette = 4;
};
background = {
shapes = (
{
closed = 1;
nodes = (
(-542,10,o),
(-624,92,o),
(-624,195,cs),
(-624,297,o),
(-542,379,o),
(-440,379,cs),
(-337,379,o),
(-255,297,o),
(-255,195,cs),
(-255,92,o),
(-337,10,o),
(-440,10,cs)
);
}
);
};
layerId = "D542F106-890E-45CF-A3C8-AEA4B940F3D6";
metricLeft = "=-5";
metricRight = "=-5";
name = "17 Apr 23 at 00:00";
shapes = (
{
closed = 1;
nodes = (
(242,26,o),
(248,44,o),
(247,62,cs),
(244,111,o),
(238,149,o),
(213,177,cs),
(206,184,o),
(199,182,o),
(197,173,cs),
(193,154,o),
(176,139,o),
(160,135,cs),
(148,133,o),
(147,120,o),
(160,116,cs),
(194,106,o),
(205,92,o),
(202,62,c),
(183,61,o),
(178,65,o),
(166,71,cs),
(162,73,o),
(158,73,o),
(154,69,c),
(143,54,o),
(134,47,o),
(125,44,cs),
(115,40,o),
(117,28,o),
(126,24,c),
(153,16,o),
(198,12,o),
(225,20,cs)
);
},
{
closed = 1;
nodes = (
(290,177,ls),
(336,177,o),
(344,194,o),
(344,211,cs),
(346,239,o),
(336,298,o),
(332,318,cs),
(330,330,o),
(318,330,o),
(314,318,cs),
(310,302,o),
(297,295,o),
(295,291,c),
(289,305,o),
(283,309,o),
(276,298,cs),
(274,294,o),
(262,279,o),
(253,272,c),
(245,286,ls),
(242,292,o),
(233,295,o),
(226,286,cs),
(214,272,o),
(217,276,o),
(206,261,c),
(202,285,o),
(197,312,o),
(197,315,cs),
(195,327,o),
(186,330,o),
(179,322,cs),
(170,311,o),
(168,307,o),
(159,298,cs),
(155,293,o),
(152,291,o),
(152,285,cs),
(152,281,o),
(153,275,o),
(154,269,c),
(140,287,o),
(126,297,o),
(97,297,cs),
(58,297,o),
(33,262,o),
(33,236,cs),
(33,221,o),
(36,210,o),
(41,201,c),
(39,202,o),
(36,201,o),
(34,198,cs),
(29,190,o),
(12,175,o),
(6,175,cs),
(-3,175,o),
(-9,167,o),
(-2,158,cs),
(14,136,o),
(29,125,o),
(87,125,cs),
(143,125,o),
(177,130,o),
(179,178,c)
);
}
);
visible = 1;
width = 339;
},
{
associatedMasterId = m01;
attr = {
colorPalette = 1;
};
background = {
shapes = (
{
closed = 1;
nodes = (
(-541,10,o),
(-623,92,o),
(-623,195,cs),
(-623,297,o),
(-541,379,o),
(-439,379,cs),
(-336,379,o),
(-254,297,o),
(-254,195,cs),
(-254,92,o),
(-336,10,o),
(-439,10,cs)
);
}
);
};
layerId = "A4C02AA6-6022-44EC-AFA7-E0EFF98AA081";
name = "Color 1 17 Apr 23 at 00:03";
shapes = (
{
alignment = -1;
pos = (123,20);
ref = _ayah.noon;
},
{
alignment = -1;
pos = (0,183);
ref = _ayah.060;
}
);
visible = 1;
width = 339;
}
);
metricLeft = "=0";
metricRight = "=0";
},
{
glyphname = ayah.070;
layers = (
{
anchors = (
{
name = _top;
pos = (238,193);
}
);
background = {
shapes = (
{
closed = 1;
nodes = (
(-493,10,o),
(-575,92,o),
(-575,195,cs),
(-575,297,o),
(-493,379,o),
(-391,379,cs),
(-288,379,o),
(-206,297,o),
(-206,195,cs),
(-206,92,o),
(-288,10,o),
(-391,10,cs)
);
}
);
};
layerId = m01;
shapes = (
{
alignment = -1;
pos = (0,180);
ref = _ayah.070;
},
{
alignment = -1;
pos = (172,20);
ref = _ayah.noon;
}
);
width = 435;
},
{
associatedMasterId = m01;
attr = {
colorPalette = 4;
};
background = {
shapes = (
{
closed = 1;
nodes = (
(-493,10,o),
(-575,92,o),
(-575,195,cs),
(-575,297,o),
(-493,379,o),
(-391,379,cs),
(-288,379,o),
(-206,297,o),
(-206,195,cs),
(-206,92,o),
(-288,10,o),
(-391,10,cs)
);
}
);
};
layerId = "D542F106-890E-45CF-A3C8-AEA4B940F3D6";
metricLeft = "=-5";
metricRight = "=-5";
name = "17 Apr 23 at 00:00";
shapes = (
{
closed = 1;
nodes = (
(387,174,ls),
(433,174,o),
(441,191,o),
(441,208,cs),
(443,236,o),
(433,295,o),
(429,315,cs),
(427,327,o),
(415,327,o),
(411,315,cs),
(409,304,o),
(400,294,o),
(391,287,c),
(388,294,ls),
(384,302,o),
(376,301,o),
(372,294,cs),
(364,281,o),
(362,278,o),
(350,267,c),
(342,282,ls),
(337,291,o),
(328,291,o),
(323,283,cs),
(322,282,o),
(305,260,o),
(304,259,c),
(299,313,ls),
(298,324,o),
(287,325,o),
(281,319,cs),
(271,306,o),
(263,297,o),
(257,291,c),
(253,327,l),
(251,336,o),
(242,338,o),
(235,329,cs),
(226,317,o),
(216,305,o),
(202,294,c),
(200,296,o),
(198,299,o),
(196,302,cs),
(192,308,o),
(185,309,o),
(181,303,cs),
(169,287,o),
(163,276,o),
(154,269,c),
(136,290,o),
(116,296,o),
(98,295,cs),
(63,294,o),
(33,266,o),
(33,233,cs),
(33,220,o),
(34,210,o),
(38,201,c),
(29,190,o),
(19,180,o),
(5,173,cs),
(-4,169,o),
(-8,164,o),
(-1,155,cs),
(15,133,o),
(30,122,o),
(88,122,cs),
(144,122,o),
(190,127,o),
(193,175,c)
);
},
{
closed = 1;
nodes = (
(291,26,o),
(297,44,o),
(296,62,cs),
(293,111,o),
(287,149,o),
(262,177,cs),
(255,184,o),
(248,182,o),
(246,173,cs),
(242,154,o),
(225,139,o),
(209,135,cs),
(197,133,o),
(196,120,o),
(209,116,cs),
(243,106,o),
(254,92,o),
(251,62,c),
(232,61,o),
(227,65,o),
(215,71,cs),
(211,73,o),
(207,73,o),
(203,69,c),
(192,54,o),
(183,47,o),
(174,44,cs),
(164,40,o),
(166,28,o),
(175,24,c),
(202,16,o),
(247,12,o),
(274,20,cs)
);
}
);
width = 436;
},
{
associatedMasterId = m01;
attr = {
colorPalette = 1;
};
background = {
shapes = (
{
closed = 1;
nodes = (
(-493,10,o),
(-575,92,o),
(-575,195,cs),
(-575,297,o),
(-493,379,o),
(-391,379,cs),
(-288,379,o),
(-206,297,o),
(-206,195,cs),
(-206,92,o),
(-288,10,o),
(-391,10,cs)
);
}
);
};
layerId = "A4C02AA6-6022-44EC-AFA7-E0EFF98AA081";
name = "Color 1 17 Apr 23 at 00:03";
shapes = (
{
alignment = -1;
pos = (0,180);
ref = _ayah.070;
},
{
alignment = -1;
pos = (172,20);
ref = _ayah.noon;
}
);
visible = 1;
width = 435;
}
);
metricLeft = "=0";
metricRight = "=0";
},
{
glyphname = ayah.080;
layers = (
{
anchors = (
{
name = _top;
pos = (222,193);
}
);
background = {
shapes = (
{
closed = 1;
nodes = (
(-509,10,o),
(-591,92,o),
(-591,195,cs),
(-591,297,o),
(-509,379,o),
(-407,379,cs),
(-304,379,o),
(-222,297,o),
(-222,195,cs),
(-222,92,o),
(-304,10,o),
(-407,10,cs)
);
}
);
};
layerId = m01;
shapes = (
{
alignment = -1;
pos = (0,180);
ref = _ayah.080;
},
{
alignment = -1;
pos = (156,20);
ref = _ayah.noon;
}
);
width = 404;
},
{
associatedMasterId = m01;
attr = {
colorPalette = 4;
};
background = {
shapes = (
{
closed = 1;
nodes = (
(-509,10,o),
(-591,92,o),
(-591,195,cs),
(-591,297,o),
(-509,379,o),
(-407,379,cs),
(-304,379,o),
(-222,297,o),
(-222,195,cs),
(-222,92,o),
(-304,10,o),
(-407,10,cs)
);
}
);
};
layerId = "D542F106-890E-45CF-A3C8-AEA4B940F3D6";
metricLeft = "=-5";
metricRight = "=-5";
name = "17 Apr 23 at 00:00";
shapes = (
{
closed = 1;
nodes = (
(275,26,o),
(281,44,o),
(280,62,cs),
(277,111,o),
(271,149,o),
(246,177,cs),
(239,184,o),
(232,182,o),
(230,173,cs),
(226,154,o),
(209,139,o),
(193,135,cs),
(181,133,o),
(180,120,o),
(193,116,cs),
(227,106,o),
(238,92,o),
(235,62,c),
(216,61,o),
(211,65,o),
(199,71,cs),
(195,73,o),
(191,73,o),
(187,69,c),
(176,54,o),
(167,47,o),
(158,44,cs),
(148,40,o),
(150,28,o),
(159,24,c),
(186,16,o),
(231,12,o),
(258,20,cs)
);
},
{
closed = 1;
nodes = (
(14,133,o),
(29,122,o),
(87,122,cs),
(143,122,o),
(177,127,o),
(179,175,c),
(374,175,ls),
(393,175,o),
(409,192,o),
(409,209,cs),
(408,249,o),
(403,285,o),
(403,325,cs),
(403,334,o),
(394,337,o),
(388,329,cs),
(380,317,o),
(370,305,o),
(359,298,cs),
(351,293,o),
(353,286,o),
(353,272,cs),
(353,271,l),
(340,305,o),
(314,325,o),
(286,325,cs),
(255,325,o),
(221,303,o),
(209,260,c),
(207,312,ls),
(207,323,o),
(195,327,o),
(189,319,cs),
(181,309,o),
(177,303,o),
(167,295,cs),
(162,291,o),
(160,288,o),
(160,282,cs),
(161,275,o),
(162,263,o),
(162,250,c),
(151,279,o),
(133,294,o),
(97,294,cs),
(58,294,o),
(33,259,o),
(33,233,cs),
(33,218,o),
(36,207,o),
(41,198,c),
(39,199,o),
(36,198,o),
(34,195,cs),
(29,187,o),
(12,172,o),
(6,172,cs),
(-3,172,o),
(-9,164,o),
(-2,155,cs)
);
}
);
width = 404;
},
{
associatedMasterId = m01;
attr = {
colorPalette = 1;
};
background = {
shapes = (
{
closed = 1;
nodes = (
(-509,10,o),
(-591,92,o),
(-591,195,cs),
(-591,297,o),
(-509,379,o),
(-407,379,cs),
(-304,379,o),
(-222,297,o),
(-222,195,cs),
(-222,92,o),
(-304,10,o),
(-407,10,cs)
);
}
);
};
layerId = "A4C02AA6-6022-44EC-AFA7-E0EFF98AA081";
name = "Color 1 17 Apr 23 at 00:03";
shapes = (
{
alignment = -1;
pos = (156,20);
ref = _ayah.noon;
},
{
alignment = -1;
pos = (0,180);
ref = _ayah.080;
}
);
visible = 1;
width = 404;
}
);
metricLeft = "=0";
metricRight = "=0";
},
{
glyphname = ayah.090;
layers = (
{
anchors = (
{
name = _top;
pos = (238,193);
}
);
background = {
shapes = (
{
closed = 1;
nodes = (
(-493,10,o),
(-575,92,o),
(-575,195,cs),
(-575,297,o),
(-493,379,o),
(-391,379,cs),
(-288,379,o),
(-206,297,o),
(-206,195,cs),
(-206,92,o),
(-288,10,o),
(-391,10,cs)
);
}
);
};
layerId = m01;
shapes = (
{
alignment = -1;
pos = (0,180);
ref = _ayah.090;
},
{
alignment = -1;
pos = (172,20);
ref = _ayah.noon;
}
);
width = 433;
},
{
associatedMasterId = m01;
attr = {
colorPalette = 4;
};
background = {
shapes = (
{
closed = 1;
nodes = (
(-493,10,o),
(-575,92,o),
(-575,195,cs),
(-575,297,o),
(-493,379,o),
(-391,379,cs),
(-288,379,o),
(-206,297,o),
(-206,195,cs),
(-206,92,o),
(-288,10,o),
(-391,10,cs)
);
}
);
};
layerId = "D542F106-890E-45CF-A3C8-AEA4B940F3D6";
metricLeft = "=-5";
metricRight = "=-5";
name = "17 Apr 23 at 00:00";
shapes = (
{
closed = 1;
nodes = (
(291,26,o),
(297,44,o),
(296,62,cs),
(293,111,o),
(287,149,o),
(262,177,cs),
(255,184,o),
(248,182,o),
(246,173,cs),
(242,154,o),
(225,139,o),
(209,135,cs),
(197,133,o),
(196,120,o),
(209,116,cs),
(243,106,o),
(254,92,o),
(251,62,c),
(232,61,o),
(227,65,o),
(215,71,cs),
(211,73,o),
(207,73,o),
(203,69,c),
(192,54,o),
(183,47,o),
(174,44,cs),
(164,40,o),
(166,28,o),
(175,24,c),
(202,16,o),
(247,12,o),
(274,20,cs)
);
},
{
closed = 1;
nodes = (
(384,174,ls),
(430,174,o),
(438,191,o),
(438,208,cs),
(440,236,o),
(425,315,o),
(421,335,cs),
(419,346,o),
(409,349,o),
(404,338,c),
(398,329,o),
(392,321,o),
(387,315,cs),
(383,310,o),
(380,304,o),
(381,298,cs),
(381,297,o),
(382,294,o),
(382,291,c),
(379,292,o),
(375,290,o),
(373,287,cs),
(364,273,o),
(360,270,o),
(352,263,cs),
(351,262,o),
(350,261,o),
(350,260,c),
(347,266,o),
(345,271,o),
(343,276,cs),
(340,283,o),
(330,286,o),
(323,277,cs),
(313,263,o),
(317,267,o),
(307,256,cs),
(305,254,l),
(303,261,o),
(301,266,o),
(300,268,cs),
(297,279,o),
(286,280,o),
(282,274,cs),
(268,254,o),
(268,254,o),
(263,250,c),
(259,279,o),
(254,321,o),
(252,327,cs),
(250,336,o),
(241,338,o),
(234,329,cs),
(223,314,o),
(220,310,o),
(200,293,c),
(194,301,ls),
(190,307,o),
(183,308,o),
(179,302,cs),
(171,289,o),
(165,281,o),
(157,272,cs),
(153,268,l),
(139,284,o),
(125,294,o),
(97,294,cs),
(58,294,o),
(33,259,o),
(33,233,cs),
(33,218,o),
(36,207,o),
(41,199,c),
(39,199,o),
(37,198,o),
(34,196,c),
(26,187,o),
(14,177,o),
(4,171,cs),
(-3,168,o),
(-9,164,o),
(-2,155,cs),
(14,133,o),
(29,122,o),
(87,122,cs),
(143,122,o),
(189,127,o),
(192,175,c)
);
}
);
width = 433;
},
{
associatedMasterId = m01;
attr = {
colorPalette = 1;
};
background = {
shapes = (
{
closed = 1;
nodes = (
(-493,10,o),
(-575,92,o),
(-575,195,cs),
(-575,297,o),
(-493,379,o),
(-391,379,cs),
(-288,379,o),
(-206,297,o),
(-206,195,cs),
(-206,92,o),
(-288,10,o),
(-391,10,cs)
);
}
);
};
layerId = "A4C02AA6-6022-44EC-AFA7-E0EFF98AA081";
name = "Color 1 17 Apr 23 at 00:03";
shapes = (
{
alignment = -1;
pos = (172,20);
ref = _ayah.noon;
},
{
alignment = -1;
pos = (0,180);
ref = _ayah.090;
}
);
width = 433;
}
);
metricLeft = "=0";
metricRight = "=0";
},
{
glyphname = ayah.100;
layers = (
{
anchors = (
{
name = _top;
pos = (161,173);
}
);
background = {
shapes = (
{
closed = 1;
nodes = (
(-493,10,o),
(-575,92,o),
(-575,195,cs),
(-575,297,o),
(-493,379,o),
(-391,379,cs),
(-288,379,o),
(-206,297,o),
(-206,195,cs),
(-206,92,o),
(-288,10,o),
(-391,10,cs)
);
}
);
};
layerId = m01;
shapes = (
{
alignment = -1;
pos = (0,80);
ref = _ayah.100;
}
);
width = 321;
},
{
associatedMasterId = m01;
attr = {
colorPalette = 4;
};
background = {
shapes = (
{
closed = 1;
nodes = (
(-493,10,o),
(-575,92,o),
(-575,195,cs),
(-575,297,o),
(-493,379,o),
(-391,379,cs),
(-288,379,o),
(-206,297,o),
(-206,195,cs),
(-206,92,o),
(-288,10,o),
(-391,10,cs)
);
}
);
};
layerId = "D542F106-890E-45CF-A3C8-AEA4B940F3D6";
metricLeft = "=-5";
metricRight = "=-5";
name = "17 Apr 23 at 00:00";
shapes = (
{
closed = 1;
nodes = (
(270,75,ls),
(314,75,o),
(326,88,o),
(326,112,cs),
(326,151,o),
(299,194,o),
(267,194,cs),
(237,194,o),
(212,171,o),
(202,148,c),
(200,201,o),
(196,336,o),
(196,352,cs),
(196,365,o),
(185,367,o),
(179,359,cs),
(169,347,o),
(160,339,o),
(150,330,cs),
(143,322,o),
(144,314,o),
(146,288,cs),
(148,260,l),
(133,242,o),
(118,228,o),
(105,216,c),
(103,227,o),
(103,234,o),
(101,243,cs),
(99,254,o),
(87,256,o),
(81,245,c),
(77,233,o),
(73,227,o),
(64,220,cs),
(57,215,o),
(50,221,o),
(51,196,c),
(16,185,o),
(-5,155,o),
(-5,128,cs),
(-5,99,o),
(18,75,o),
(70,75,cs),
(120,75,ls),
(139,75,o),
(149,82,o),
(154,92,c),
(157,82,o),
(166,75,o),
(184,75,cs)
);
}
);
width = 321;
},
{
associatedMasterId = m01;
attr = {
colorPalette = 1;
};
background = {
shapes = (
{
closed = 1;
nodes = (
(-493,10,o),
(-575,92,o),
(-575,195,cs),
(-575,297,o),
(-493,379,o),
(-391,379,cs),
(-288,379,o),
(-206,297,o),
(-206,195,cs),
(-206,92,o),
(-288,10,o),
(-391,10,cs)
);
}
);
};
layerId = "A4C02AA6-6022-44EC-AFA7-E0EFF98AA081";
name = "Color 1 17 Apr 23 at 00:03";
shapes = (
{
alignment = -1;
pos = (0,80);
ref = _ayah.100;
}
);
visible = 1;
width = 321;
}
);
metricLeft = "=0";
metricRight = "=0";
},
{
glyphname = _ayah.010;
layers = (
{
layerId = m01;
shapes = (
{
closed = 1;
nodes = (
(116,-47,o),
(140,-47,o),
(157,-42,cs),
(178,-37,o),
(182,-20,o),
(181,-6,cs),
(181,-4,o),
(181,-1,o),
(180,1,c),
(311,1,ls),
(406,1,o),
(436,1,o),
(451,4,c),
(454,4,o),
(457,6,o),
(459,8,c),
(468,14,o),
(482,30,o),
(493,38,cs),
(496,40,o),
(497,44,o),
(490,44,cs),
(435,40,o),
(342,67,o),
(368,112,cs),
(372,119,o),
(385,138,o),
(389,143,cs),
(393,148,o),
(390,154,o),
(384,148,cs),
(378,142,o),
(339,106,o),
(329,95,cs),
(317,81,o),
(321,65,o),
(335,50,cs),
(337,48,o),
(333,47,o),
(331,49,cs),
(321,57,o),
(314,70,o),
(310,109,cs),
(309,117,o),
(305,117,o),
(301,109,cs),
(294,97,o),
(287,89,o),
(275,79,cs),
(270,75,o),
(265,75,o),
(267,70,cs),
(270,61,o),
(273,58,o),
(275,54,cs),
(276,52,o),
(273,50,o),
(271,52,cs),
(261,66,o),
(256,85,o),
(250,104,cs),
(249,108,o),
(246,107,o),
(245,104,cs),
(237,82,o),
(228,73,o),
(218,68,cs),
(215,66,o),
(214,64,o),
(215,61,cs),
(217,56,o),
(220,52,o),
(222,48,cs),
(224,45,o),
(220,42,o),
(218,46,cs),
(211,57,o),
(206,65,o),
(196,99,cs),
(194,105,o),
(191,104,o),
(188,99,cs),
(179,85,o),
(174,75,o),
(163,71,cs),
(159,69,o),
(156,66,o),
(159,61,cs),
(162,56,o),
(165,50,o),
(169,45,cs),
(171,42,o),
(167,40,o),
(165,43,cs),
(154,60,o),
(139,77,o),
(126,86,cs),
(123,88,o),
(122,89,o),
(120,89,cs),
(118,89,o),
(117,87,o),
(115,85,cs),
(104,75,o),
(74,41,o),
(59,26,cs),
(56,23,o),
(54,18,o),
(60,15,cs),
(78,5,o),
(109,1,o),
(129,1,cs),
(132,1,o),
(133,-4,o),
(129,-4,c),
(111,-7,o),
(65,1,o),
(43,13,cs),
(39,15,o),
(38,15,o),
(36,12,cs),
(28,2,o),
(17,-11,o),
(5,-16,cs),
(-1,-18,o),
(-2,-22,o),
(4,-26,cs),
(21,-37,o),
(56,-48,o),
(91,-47,cs)
);
}
);
width = 495;
}
);
metricLeft = "=0";
metricRight = "=0";
},
{
glyphname = _ayah.030;
layers = (
{
layerId = m01;
shapes = (
{
closed = 1;
nodes = (
(151,-55,o),
(183,-50,o),
(183,0,c),
(292,0,ls),
(308,0,o),
(319,15,o),
(319,29,cs),
(318,69,o),
(316,105,o),
(316,145,cs),
(316,149,o),
(313,150,o),
(310,146,cs),
(302,134,o),
(291,123,o),
(280,114,cs),
(274,109,o),
(275,104,o),
(276,92,cs),
(277,78,o),
(277,73,o),
(277,51,cs),
(277,47,o),
(272,47,o),
(272,51,cs),
(272,112,o),
(266,162,o),
(262,240,cs),
(262,250,o),
(256,252,o),
(252,244,cs),
(247,235,o),
(232,222,o),
(225,216,cs),
(219,211,o),
(221,206,o),
(221,202,cs),
(225,137,o),
(230,103,o),
(230,51,cs),
(230,47,o),
(225,46,o),
(225,51,cs),
(225,88,o),
(223,99,o),
(220,136,cs),
(219,144,o),
(215,144,o),
(212,140,cs),
(199,122,o),
(192,114,o),
(185,108,cs),
(181,104,o),
(180,103,o),
(180,99,cs),
(181,87,o),
(183,73,o),
(183,51,cs),
(183,48,o),
(179,48,o),
(179,51,cs),
(179,61,o),
(173,81,o),
(161,97,cs),
(148,114,o),
(135,124,o),
(109,124,cs),
(68,124,o),
(49,84,o),
(49,51,cs),
(49,-1,o),
(80,-7,o),
(129,-2,cs),
(134,-2,o),
(135,-7,o),
(129,-8,cs),
(117,-9,o),
(78,-15,o),
(52,7,cs),
(49,10,o),
(43,14,o),
(40,9,cs),
(35,0,o),
(15,-16,o),
(6,-16,cs),
(2,-16,o),
(-3,-19,o),
(2,-25,cs),
(18,-48,o),
(34,-55,o),
(92,-55,cs)
);
},
{
closed = 1;
nodes = (
(108,59,o),
(106,61,o),
(106,64,cs),
(106,66,o),
(108,69,o),
(111,69,cs),
(113,69,o),
(116,66,o),
(116,64,cs),
(116,61,o),
(113,59,o),
(111,59,cs)
);
}
);
width = 319;
},
{
associatedMasterId = m01;
layerId = "B10AC9CA-542D-49FB-B0FA-ABD6CC33AA70";
name = "17 Apr 23 at 02:41";
shapes = (
{
closed = 1;
nodes = (
(116,133,o),
(140,133,o),
(157,138,cs),
(178,143,o),
(182,160,o),
(181,174,cs),
(181,176,o),
(181,179,o),
(180,181,c),
(311,181,ls),
(406,181,o),
(436,181,o),
(451,184,c),
(454,184,o),
(457,186,o),
(459,188,c),
(468,194,o),
(482,210,o),
(493,218,cs),
(496,220,o),
(497,224,o),
(490,224,cs),
(435,220,o),
(342,247,o),
(368,292,cs),
(372,299,o),
(385,318,o),
(389,323,cs),
(393,328,o),
(390,334,o),
(384,328,cs),
(378,322,o),
(339,286,o),
(329,275,cs),
(317,261,o),
(321,245,o),
(335,230,cs),
(337,228,o),
(333,227,o),
(331,229,cs),
(321,237,o),
(314,250,o),
(310,289,cs),
(309,297,o),
(305,297,o),
(301,289,cs),
(294,277,o),
(287,269,o),
(275,259,cs),
(270,255,o),
(265,255,o),
(267,250,cs),
(270,241,o),
(273,238,o),
(275,234,cs),
(276,232,o),
(273,230,o),
(271,232,cs),
(261,246,o),
(256,265,o),
(250,284,cs),
(249,288,o),
(246,287,o),
(245,284,cs),
(237,262,o),
(228,253,o),
(218,248,cs),
(215,246,o),
(214,244,o),
(215,241,cs),
(217,236,o),
(220,232,o),
(222,228,cs),
(224,225,o),
(220,222,o),
(218,226,cs),
(211,237,o),
(206,245,o),
(196,279,cs),
(194,285,o),
(191,284,o),
(188,279,cs),
(179,265,o),
(174,255,o),
(163,251,cs),
(159,249,o),
(156,246,o),
(159,241,cs),
(162,236,o),
(165,230,o),
(169,225,cs),
(171,222,o),
(167,220,o),
(165,223,cs),
(154,240,o),
(139,257,o),
(126,266,cs),
(123,268,o),
(122,269,o),
(120,269,cs),
(118,269,o),
(117,267,o),
(115,265,cs),
(104,255,o),
(74,221,o),
(59,206,cs),
(56,203,o),
(54,198,o),
(60,195,cs),
(78,185,o),
(109,181,o),
(129,181,cs),
(132,181,o),
(133,176,o),
(129,176,c),
(111,173,o),
(65,181,o),
(43,193,cs),
(39,195,o),
(38,195,o),
(36,192,cs),
(28,182,o),
(17,169,o),
(5,164,cs),
(-1,162,o),
(-2,158,o),
(4,154,cs),
(21,143,o),
(56,132,o),
(91,133,cs)
);
}
);
width = 495;
}
);
metricLeft = "=0";
metricRight = "=0";
},
{
glyphname = _ayah.040.1;
layers = (
{
layerId = m01;
shapes = (
{
closed = 1;
nodes = (
(165,67,o),
(164,69,o),
(164,71,cs),
(164,73,o),
(165,75,o),
(168,75,cs),
(169,75,o),
(173,73,o),
(173,71,cs),
(173,69,o),
(169,67,o),
(168,67,cs)
);
},
{
closed = 1;
nodes = (
(84,7,o),
(87,17,o),
(86,30,cs),
(84,87,o),
(79,113,o),
(63,133,cs),
(59,135,o),
(58,135,o),
(57,131,cs),
(55,117,o),
(40,104,o),
(27,101,cs),
(23,100,o),
(23,97,o),
(27,94,cs),
(56,87,o),
(64,74,o),
(60,27,c),
(43,25,o),
(38,28,o),
(29,33,cs),
(28,34,o),
(27,34,o),
(25,32,cs),
(17,21,o),
(9,17,o),
(3,12,cs),
(-2,12,o),
(-1,8,o),
(4,5,cs),
(23,0,o),
(54,-3,o),
(73,3,cs)
);
},
{
closed = 1;
nodes = (
(306,35,o),
(315,47,o),
(315,58,cs),
(314,87,o),
(313,112,o),
(313,142,cs),
(313,144,o),
(310,145,o),
(308,142,cs),
(301,134,o),
(294,125,o),
(286,120,cs),
(283,117,o),
(283,112,o),
(283,103,cs),
(284,93,o),
(284,89,o),
(284,74,cs),
(284,70,o),
(280,70,o),
(280,74,cs),
(281,107,o),
(274,137,o),
(271,142,cs),
(270,147,o),
(268,147,o),
(265,142,cs),
(257,131,o),
(255,128,o),
(240,117,c),
(251,105,ls),
(254,103,o),
(250,100,o),
(248,102,cs),
(243,108,o),
(236,115,o),
(230,122,cs),
(228,124,o),
(226,125,o),
(225,123,cs),
(219,113,o),
(215,108,o),
(209,101,cs),
(207,98,o),
(205,98,o),
(208,94,cs),
(218,83,o),
(226,74,o),
(237,63,c),
(240,60,o),
(237,59,o),
(236,60,c),
(226,69,o),
(207,89,o),
(203,95,cs),
(193,108,o),
(183,117,o),
(163,117,cs),
(136,117,o),
(119,93,o),
(119,74,cs),
(119,37,o),
(147,32,o),
(188,35,cs),
(191,35,o),
(193,31,o),
(188,31,cs),
(179,31,o),
(147,25,o),
(131,39,cs),
(125,43,o),
(121,48,o),
(118,42,cs),
(116,39,o),
(101,27,o),
(96,27,cs),
(94,27,o),
(89,24,o),
(94,20,cs),
(104,4,o),
(114,-2,o),
(155,-2,cs),
(197,-2,o),
(228,1,o),
(228,35,c),
(295,35,ls)
);
}
);
width = 315;
}
);
metricLeft = "=0";
metricRight = "=0";
},
{
glyphname = _ayah.050;
layers = (
{
layerId = m01;
shapes = (
{
closed = 1;
nodes = (
(74,32,o),
(72,33,o),
(72,36,cs),
(72,38,o),
(74,41,o),
(77,41,cs),
(80,41,o),
(82,38,o),
(82,36,cs),
(82,32,o),
(80,32,o),
(77,32,cs)
);
},
{
closed = 1;
nodes = (
(226,50,o),
(227,61,o),
(232,72,c),
(230,84,ls),
(229,91,o),
(226,90,o),
(222,84,cs),
(210,65,o),
(209,64,o),
(201,56,c),
(202,50,o),
(205,45,o),
(207,42,cs),
(209,39,o),
(205,37,o),
(203,39,cs),
(195,50,o),
(194,65,o),
(191,80,cs),
(190,84,o),
(188,83,o),
(187,80,cs),
(181,63,o),
(174,57,o),
(163,50,c),
(166,43,o),
(169,39,o),
(170,37,cs),
(173,32,o),
(168,31,o),
(166,34,cs),
(160,43,o),
(156,49,o),
(153,76,cs),
(152,81,o),
(150,80,o),
(146,76,cs),
(134,61,o),
(131,58,o),
(122,51,c),
(125,46,o),
(129,40,o),
(132,35,cs),
(134,31,o),
(130,29,o),
(128,32,cs),
(112,56,o),
(106,78,o),
(74,78,cs),
(50,78,o),
(34,60,o),
(34,36,cs),
(34,4,o),
(54,-6,o),
(98,-2,cs),
(102,-2,o),
(103,-6,o),
(98,-6,cs),
(90,-6,o),
(62,-12,o),
(39,4,cs),
(36,7,o),
(33,11,o),
(30,8,cs),
(26,0,o),
(11,-12,o),
(5,-12,cs),
(2,-12,o),
(-2,-15,o),
(2,-20,cs),
(14,-36,o),
(18,-44,o),
(62,-44,cs),
(108,-44,o),
(132,-38,o),
(132,0,c),
(155,0,o),
(385,0,o),
(407,0,cs),
(413,0,o),
(422,1,o),
(426,4,cs),
(433,11,o),
(440,17,o),
(447,28,cs),
(449,30,o),
(448,32,o),
(445,32,cs),
(378,43,o),
(360,61,o),
(338,96,cs),
(337,98,o),
(333,100,o),
(331,96,cs),
(326,84,o),
(324,78,o),
(318,68,c),
(321,57,o),
(323,50,o),
(323,41,cs),
(323,38,o),
(318,38,o),
(318,41,cs),
(313,79,o),
(302,96,o),
(277,96,cs),
(252,96,o),
(232,84,o),
(230,41,cs),
(230,37,o),
(226,38,o),
(226,41,cs)
);
},
{
closed = 1;
nodes = (
(275,52,o),
(274,53,o),
(274,56,cs),
(274,57,o),
(275,60,o),
(278,60,cs),
(280,60,o),
(282,57,o),
(282,56,cs),
(282,53,o),
(279,52,o),
(278,52,cs)
);
}
);
width = 448;
}
);
metricLeft = "=0";
metricRight = "=0";
},
{
glyphname = _ayah.060;
layers = (
{
layerId = m01;
shapes = (
{
closed = 1;
nodes = (
(101,42,o),
(99,44,o),
(99,48,cs),
(99,50,o),
(101,54,o),
(105,54,cs),
(107,54,o),
(111,50,o),
(111,48,cs),
(111,44,o),
(107,42,o),
(105,42,cs)
);
},
{
closed = 1;
nodes = (
(290,-1,ls),
(332,-1,o),
(339,13,o),
(339,28,cs),
(341,56,o),
(331,114,o),
(327,134,cs),
(326,141,o),
(321,140,o),
(319,134,cs),
(316,121,o),
(310,113,o),
(302,107,cs),
(299,105,o),
(296,104,o),
(297,99,cs),
(299,92,o),
(302,70,o),
(304,58,cs),
(305,53,o),
(301,53,o),
(300,58,cs),
(297,71,o),
(294,100,o),
(287,112,cs),
(284,116,o),
(282,115,o),
(280,112,cs),
(271,98,o),
(266,94,o),
(258,87,cs),
(255,84,o),
(256,83,o),
(258,79,cs),
(260,74,o),
(263,70,o),
(265,65,cs),
(267,60,o),
(264,58,o),
(261,63,cs),
(255,75,o),
(248,88,o),
(241,100,cs),
(238,105,o),
(234,105,o),
(230,100,cs),
(221,90,o),
(219,87,o),
(211,76,cs),
(208,71,o),
(208,71,o),
(209,65,cs),
(211,49,ls),
(211,46,o),
(207,46,o),
(207,48,cs),
(203,67,o),
(192,128,o),
(192,132,cs),
(191,139,o),
(186,139,o),
(183,136,cs),
(170,119,o),
(172,120,o),
(163,111,cs),
(159,107,o),
(157,106,o),
(157,102,cs),
(158,90,o),
(164,66,o),
(168,47,cs),
(169,44,o),
(165,43,o),
(164,47,cs),
(160,63,o),
(158,73,o),
(152,81,cs),
(138,99,o),
(125,109,o),
(97,109,cs),
(61,109,o),
(38,77,o),
(38,53,cs),
(38,1,o),
(77,-5,o),
(132,0,cs),
(137,0,o),
(138,-5,o),
(132,-5,cs),
(121,-5,o),
(77,-13,o),
(49,8,cs),
(45,11,o),
(41,16,o),
(38,12,cs),
(33,3,o),
(14,-13,o),
(6,-13,cs),
(2,-13,o),
(-3,-16,o),
(2,-22,cs),
(17,-43,o),
(31,-53,o),
(87,-53,cs),
(144,-53,o),
(174,-48,o),
(174,0,c)
);
}
);
width = 339;
}
);
metricLeft = "=0";
metricRight = "=0";
},
{
glyphname = _ayah.070;
layers = (
{
layerId = m01;
shapes = (
{
closed = 1;
nodes = (
(101,42,o),
(99,44,o),
(99,48,cs),
(99,50,o),
(101,54,o),
(105,54,cs),
(107,54,o),
(111,50,o),
(111,48,cs),
(111,44,o),
(107,42,o),
(105,42,cs)
);
},
{
closed = 1;
nodes = (
(386,-1,ls),
(428,-1,o),
(435,13,o),
(435,28,cs),
(437,56,o),
(427,114,o),
(423,134,cs),
(422,141,o),
(417,140,o),
(415,134,cs),
(412,121,o),
(406,113,o),
(398,107,cs),
(395,105,o),
(392,104,o),
(393,99,cs),
(395,92,o),
(398,70,o),
(400,58,cs),
(401,53,o),
(397,53,o),
(396,58,cs),
(393,71,o),
(390,100,o),
(383,112,cs),
(380,116,o),
(378,115,o),
(376,112,cs),
(367,98,o),
(362,94,o),
(354,87,cs),
(351,84,o),
(352,83,o),
(354,79,cs),
(356,74,o),
(359,70,o),
(361,65,cs),
(363,60,o),
(360,58,o),
(357,63,cs),
(351,75,o),
(344,88,o),
(337,100,cs),
(334,105,o),
(330,105,o),
(326,100,cs),
(317,90,o),
(315,87,o),
(307,76,cs),
(304,71,o),
(304,71,o),
(305,65,cs),
(307,49,ls),
(307,46,o),
(303,46,o),
(303,48,cs),
(299,67,o),
(293,128,o),
(293,132,cs),
(292,139,o),
(287,139,o),
(284,136,cs),
(271,119,o),
(273,120,o),
(264,111,cs),
(260,107,o),
(258,106,o),
(258,102,cs),
(259,90,o),
(261,74,o),
(264,50,cs),
(264,47,o),
(260,45,o),
(259,50,cs),
(255,74,o),
(249,138,o),
(247,146,cs),
(246,151,o),
(242,151,o),
(238,146,cs),
(227,131,o),
(224,126,o),
(204,110,c),
(219,95,ls),
(222,92,o),
(218,88,o),
(215,91,cs),
(207,99,o),
(197,108,o),
(190,118,cs),
(188,121,o),
(185,122,o),
(183,119,cs),
(175,106,o),
(169,98,o),
(161,89,cs),
(158,86,o),
(155,85,o),
(158,82,cs),
(174,65,o),
(185,51,o),
(200,37,c),
(204,33,o),
(200,30,o),
(197,33,c),
(185,44,o),
(158,73,o),
(152,81,cs),
(138,99,o),
(125,109,o),
(97,109,cs),
(61,109,o),
(38,77,o),
(38,53,cs),
(38,1,o),
(77,-5,o),
(132,0,cs),
(137,0,o),
(138,-5,o),
(132,-5,cs),
(121,-5,o),
(77,-13,o),
(49,8,cs),
(45,11,o),
(42,16,o),
(38,12,cs),
(29,3,o),
(17,-7,o),
(6,-13,cs),
(2,-15,o),
(-3,-16,o),
(2,-22,cs),
(17,-43,o),
(31,-53,o),
(87,-53,cs),
(144,-53,o),
(187,-48,o),
(187,0,c)
);
}
);
width = 435;
}
);
metricLeft = "=0";
metricRight = "=0";
},
